<svg xmlns="http://www.w3.org/2000/svg" width="2000" height="857" fill="#7CB76A" stroke="#7CB76A" stroke-linecap="round" stroke-linejoin="round" stroke-width=".2" version="1.2"><path id="AF" d="m1383 261.6 1.5 1.8-2.9.8-2.4 1.1-5.9.8-5.3 1.3-2.4 2.8 1.9 2.7 1.4 3.2-2 2.7.8 2.5-.9 2.3-5.2-.2 3.1 4.2-3.1 1.7-1.4 3.8 1.1 3.9-1.8 1.8-2.1-.6-4 .9-.2 1.7h-4.1l-2.3 3.7.8 5.4-6.6 2.7-3.9-.6-.9 1.4-3.4-.8-5.3 1-9.6-3.3 3.9-5.8-1.1-4.1-4.3-1.1-1.2-4.1-2.7-5.1 1.6-3.5-2.5-1 .5-4.7.6-8 5.9 2.5 3.9-.9.4-2.9 4-.9 2.6-2-.2-5.1 4.2-1.3.3-2.2 2.9 1.7 1.6.2h3l4.3 1.4 1.8.7 3.4-2 2.1 1.2.9-2.9 3.2.1.6-.9-.2-2.6 1.7-2.2 3.3 1.4-.1 2 1.7.3.9 5.4 2.7 2.1 1.5-1.4 2.2-.6 2.5-2.9 3.8.5z"/><path d="m1121.2 572 .6 2-.7 3.1.9 3-.9 2.4.4 2.2-11.7-.1-.8 20.5 3.6 5.2 3.6 4-10.4 2.6-13.5-.9-3.8-3-22.7.2-.8.5-3.3-2.9-3.6-.2-3.4 1.1-2.7 1.2-.5-4 .9-5.7 2-5.9.3-2.7 1.9-5.8 1.4-2.6 3.3-4.2 1.9-2.9.6-4.7-.3-3.7-1.6-2.3-1.5-3.9-1.3-3.8.3-1.4 1.7-2.5-1.6-6.2-1.2-4.3-2.8-4.1.6-1.2 2.3-.9 1.7.1 2-.7 16.7.1 1.3 4.7 1.6 3.9 1.3 2.1 2.1 3.3 3.8-.5 1.8-.9 3.1.9.9-1.6 1.5-3.7 3.5-.3.3-1.1h2.9l-.5 2.3 6.8-.1.1 4.1 1.1 2.4-.9 3.9.4 4 1.8 2.4-.4 7.6 1.4-.6 2.4.2 3.5-1zM1055.3 539l-1.5-4.8 2.3-2.8 1.7-1.1 2.1 2.2-2 1.4-1 1.6-.2 2.8z" class="Angola"/><path id="AL" d="m1088 228 .4 1.2 1.4-.6 1.2 1.7 1.3.7.6 2.3-.5 2.2 1 2.7 2.3 1.5.1 1.7-1.7.9-.1 2.1-2.2 3.1-.9-.4-.2-1.4-3.1-2.2-.7-3 .1-4.4.5-1.9-.9-1-.5-2.1z"/><path id="AE" d="m1296.2 336.7 1.3 5.1h-2.8v4.2l1.1.9-2.4 1.3.2 2.6-1.3 2.6v2.6l-1 1.4-16.9-3.2-2.7-6.6-.3-1.4.9-.4.4 1.8 4.2-1 4.6.2 3.4.2 3.3-4.4 3.7-4.1 3-4z"/><path d="m669.1 851.7-3-.2h-5l-6-13.6 3.1 2.8 4.3 4.6 7.8 3.7 7.3 1.5-.8 3-4.4.3zM638.6 644.7l11.3 10.4 4.6 1 7.3 4.8 5.9 2.5 1.1 2.8-4.2 9.8 5.8 1.7 6.3 1 4.2-1 4.3-5 .3-5.6 2.6-1.3 3.2 3.8.4 5.1-4.2 3.5-3.3 2.6-5.3 6.3-6 8.7-.5 5.2-.4 6.6 1.2 6.4-.9 1.4.4 4.1.3 3.4 7.8 5.5.2 4.4 3.9 2.8.3 3.1-3.3 8.2-7 3.5-10.2 1.3-6-.7 2.1 3.9.1 4.7 1.8 3.2-2.5 2.3-5.1.9-5.6-2.4-1.5 1.7 2.5 6.3 4 1.9 2.3-2 2.5 3.3-4.2 2-2.9 4 1.2 6.3-.1 3.4h-4.8l-3 3.2.1 4.8 6.5 4.6 5.2 1.2.2 5.7-4.6 3.5-.6 7.3-3.5 2.4-.9 2.9 4.2 6.5 4.6 3.5-2.1-.3-4.9-1-12.1-.8-3.5-3.6-1.9-4.6-3.1.4-2.6-2.3-3.1-6.5 2.7-2.8.1-3.9-1.8-3.2.7-5.4-1.1-8.3-1.8-3.7 1.8-1.2-1.4-2.4-2.8-1.2.8-2.7-3.1-2.4-3.7-7.3 1.7-1.3-3.3-7.8-.8-6.5-.2-5.7 2.5-2.3-3.3-6.3-1.6-5.8 3-4.2-1.4-5.4 1.6-6.2-1.4-5.9-1.6-1.2-4.9-11.1 2.1-6.6-1.7-6.2.9-5.9 2.6-6 3.3-4-2-2.5.8-2.1-1.6-10.7 5.6-3.1 1.2-6.7-.9-1.6 4-5.8 7.5 1.6 3.7 4.6 1.6-5.2 6.4.3z" class="Argentina"/><path id="AM" d="m1230.8 253-1.8.2-2.8-3.7-.2-1h-2.3l-1.9-1.7-1 .1-2.4-1.8-4.2-1.6-.1-3.1-1.3-2.2 7-1 1.4 1.6 2.2 1.1-.7 1.6 3.2 2.2-1.1 2.1 2.6 1.7 2.5 1z"/><path d="m1743 763.6 3.7 2.2 3.3-.9 4.9-1.2 2.8.4-4.5 7.6-3.3 2.1-4 5.2-.6-1.8-6.6 4.4-.8-.3-3-.2.5-5.4 2-4.2.6-5.6 2-2.9zM1793.5 590.2l1.2 5 4-2.4 1.4 2.7 2.3 2.5-1.1 2.9.2 5.5.2 3.2 1.3.8.4 5.5-1.2 3.3.8 4.3 5.4 3.4 3.2 3 3.2 2.8-1.1 1.6 2.3 4 .5 7 2.6-1.4 1.5 2.7 1.6-.9-.7 6.8 2.9 3.9 1.9 2.4 2.8 5.2v5.2l-1 3.7-1.8 3.9.7 5.5-2.5 5.7-2.1 3-3.8 5.7-1.5 3.7-3.1 4.6-5 5.8-5.5 3.2-4.4 4.9-3.3 3.2-4.4 5.5-3.7 3.2-3.9 4.8-3.1 4.4-.8 2.1-4.3 2.2-6.1.2-6.3 2.7-3.8 2.4-4.8 2.8-2.7-2.9-2.6-1.1 2.6-3.3-3.5 1.2-7.2 4.6-3.6-1.7-2.4-1-2.8-.5-4.1-1.8-1.3-4 1.5-4.8.4-3.3-1.4-2.6-4.7-.7 3.2-3.2.9-4.7-4.7 4.4-5.3 1.2 4.5-3.5 2.5-3.7 3.5-3.2 1.6-4.7-6.8 5.4-4.3 2.2-4.3 5.1-3-2.6 1.7-3.4-1.4-4.7-1.8-2.4 1.6-1.5-5.3-3.9-3.8-.1-4-3.2-9.9.6-7.9 2.3-6.9 2.2-5-.4-7 3.3-5.3 1.4-2.3 3.4-3 2.6-4.7.2-3.6.5-4.2-1.1-4.2.7-3.8.3-4.5 3.4-1.5-.3-3.4 1.8-3.4 2-3.8-.2h-3.5l-4.1-4.1-2.4-1.2 1.5-3.7 2.9-.9 1.5-1.4.6-2.3 2.3-4.5.7-3.8-.7-6.5.2-3.7 1.4-3.6-.9-4.2.3-1.9-1.7-2.6.7-5-1.9-5.1-.1-2.7 1.8 2.8-.5-6 2.3 1.9 1.1 2.5.6-3.3-1.6-5.1-.1-2-.8-1.9 1.3-3.7 1.5-1.6 1.3-3.2.1-3.8 3.1-4.6-.4 4.9 3.1-4.4 4.9-2.2 3.2-2.7 4.7-2.4 2.6-.5 1.4.8 4.8-2.4 3.5-.7 1.1-1.4 1.5-.6 3.1.2 6.2-1.9 3.5-2.9 2-3.4 3.9-3.2.7-2.6.7-3.5 4.9-5.5 1.4 5.6 2.6-1.3-1.5-3 2.3-3.1 2.2 1.4 1.5-4.9 3.5-3.2 1.8-2.5 2.9-1.1.4-1.8 2.3.7.4-1.6 2.6-.9 2.8-.9 3.7 3 2.6 3.8h3.5l3.5.6-.7-3.5 3.5-5.1 2.7-1.7-.6-1.6 2.9-3.7 3.7-2.3 2.7.8 4.9-1.2.3-3.3-3.9-2.1 3.1-.9 3.6 1.6 2.7 2.6 4.5 1.6 1.7-.6 3.3 2 3.5-1.9 2 .6 1.5-1.3 2.2 3.2-2 3.5-2.5 2.6-1.9.2.3 2.5-2.2 3.2-2.5 3.2.2 1.8 3.8 3.6 4 2 2.5 2.2 3.3 3.8h1.6l2.6 1.7.5 2 4.9 2.1 4.1-2.2 1.8-3.4 1.7-2.9 1.3-3.5 2.6-5.1-.2-3.1.7-1.9-.1-3.6 1.4-4.9 1.3-1.3-.6-2.1 1.8-3.4 1.5-3.5.4-1.9 2.3-2.4 1.3 3.2-.1 4 1.3.8-.1 2.7 1.6 3.2-.1 3.7z" class="Australia"/><path id="AT" d="m1070.6 190.8-.3.8.7 2.1-.2 2.6h-2.8l1.1 1.4-1.3 4-.9 1.1-4.4.1-2.4 1.5-4.2-.5-7.3-1.7-1.3-2.1-4.9 1.1-.5 1.2-3.1-.9-2.6-.2-2.3-1.2.7-1.5-.2-1.1 1.4-.3 2.7 1.7.6-1.7 4.4.3 3.5-1.1 2.4.2 1.7 1.3.4-1.1-1-4.1 1.7-.8 1.6-2.9 3.8 2.1 2.6-2.6 1.7-.5 4 1.9 2.3-.3z"/><path d="m1229 253.2-3.8-.9-3.2-2.9-1.2-2.5 1-.1 1.9 1.7h2.3l.2 1zM1235.3 236.2l2.5-2.6 3.5 3.3 3.6 4.6 2.5.3 1.9 1.7-4.2.5.1 5-.4 2.2-1.7 1.5.8 3.1-1.3.4-3.9-3.4 1.2-3.1-1.9-1.9-1.9.5-5.3 4.7-.9-4.5-2.5-1-2.6-1.7 1.1-2.1-3.2-2.2.7-1.6-2.2-1.1-1.4-1.6 1.1-1.1 4.2 1.9 2.9.3.6-.7-3.3-3.5 1.2-.8 1.5.2 4.3 3.8 2.4.5z" class="Azerbaijan"/><path id="BI" d="m1154.9 530.4-.6.1v-.3l-2-6.1-.01-.06-.09-1.04-1.4-2.9 3.5.5 1.7-3.7 3.1.4.3 2.5 1.2 1.5v2.1l-1.4 1.3-2.3 3.4z"/><path id="BE" d="m1016.5 177.1-.4 4.2-1.3.2-.4 3.5-4.4-2.9-2.5.5-3.5-2.9-2.4-2.5-2.2-.1-.8-2.2 3.9-1.2 3.6.5 4.5-1.3 3.1 2.7z"/><path id="BJ" d="m1006.7 427-.2 2.1 1.3 3.8-1.1 2.6.6 1.7-2.8 4-1.7 2-1.1 4 .2 4.1-.3 10.3-4.7.8-1.4-4.4.3-14.8-1.2-1.3-.2-3.2-2-2.2-1.7-1.9.7-3.4 2-.7 1.1-2.8 2.8-.6 1.2-1.9 1.9-1.9h2z"/><path id="BF" d="m988.5 406-.5 3.1.8 2.9 3.1 4.2.2 3.1 6.5 1.5-.1 4.4-1.2 1.9-2.8.6-1.1 2.8-2 .7-4.9-.1-2.6-.5-1.8 1-2.5-.5-9.8.3-.2 3.7.8 4.8-3.9-1.6-2.6.2-2 1.6-2.5-1.3-1-2.2-2.5-1.4-.4-3.7 1.6-2.7-.2-2.2 4.5-5.3.9-4.4 1.5-1.6 2.7.9 2.4-1.3.8-1.7 4.3-2.8 1.1-2 5.3-2.7 3.1-.9 1.4 1.2z"/><path id="BD" d="m1500.6 360.3.6 4.6-2.1-1 1.1 5.2-2.1-3.3-.8-3.3-1.5-3.1-2.8-3.7-5.2-.3.9 2.7-1.2 3.5-2.6-1.3-.6 1.2-1.7-.7-2.2-.6-1.6-5.3-2.6-4.8.3-3.9-3.7-1.7.9-2.3 3-2.4-4.6-3.4 1.2-4.4 4.9 2.8 2.7.3 1.2 4.5 5.4.9 5.1-.1 3.4 1.1-1.6 5.4-2.4.4-1.2 3.6 3.6 3.4.3-4.2h1.5z"/><path id="BG" d="m1132.6 221.6-2.3 2.6-1.3 4.5 2.1 3.6-4.6-.8-5 2 .3 3.2-4.6.6-3.9-2.3-4 1.8-3.8-.2-.8-4.2-2.8-2.1.7-.8-.6-.8.6-2 1.8-2-2.8-2.7-.7-2.4 1.1-1.4 1.8 2.6 1.9-.4 4 .9 7.6.4 2.3-1.6 5.9-1.5 4 2.3z"/><path id="BA" d="m1083 214.3 1.9-.1-1.1 2.8 2.7 2.5-.5 2.9-1.1.3-.9.6-1.6 1.5-.4 3.5-4.8-2.4-2.1-2.7-2.1-1.4-2.5-2.4-1.3-1.9-2.7-3 .8-2.6 2 1.5 1-1.4 2.3-.1 4.5 1.1 3.5-.1z"/><path id="BY" d="m1141.6 162.7-3.9-.2-.8.6 1.5 2 2 4-4.1.3-1.3 1.4.3 3.1-2.1-.6-4.3.3-1.5-1.5-1.7 1.1-1.9-.9-3.9-.1-5.7-1.5-4.9-.5-3.8.2-2.4 1.6-2.3.3-.5-2.8-1.9-2.8 2.8-1.3-.4-2.4-1.7-2.3-.6-2.7h4.7l4.8-2.3.5-3.4 3.6-2-1-2.7 2.7-1 4.6-2.3 5.3 1.5.9 1.5 2.4-.7 4.8 1.4 1.1 2.9-.7 1.6 3.8 4 2.1 1.1v1.1l3.4 1.1 1.7 1.6z"/><path id="BZ" d="M487.8 399.8h-1.7l1.3-7.2.7-5.1.1-1 .7-.3.9.8 2.5-3.9 1.1-.1-.1 1h1l-.3 1.8-1.3 2.7.4 1-.9 2.3.3.6-1 3.3-1.3 1.7-1.1.2z"/><path id="BO" d="m662.5 631.4-.3-2-5.4-3.3-5.2-.1-9.6 1.9-2.1 5.6.2 3.5-1.5 7.7-1-1.4-6.4-.3-1.6 5.2-3.7-4.6-7.5-1.6-4 5.8-3.9.9-3.1-8.9-3.7-7.2 1.1-6.2-3.2-2.7-1.2-4.6-3.2-4.4 2.9-6.9-2.9-5.4 1.1-2.2-1.2-2.4 1.9-3.2-.3-5.4v-4.6l1.1-2.1-5.5-10.4 4.2.6 2.9-.2 1.1-1.9 4.8-2.6 2.9-2.4 7.3-1.1-.4 4.8.9 2.5-.3 4.3 6.5 5.7 6.4 1.1 2.3 2.4 3.9 1.3 2.5 1.8h3.5l3.4 1.9.5 3.7 1.2 1.9.3 2.7-1.7.1 2.8 7.5 10.7.3-.5 3.7.8 2.5 3.2 1.8 1.7 4-.6 5.1-1.3 2.8.8 3.6z"/><path id="BR" d="m665.8 489.6 3.1.6.6-1.4-1-1.2.6-1.9 2.3.6 2.7-.7 3.2 1.4 2.5 1.3 1.7-1.7 1.3.2.8 1.8 2.7-.4 2.2-2.5 1.8-4.7 3.4-5.9 2-.3 1.3 3.6 3 11.2 3.1 1.1.1 4.4-4.3 5.3 1.7 1.9 10.1 1 .2 6.5 4.3-4.2 7.1 2.3 9.5 3.9 2.8 3.7-.9 3.6 6.6-2 11 3.4 8.5-.2 8.4 5.3 7.4 7.2 4.4 1.8 4.8.3 2.1 2 2 8.2 1.1 3.9-2.1 10.6-2.7 4.2-7.7 8.9-3.4 7.3-4 5.5-1.4.2-1.3 4.7.9 12-1.1 9.9-.3 4.2-1.6 2.6-.5 8.6-5.2 8.3-.5 6.7-4.3 2.7-1.1 3.9h-6l-8.5 2.4-3.7 2.9-6 1.9-6.1 5.1-4.1 6.4-.3 4.8 1.3 3.5-.3 6.5-.8 3.1-3.4 3.6-4.5 11.3-4 5-3.2 3.1-1.5 6.1-2.9 3.6-2.1-3.6 1.8-3.1-3.8-4.3-4.8-3.6-6.3-4.1-1.9.2-6.3-5-3.4.7 6-8.7 5.3-6.3 3.3-2.6 4.2-3.5-.4-5.1-3.2-3.8-2.6 1.3.7-3.7.3-3.8-.3-3.6-2.1-1.1-2 1-2.1-.3-.8-2.4-1.1-5.9-1.2-1.9-3.9-1.8-2.2 1.3-5.9-1.3-.4-8.7-2-3.5 1.6-1.4-.8-3.6 1.3-2.8.6-5.1-1.7-4-3.2-1.8-.8-2.5.5-3.7-10.7-.3-2.8-7.5 1.7-.1-.3-2.7-1.2-1.9-.5-3.7-3.4-1.9h-3.5l-2.5-1.8-3.9-1.3-2.3-2.4-6.4-1.1-6.5-5.7.3-4.3-.9-2.5.4-4.8-7.3 1.1-2.9 2.4-4.8 2.6-1.1 1.9-2.9.2-4.2-.6-3.2 1.1-2.6-.7-.1-9.7-4.4 3.7-5-.1-2.3-3.5-3.8-.3 1-2.8-3.3-3.9-2.6-5.8 1.5-1.1-.2-2.8 3.4-1.8-.7-3.5 1.4-2.2.3-3 6.3-4.4 4.6-1.2.8-1 5.1.3 2.2-17.6.1-2.8-.9-3.6-2.6-2.4.1-4.7 3.2-1 1.1.7.2-2.5-3.3-.7v-4l11 .2 1.9-2.3 1.6 2.1 1 3.8 1.1-.8 3.1 3.4 4.4-.4 1.1-2 4.2-1.5 2.4-1.1.7-2.7 4.1-1.8-.3-1.4-4.8-.5-.7-4.1.3-4.3-2.5-1.6 1.1-.6 4.1.8 4.5 1.6 1.7-1.5 4.1-1 6.4-2.4 2.1-2.5-.7-1.8 3-.2 1.2 1.4-.8 2.9 2 .9 1.2 3-1.6 2.3-1 5.4 1.4 3.3.3 3 3.5 3 2.8.3.6-1.3 1.8-.3 2.6-1.1 1.8-1.7 3.2.6z"/><path id="BN" d="m1633.1 472.8 2.2-2.4 4.6-3.6-.1 3.2-.1 4.1-2.7-.2-1.1 2.2z"/><path id="BT" d="m1488.8 323.5 2.6 2.1.5 3.9-4.5.2-4.7-.4-3.2 1-5.5-2.5-.4-1.2 2.6-4.8 2.6-1.6 4.3 1.4 2.9.2z"/><path id="BW" d="m1127.6 615.7 1.9 5.1 1.1 1.2 1.6 3.7 6.1 7 2.3.7-.1 2.3 1.5 4.1 4.3 1 3.4 2.9-8.1 4.7-5.2 4.8-2 4.3-1.8 2.4-3 .5-1.2 3.1-.6 2-3.6 1.4-4.5-.3-2.5-1.8-2.3-.7-2.8 1.4-1.5 3.1-2.7 1.9-2.8 2.9-4 .7-1.1-2.3.6-3.9-3-6.1-1.4-1 .6-18.7 5.5-.2.8-22.9 4.2-.2 8.7-2.3 2 2.7 3.7-2.5h1.7l3.2-1.5z"/><path id="CF" d="m1121.3 446.5 3.9 2.5 3.1 2.6.1 2.1 3.9 3.3 2.4 2.8 1.4 3.8 4.3 2.6.9 2-1.8.7-3.7-.1-4.2-.7-2.1.5-.9 1.6-1.8.2-2.2-1.4-6.3 3.2-2.6-.6-.8.5-1.6 3.9-4.3-1.3-4.1-.6-3.6-2.4-4.7-2.2-3 2.1-2.2 3.2-.5 4.5-3.6-.3-3.9-1.1-3.3 3.4-3 6-.6-1.9-.3-2.9-2.6-2.1-2.1-3.3-.5-2.3-2.7-3.4.5-1.9-.6-2.7.4-5 1.4-1.1 2.8-6.5 4.6-.5 1-1.7 1 .2 1.4 1.4 7.1-2.4 2.4-2.5 2.9-2.3-.6-2.2 1.6-.6 5.5.4 5.2-3 4-7 2.8-2.6 3.6-1.1.7 2.7 3.3 4v2.7l-.8 2.6.4 2 1.9 1.9z"/><path d="m665.9 203.6 3.4.9 4.7-.2-3.3 2.6-2 .4-5.5-2.7-.6-2.1 2.5-1.9zM680.3 187.6l-2.4.1-5.8-1.9-3.5-3 1.9-.5 5.9 1.6 4.2 2.6zM372.4 191.3l-3.1.9-6.3-2.8v-2.2l-2.9-2.2.3-1.8-4.3-1.1.6-3.4 1.5-1.4 4.1 1.3 2.4 1 4.1.6.2 2.2.4 2.9 3.2 2.6zM711.5 177.8l-5 5.4 3.9-2.1 2.9 1.4-2.4 2.1 3.8 1.7 2.8-1.5 4.3 1.9-2.8 4.6 3.8-1.1-.3 3.3.5 3.9-3.6 5.6-2.4.2-2.9-1.2 2.5-5.1-1.2-.8-7.3 5.4-3-.2 4.4-3-4.4-1.5-5.5.4-9.6-.2-.2-1.8 3.8-2.3-1.7-1.6 5.4-3.8 8.2-9.9 4.2-3.5 5-2.1 2.1.2-1.5 1.7zM351.5 156.4l1.5.8 5-.5-7.2 6.9.3 5h-1.9l-.7-2.8.5-2.9-.8-1.9 1.3-2.7zM634.9 108.9l-3.6 3-1.7-.5-.1-1.7.4-.4 2.8-1.7 1.7.1zM625.2 105.7l-7.2 3.2-3-.2v-1.5l5-2.7 6 .1zM622.1 88.9l-.9 2.5 2.7-.9 1.5 1.5 3.5 2 3.8 1.7-1.4 2.7 3.5-.4 1.9 1.9-5 1.8-5.9-1.4-.8-2.6-6.3 3.1-8.2 2.9.7-3.3-6.3.5 5.7-2.8 3.6-4.5 5.1-5.1zM667 80.6l-4.9.3.7-2.7 3.8-3.1 4.3-.7 2.3 1.5-1.5 2.3-.9.8zM592.5 69.9l-4.1 1.9-4.2-1.6-3.9.5-3.4-2.4 5-1.7 4.9-2.3 3 1.5 1.6 1 .4 1z" class="Canada"/><path d="m645.5 212.5-2.2-3.6 2.9-8.5-1.6-1.8-3.7 1-1.1-1.6-5.5 4.7-3.2 4.9-2.8 2.9-2.5 1-1.7.3-1.1 1.5h-9.3l-7.8.1-2.7 1.1-6.8 4.4v-.1l-.9-.4-2 .9-1.9 1.3-1.8-1.1-4.7.8-3.9.9-1.9.8-2.3 2.1 1.8.7 1.7-.4h.3l-.3 1.9-4.8.7-2.8.8-1.7 1-2.6-.6-1.6.3-2.9 1.8-4.6 2-2.7-.4 2-2.2 3.7-3.5 4.1-2.1 1.1-1.8.9-3 3.8-3.5.9-4 1.1 3.9 3.8.9 2.4-2.1-1.4-4.8-.9-2-4-1.2-3.8-.7h-3.9l-3.4-.8-.4-1.4-1.4.9-1.2-.2 1.9-2.1-1.8-.8 1.9-2.4-1.2-1.8 1.7-1.8-5.2-.9-.1-3.6-.8-.8-3.3-.2-4.1-1.2-1.5.8-1.8 1.5-3.3 1-3.1 2.5-5.4-1.7-4.4.8-3.9-1.9-4.6-1-3.3-.4-1-1 .9-3.4h-1.7l-1.3 2.4H377l-5.4-6.1-1.6-2.7-7-2.6 1.3-5.5 3.6-3.7-4.1-2.7 3.1-4.9-2.1-4.4 2.5-3.2 5.1-2.9 3.2-3.8-4.6-3.8 1.4-6.9 1.1-4.2-1.6-2.7-.8-2.4.6-3.1-6.5 1.9-7.6 3.3-.3-3.8-.5-2.6-2.8-1.6-4.2-.2L385.4 87 410 66.6l6 1.3 3.3 2.6 3.7.5 6.3-2.2 7-1.7 5.3.6 8.9-2.3 8.2-1.3.2 2.2 4.5-1.3 3.9-2.5 2.1.6 1.4 4.8 9.5-3.7-3.9 4.1 6-.9 3.2-1.5 4.6.3 3.9 2.2 7.5 2 4.7.9 4.4-.3 2.9 2.8-8.5 2.7 6.4 1.1 11.9-.6 4.4-1 1.4 3.3 7.1-2.7-2.1-2.4 4.5-1.8 5.2-.3 3.9-.5 2.1 1.3 1.5 2.9 5-.4 5.3 2.5 7.2-.9 6 .1 2.4-3.4 4.5-.9 4.9 1.8-4.3 5.2 6.2-4.4 3.2.2 6.4-5.5-1.6-3.3-2.9-2.2 5.5-5.9 8.2-3.8 4.5.9 2 2.3.4 6-5.8 2.6 6.7 1.1-4.4 5.5 8.9-4.2 2.2 3.5-4.3 4 1.3 3.7 7.3-3.9 6.5-4.8 4.7-5.9 5.5.4 5.4.8 3.6 2.7-1.7 2.7-5.1 2.9.9 2.9-2.4 2.7-10.9 3.9-6.5.9-3.2-1.7-3.3 2.8-7.4 4.7-3 2.5-7.7 3.8-6.5.4-5.1 2.4-2.9 3.8-5.7.7-8.7 4.7-9.4 6.5-5 4.6-4.9 6.9 6 1-1.5 5.5-.8 4.6 7.3-1.2 7 2.6 3.3 2.3 1.7 2.8 4.9 1.7 3.6 2.5 7.6.4 4.8.6-3.6 5.2-1.7 6.1.1 6.9 4.4 5.9 4.7-2 5.6-6.4 2.3-9.6-1.7-3.2 9-2.9 7.5-4.2 4.8-4.2 1.7-4-.4-5.1-3.2-4.5 8.9-6.2 1-5.3 3.9-9 3.8-1.4 6.7 1.6 4.2.6 4.5-1.6 3.1 2 3.6 3.4.2 2.2 7.7.5-2.6 4.9-2.3 7.4 3.8 1 1.6 3.5 8.2-3.3 7.5-6.6 4.2-2.7 1.1 5.3 2.6 7.5 2 7.2-3.4 3.8 4.8 3.4 2.9 3.4 6.9 1.6 2.4 1.9v5.2l3.4.8 1.1 2.3-2 6.9-4.3 2.3-4.2 2.2-8.8 2.2-7.9 5-8.6 1.1-10.1-1.4h-7.3l-5.3.4-5.7 4.5-7.4 2.8-10.1 8.2-7.9 5.8 4.7-1 10.9-8.3 12.3-5.2 7.6-.6 3.3 3.1-6.1 4.2-.6 6.7.1 4.8 5.6 3.1 8.6-.9 7.2-7.1-1 4.6 2.5 2.3-7.4 4.1-12.4 3.8-5.8 2.5-7.2 4.6-3.7-.5 1.5-5.3 10.4-5.3-8.1.2z" class="Canada"/><path d="m539 48.7-4.7 2.4 10.5-1.5 2.6 2.6 7.3-2.7 1.8 1.7-2.2 5.1 4.3-2.1 2.8-5.3 4.3-.8 3 .8 2.2 2.1-2.7 5.1-2.4 3.7 4.2 2.6 5 2.6-2.6 2.3-7.1.5.8 2-3.2 2-6.7-.8-5.7-1.5-5.1.3-9.5 1.9-11.3.8-7.9.5.3-2.6-4.1-1.4-4.3.6-.6-4.3 3.3-.6 7.3-.9 5.5.3 6.2-1-6.5-1.2-9.1.4-5.7-.1v-1.9l11.7-2.2-6.3.1-5.4-1.4 7.8-3.9 5.2-2.1 14.2-3.1zM578.5 47.2l-7 3.4-2.3-3.6 2.1-.8 5.5-.2zM687.1 48.8l-.7 1.4-4.1-.1-4.1-.1-4.9.7-.9-.4-2.1-2.7 1.7-1.8 2.2-.4 8.4.6z" class="Canada"/><path d="m647.3 48.5.3 3.2 7.2-4.1 11.7-2.1 2.3 5.3-3.2 3.4 9-1.5 5.3-2.1 6.8 2.6 3.7 2.5-1.1 2.3 8.2-1.2 1.9 3.4 8.4 2.1 2.2 2.1.9 5.1-9.1 2.5 7.7 3.6 5.9 1.2 3.3 5 6.5.4-3.3 3.9-10.9 6.5-4-2.4-3.8-5.4-5.9.7-2.3 3.3 2.7 3.2 4.5 2.6 1 1.5-.1 5.7-3.6 4.1-4.7-1.6-8.6-4.5 3.6 4.9 2.8 3.5-.3 2-10.9-2.3-7.6-3.4-3.8-2.7 2.4-1.7-4.8-2.9-4.7-2.7-.9 1.6-13.1.9-2.4-1.9 5.4-4.2 8.1-.1 9.3-.7-.2-2 3.1-2.8 8.8-5.4.4-2.5-.5-1.8-4.7-2.7-7.1-1.8 3.5-1.4-2-3.4-3.4-.3-1.9-1.8-3.3 1.6-7.9.7-14-1.2-7.4-1.6-5.9-.8-1.9-1.9 6.3-2.4h-5.7l3.3-5.3 7.1-4.6 6-2.1 11.2-1.4zM596.9 45l3.6 1.1 7.6-.7-.5 1.5-6.1 2.5 3.8 2.2-5.2 4.7-8.4 2-3.4-.4-.9-2-5.9-4 1.7-1.7 7.4.6-.9-3.3zM619.5 50.5l-7.8 3.9-4.4-.2 1.8-4.6 2.6-2.5 4.2-2.2 5.2-1.4 7.9.2 6.2 1.2-10.1 4.6zM503.7 57.7l-13.5 2.6.6-2.3-6-2.8 4.4-2.2 7.5-3.8 7.6-3.4.4-3.1 14-.8 4.2 1.1 9.5.3 1.9 1.4 1.6 2.2-6.5 1.3-13.9 3.6-9.2 3.7zM628.9 39.3l-4.1 1.9-5.2-.4-3.2-1.3 4.5-2.2 6.9-1.4 1.4 1.8zM620.1 30.6l.2 2.3-2.8 2.5-5.8 3.8-6.9.5-3.2-.8L605 36l-6.6.3 4.3-3.8 3.8.2 7.7-1.7 4.9.3zM580.7 33.2l-.7 1.7 4.4-.8 3.6.2-2.3 2.5-5.1 2.3-13.9.8-12.3 2.2-6 .1 1.5-1.6 10.7-2.3-17.9.6-4.2-.9 11.7-4.8 5.4-1.4 8.3 1.7 2.9 2.9 6.1.4.7-4.7 5.8-1.8 3.1.5zM636.4 28.8l2.3 1.6h7.4l1.4 1.6-2.8 1.8 3.1 1.1 1.2 1.2 4.9.2 5.1.4 7.1-1 8.1-.5 5.8.4 2.3 1.9-1 2-3.6 1.4L671 42l-4.3-.7-11.8.8-8 .1-5.6-.6-8.6-1.6 1.6-2.8 2.1-2.4-1.4-2.2-7-.6-2.6-1.5 3.8-2zM560.7 26.2l-5.8 3.7-5.3 1.7-3.8.2-9.9 2.1-7.1.8-3.6-1.1 11.7-3.7 12.2-3.1 5.5.1zM641.9 26.8l-1.8.1-6.6-.3.7-1.3 7.2.1 1.6.8zM583.1 25.9l-8.8 1.4-3.3-1.5 5.1-1.5 6-.5 4.1.7zM590.9 21.7l-5.7.9h-6l1-.7 5.7-1.3 1.7.2zM637.7 24.2l-6.6 1-1.6-1.1.6-1.7 2.2-1.9 4.4.2 1.7.3 2.3 1.6zM623.9 23l-1.1 1.9-5.3-.5-4-1.5-7.8-.2 5.3-1.3-2.8-1.1 2.2-1.8 6.1.6 7.5 1.7zM678 16.9l2.7 1.5-6.5 1.3-10.6 3.5-6.8.3-6.8-.6-1.6-1.9 2.1-1.6 4.3-1.2h-6.6l-2-1.5.4-1.9 4.9-1.9 4.1-1.3 4-.3-.3-1 8.3-.2 1.6 2.2 4.7.9 4.8.9z" class="Canada"/><path d="m757.2 2.9 8.7.3 6.7.5 5.2 1-1.1 1-9.8 1.7-9 .8-4 .9h7.5l-10.5 2.5-6.8 1.2-9.3 3.5-8.1.7-3.1 1-11.3.4 4.4.6-3.3.8.7 2.3-5 1.6-6.9 1.3-3.5 1.8-6.6 1.5-.5 1.1 6.5-.2-1.1 1.2-12.7 2.9-8.5-1.4-11.7.8-5-.6-6.8-.3 2.1-2.3 8-1.1 2-3.4 2.6-.3 7.5 2-1.7-3-4.9-.9 5-1.8 7.6-1.1 2.8-1.6-3-1.7 1.1-2.2 9.4.1 2.2.5 7.3-1.6-7.3-.5-12.6.3-4.4-1.4-.8-1.7-2.5-1.2 1.1-1.3 6-.8 4.2-.1 7.4-.6 6.8-1.5 3.9.2 2.4 1.1 5-2 5.2-.6 6.5-.4 10.4-.2 1.3.4 10.3-.6 7 .2z" class="Canada"/><path id="CH" d="m1034.4 197.5.2 1.1-.7 1.5 2.3 1.2 2.6.2-.3 2.5-2.1 1.1-3.8-.8-1 2.5-2.4.2-.9-1-2.7 2.2-2.5.3-2.2-1.4-1.8-2.7-2.4 1v-2.9l3.6-3.5-.2-1.6 2.3.6 1.3-1.1h4.2l1-1.3z"/><path d="m1602.2 381.9-4.3 3.1-4.9-2-1-5.5 2.2-2.9 5.8-1.8 3.3.1 1.6 2.5-2 2.8zM1625.6 185.5l9 4.5 6 5.8h7.6l2.6-2.4 6.9-1.9 1.3 5.7-.3 2.3 2.8 6.8.6 6.2-6.9-1.1-2.9 2.2 4.7 5.4 3.9 7.5-2.5.1 1.9 3.3-5.5-3.8v3.6l-6.4 2.7 2.8 3.4-4.6-.3-3.6-2-1.1 4.6-3.9 3.4-2.1 4.1-6.3 1.8-2.4 3-4.8 1.8 1.3-3-2.3-2.5 2-4.3-4.5-3.3-3.4 2.2-3.6 4.5-1.3 4.1-5 .3-1.3 3 4.8 4.3 4.8 1.1 1.4 2.8 5.1 1.9 3.8-4.6 5.9 2.5 3.5.2 2.3 3.3-6.7 1.8-1 3.5-3.8 3.2-.9 4.5 7.1 3.5 4.6 6.3 5.5 5.9 5.5 4.9 1.6 4.8-2.8 1.8 2.4 3.4 3.9 2 .8 5.2.1 5.1-2.8.6-2.1 6.9-2.3 8.5-3.4 7.6-6.4 5.9-6.6 5.5-6.1.7-2.9 2.8-2.3-2-2.5 3.1-7.2 3.3-5.8.9-.7 6.8-3.1.4-2.2-4.7.9-2.4-7.8-2.1-2.4 1.1-5.9-1.7-3.1-2.6.3-3.7-5.3-1.2-3.1-2.4-4.1 3.4-5.3.8-4.4-.1-2.7 1.6-2.7.9 2 7.4-3-.2-.8-1.5-.5-2.7-3.8 1.9-2.6-1.2-4.5-2.4.8-5.3-3.7-1.3-2.4-5.9-5.6 1.1-.7-7.6 4.2-5.4-.9-5.3-1.3-4.9-2.7-1.5-2.7-3.8-3.1.5-6.1-1 1.2-2.7-3.6-4-3.2 2.7-4.9-1.5-5.4 4-3.9 4.8-4.2.8-2.8-1.7-2.9-.2-4.3-1.4-2.6 1.6-2.6 4.8-1.5-5.1-3.1 1.4-6.5-.7-6.5-1.4-5-2.9-4.5-1.2-2.5-3.1-3.3-.9-6.4-4.2-4.8-2-1.9 1.5-8.6-4.5-6.2-4-3.2-7.1 4.1.9-.6-3.3-3-3.3-.8-5.2-7.7-7.6-9.5-2.5-2.9-5-4.7-3-1.5-1.8-1.8-3.6-.5-2.5-3.7-1.5-1.5.7-3.1-6 1.1-1.4-1.2-1.5 4.1-3 3.2-1.3 5.8.9.6-4.1 6.4-.7 1-2.6 6.9-3.4.2-1.4-1.7-3.7 2.9-1.6-8.8-11 9.1-2.5 2-1.4-1-11.3 10.8 2.1 1.6-2.9-2.5-6.2 3.8-.6 1.9-4.2 1.7-.5 3.3 4.4 5.7 3.3 8.2 2.3 5.8 5.1 1.4 7.3 3 2.8 6.5 1.1 7.2.8 8 4 3.4.7 5 5.8 4.7 3.8 5.6-.2 11.3 1.5 6.4-.9 5.6.9 9.4 3.9h6.2l3.3 1.9 4.4-3.4 7.2-2.2 7.6-.2 4.9-2.2 2-3.4 2.4-2.2-1.9-2.1-2.9-2.4.5-4.1 3.2.6 5.9 1.3 3.2-3.4 6.4-2.4 1.3-4.2 2.5-1.8 6.8-.8 4.4.7-.8-2.2-7.2-4.4-5.2-2-2.5 2.3-5.5-1-2.3.8-2.8-2.5-.3-6.3-.6-4.7 7.4 2.4 4.4-3.9-1.9-2.8-.2-6.5 1.3-2-2.5-3.4-3.7-1.4 1.7-3.1 5.1-1.1 6.2-.2 8.6 1.9 6 2.2 7.7 6.2 3.8 2.7 4.5 3.8 6.2 6z" class="China"/><path id="CI" d="m955.9 435.2 2.5 1.4 1 2.2 2.5 1.3 2-1.6 2.6-.2 3.9 1.6 1.5 9.2-2.4 5.3-1.5 7.3 2.4 5.5-.2 2.6h-2.6l-3.9-1.2H960l-6.7 1.2-3.9 1.8-5.6 2.4-1.1-.2.4-5.3.6-.8-.2-2.5-2.4-2.7-1.8-.4-1.6-1.8 1.2-2.9-.5-3.1.2-1.8h.9l.4-2.8-.4-1.3.5-.9 2.1-.7-1.4-5.2-1.3-2.6.5-2.2 1.1-.5.8-.6 1.5 1h4.4l1-1.8 1 .1 1.6-.7.9 2.7 1.3-.8z"/><path id="CM" d="m1072.8 454.2-2.8 6.5-1.4 1.1-.4 5 .6 2.7-.5 1.9 2.7 3.4.5 2.3 2.1 3.3 2.6 2.1.3 2.9.6 1.9-.4 3.4-4.5-1.5-4.6-1.7-7.1-.2-.7-.4-3.4.8-3.4-.8-2.7.4-9.3-.1.9-5.1-2.3-4.3-2.6-1-1.1-2.9-1.5-.9.1-1.8 1.4-4.6 2.7-6.2h1.6l3.4-3.8 2.1-.1 3.2 2.7 3.9-2.2.5-2.7 1.3-2.6.8-3.2 3-2.6 1.1-4.5 1.2-1.5.8-3.3 1.4-4.1 4.7-5 .3-2.1.6-1.2-2.3-2.5.2-2.1 1.5-.3 2.3 4.1.5 4.2-.2 4.3 3.2 5.8h-3.2l-1.6.4-2.6-.6-1.2 3 3.4 3.8 2.5 1.1.8 2.6 1.8 4.4z"/><path id="CD" d="m1141.3 468.2 3.5 5.3 2.6.8 1.5-1.1 2.6.4 3.1-1.3 1.4 2.7 5.1 4.3-.3 7.5 2.3.9-1.9 2.2-2.1 1.8-2.2 3.3-1.2 3-.3 5.1-1.3 2.5-.1 4.8-1.6 1.8-.2 3.8-.8.5-.6 3.6 1.4 2.9.1 1-1.2 10.3 1.5 3.6-1 2.7 1.8 4.6 3.4 3.5.7 3.5 1.6 1.7-.3 1.1-.9-.3-7.7 1.1-1.5.8-1.7 4.1 1.2 2.8-1.1 7.6-.9 6.4 1.5 1.2 3.9 2.5 1.6-1.2.2 6.9h-4.3l-2.2-3.5-2-2.8-4.3-.9-1.2-3.3-3.5 2-4.4-.9-1.9-2.9-3.5-.6-2.7.1-.3-2-1.9-.1-2.6-.4-3.5 1-2.4-.2-1.4.6.4-7.6-1.8-2.4-.4-4 .9-3.9-1.1-2.4-.1-4.1-6.8.1.5-2.3h-2.9l-.3 1.1-3.5.3-1.5 3.7-.9 1.6-3.1-.9-1.8.9-3.8.5-2.1-3.3-1.3-2.1-1.6-3.9-1.3-4.7-16.7-.1-2 .7-1.7-.1-2.3.9-.8-2 1.4-.7.2-2.8 1-1.6 2-1.4 1.5.7 2-2.5 3.1.1.3 1.8 2.1 1.1 3.4-4 3.3-3.1 1.4-2.1-.1-5.3 2.5-6.2 2.6-3.3 3.7-3.1.7-2 .1-2.4.9-2.2-.3-3.7.7-5.7 1.1-4 1.7-3.4.3-3.9.5-4.5 2.2-3.2 3-2.1 4.7 2.2 3.6 2.4 4.1.6 4.3 1.3 1.6-3.9.8-.5 2.6.6 6.3-3.2 2.2 1.4 1.8-.2.9-1.6 2.1-.5 4.2.7 3.7.1z"/><path id="CG" d="m1090.9 479.3-.3 3.9-1.7 3.4-1.1 4-.7 5.7.3 3.7-.9 2.2-.1 2.4-.7 2-3.7 3.1-2.6 3.3-2.5 6.2.1 5.3-1.4 2.1-3.3 3.1-3.4 4-2.1-1.1-.3-1.8-3.1-.1-2 2.5-1.5-.7-2.1-2.2-1.7 1.1-2.3 2.8-4.6-6.8 4.3-3.6-2.1-4.2 2-1.6 3.8-.8.4-2.9 3.1 3.1 5 .3 1.7-3 .7-4.3-.6-5-2.7-3.8 2.5-7.5-1.4-1.2-4.2.5-1.6-3.3.4-2.8 7.1.2 4.6 1.7 4.5 1.5.4-3.4 3-6 3.3-3.4 3.9 1.1z"/><path id="CO" d="m584.4 426.2-3.7 1.1-1.6 3.2-2.3 1.8-1.8 2.4-.9 4.6-1.8 3.8 2.9.4.6 2.9 1.2 1.5.3 2.5-.7 2.4.1 1.4 1.4.5 1.2 2.2 7.3-.6 3.3.8 3.8 5.6 2.3-.7 4.1.3 3.2-.7 2 1.1-1.2 3.4-1.3 2.2-.6 4.6 1.1 4.3 1.5 1.9.2 1.4-2.9 3.2 2 1.4 1.5 2.3 1.6 6.4-1.1.8-1-3.8-1.6-2.1-1.9 2.3-11-.2v4l3.3.7-.2 2.5-1.1-.7-3.2 1-.1 4.7 2.6 2.4.9 3.6-.1 2.8-2.2 17.6-2.9-3.4-1.7-.1 3.5-6.6-4.4-3-3.4.6-2.1-1.1-3.1 1.7-4.2-.9-3.5-6.7-2.6-1.6-1.8-3.1-3.8-3-1.5.6-2.4-1.5-2.8-2.1-1.6 1-4.8-.9-1.4-2.8-1.1.1-5.6-3.6-.7-2 2.1-.5-.2-3.2 1.4-2.4 2.8-.4 2.5-4 2.2-3.4-2-1.5 1.2-3.7-1.1-5.9 1.3-1.7-.7-5.4-2.2-3.5.9-3.1 1.8.5 1.1-1.9-1.1-3.8.7-.9 2.9.2 4.5-4.5 2.4-.7.1-2.1 1.4-5.5 3.4-2.9 3.5-.2.6-1.3 4.4.5 4.6-3.2 2.3-1.4 2.9-3.1 2 .4 1.3 1.7z"/><path id="CR" d="m514.6 431.6 1.2 3.5 2 2.6 2.5 2.7-2.2.6-.1 2.6 1.1.9-.9.8.2 1.1-.6 1.3-.3 1.3-3-1.4-1.1-1.4.7-1.1-.1-1.4-1.5-1.5-2.2-1.3-1.8-.8-.3-1.9-1.4-1.1.2 1.8-1.2 1.6-1.2-1.8-1.7-.7-.7-1.2.1-2 .9-2-1.5-.9 1.4-1.3.9-.8 3.6 1.7 1.3-.8 1.8.5.8 1.3 1.7.5z"/><path id="CU" d="m544.8 355.7 1.9 2.3 5.2-.7 1.8 1.5 4.2 4 3.2 2.9 1.8-.1 3.2 1.3-.6 1.8 4 .3 3.9 2.6-.8 1.5-3.8.8-3.8.3-3.7-.5-8.1.6 4.2-3.5-2.1-1.7-3.6-.4-1.7-1.9-.8-3.6-3.2.2-5-1.7-1.5-1.4-7.1-1-1.8-1.2 2.3-1.6-5.4-.3-4.4 3.3-2.3.1-1 1.6-2.8.7-2.3-.7 3.2-1.9 1.5-2.4 2.7-1.4 3-1.2 4.3-.6 1.4-.8 4.7.5 4.4.1z"/><path id="CZ" d="m1059.7 175.2 2.5 2 3.7.5-.2 1.7 2.8 1.3.6-1.6 3.4.7.7 2 3.7.3 2.6 3.1h-1.5l-.7 1.1-1.1.3-.2 1.4-.9.3-.1.6-1.6.6-2.2-.1-.6 1.4-2.4-1.2-2.3.3-4-1.9-1.7.5-2.6 2.6-3.8-2.1-3-2.6-2.6-1.5-.7-2.7-1-1.8 3.4-1.3 1.7-1.6 3.5-1.2 1.1-1.2 1.3.7z"/><path id="DE" d="m1053.9 158.9 1.4 3.1-1.2 1.7 1.9 2.1 1.5 3.3-.2 2.2 2.4 3.9-2.2.6-1.3-.7-1.1 1.2-3.5 1.2-1.7 1.6-3.4 1.3 1 1.8.7 2.7 2.6 1.5 3 2.6-1.6 2.9-1.7.8 1 4.1-.4 1.1-1.7-1.3-2.4-.2-3.5 1.1-4.4-.3-.6 1.7-2.7-1.7-1.4.3-5.5-1.9-1 1.3h-4.2l.4-4.5 2.4-4.2-7.2-1.2-2.4-1.6.2-2.7-1-1.4.4-4.2-1.1-6.5h2.9l1.2-2.3.9-5.6-.9-2.1.8-1.3 4-.3 1 1.3 3.1-3-1.3-2.3-.4-3.4 3.7.8 2.9-.9.3 2.3 4.9 1.4.1 2.2 4.7-1.2 2.6-1.6 5.6 2.4z"/><path id="DJ" d="m1229.5 428.2-1.9 3.5-1.3-1.2-1.3.5-3.2-.1-.2-2-.5-1.8 1.8-3 1.9-2.8 2.4.6 1.7-1.6 1.4 2-.1 2.6-3.1 1.6z"/><path d="m1046.1 147.7-2.4 4.9-5.2-3.5-.9-2.5 6.8-2zM1033.3 151.5l-2.9.9-3.7-.8-2.1-3.4-.4-6.1.6-1.7 1.3-1.8 4-.3 1.6-1.7 3.6-1.7v3.1l-1.2 2 .7 1.6 2.6.9-1 2.3-1.4-.6-3.1 4.3z" class="Denmark"/><path id="DO" d="m585.7 386 .3-1.8-1.3-1.9 1.5-1.1.7-2.5-.1-3.4.8-1.1h4.3l3.2 1.6 1.5-.1.7 2.3 3.1-.2-.4 1.9 2.5.3 2.5 2.3-2.3 2.6-2.6-1.4-2.6.3-1.8-.3-1.1 1.2-2.2.4-.7-1.6-1.9.9-2.7 4.4-1.3-1z"/><path id="DZ" d="m1031 264.6-1 3.3 1 6.1-1.1 5.3-3.2 3.6.6 4.8 4.5 3.9.1 1.5 3.4 2.6 2.6 11.5 1.9 5.7.4 3-.8 5.2.4 3-.6 3.5.6 4-2.2 2.7 3.4 4.7.2 2.7 2.1 3.6 2.5-1.2 4.5 3 2.5 4-18.8 12.3-16 12.6-7.8 2.8-6.2.7-.1-4.1-2.6-1.1-3.5-1.8-1.3-3-18.7-14-18.6-14-20.5-15.6.1-1.2.1-.4.1-7.6 8.9-4.8 5.4-1 4.5-1.7 2.1-3.2 6.4-2.5.3-4.8 3.1-.6 2.5-2.3 7.1-1.1 1-2.5-1.4-1.4-1.9-6.8-.3-3.9-1.9-4.1 5.1-3.5 5.8-1.1 3.3-2.6 5.1-2 9-1.1 8.8-.5 2.7.9 4.9-2.5 5.7-.1 2.2 1.5z"/><path id="EC" d="m559 502.8.8 4.9-1.7 4.1-6.1 6.8-6.7 2.5-3.4 5.6-.9 4.3-3.1 2.7-2.5-3.3-2.3-.7-2.3.5-.3-2.3 1.6-1.5-.7-2.7 2.9-4.8-1.3-2.8-2.1 3-3.5-2.9 1.1-1.8-1-5.8 2-1 1-4 2.1-4.1-.3-2.6 3.1-1.4 3.9-2.5 5.6 3.6 1.1-.1 1.4 2.8 4.8.9 1.6-1 2.8 2.1z"/><path id="EG" d="m1172.1 301.4 3.9 9.4.7 1.6-1.3 2.6-.7 4.8-1.2 3.4-1.2 1.1-2-2.1-2.7-2.8-4.7-9.2-.5.6 2.8 6.7 3.9 6.5 4.9 10 2.3 3.5 2 3.6 5.4 7.1-1 1.1.4 4.2 6.8 5.8 1.1 1.3h-65.9l-1-23.7-1.3-22.8-2-5.2 1.1-3.9-1-2.8 1.7-3.1 7.2-.1 5.4 1.7 5.5 1.9 2.6 1 4-2 2.1-1.8 4.7-.6 3.9.8 1.8 3.2 1.1-2.1 4.4 1.5 4.3.4z"/><path id="ER" d="m1228.9 420.3-1.7 1.6-2.4-.6-2-2.1-2.5-3.7-2.6-2.1-1.5-2.2-5-2.6-3.9-.1-1.4-1.3-3.2 1.5-3.6-2.9-1.5 4.8-6.6-1.4-.7-2.5 2-9.5.3-4.2 1.7-2 4-1.1 2.7-3.6 3.6 7.4 1.9 5.9 3.2 3.1 8 6.1 3.3 3.6 3.2 3.8 1.8 2.2z"/><path id="EE" d="m1113.7 124.6.9 1-2.6 3.4 2.4 5.6-1.6 1.9-3.8-.1-4.4-2.2-2.1-.7-3.8 1-.1-3.5-1.5.8-3.3-2.1-1-3.4 5.5-1.7 5.6-.8 5.1.9z"/><path id="ET" d="m1207.3 408.5 3.9.1 5 2.6 1.5 2.2 2.6 2.1 2.5 3.7 2 2.1-1.9 2.8-1.8 3 .5 1.8.2 2 3.2.1 1.3-.5 1.3 1.2-1.2 2.2 2.2 3.6 2.2 3.1 2.2 2.3 18.7 7.6 4.8-.1-15.6 19.3-7.3.3-5 4.5-3.6.1-1.5 2.1h-3.9l-2.3-2.2-5.2 2.7-1.6 2.7-3.8-.6-1.3-.7-1.3.2-1.8-.1-7.2-5.4h-4l-1.9-2.1-.1-3.6-2.9-1.1-3.5-7-2.6-1.5-1-2.6-3-3.1-3.5-.5 1.9-3.6 3-.2.8-1.9-.2-5v-.8l1.5-6.7 2.6-1.8.5-2.6 2.3-5 3.3-3.1 2-6.4.7-5.5 6.6 1.4 1.5-4.8 3.6 2.9 3.2-1.5z"/><path id="FI" d="m1104.1 70.1.4 3.8 7.3 3.7-2.9 4.2 6.5 6.3-1.7 4.8 4.9 4.2-.9 3.8 7.4 3.9-.9 2.9-3.4 3.4-8 7.4-8 .5-7.6 2.1-7.1 1.3-3.2-3.2-4.7-1.9.1-5.8-3-5.2 1.6-3.4 3.3-3.5 8.8-6.2 2.6-1.2-.9-2.4-6.5-2.6-1.8-2.2-1.8-8.5-7.2-3.7-6-2.7 2.2-1.4 5.1 2.8 5.3-.2 4.7 1.3 3.4-2.4 1.1-4 5.9-1.8 5.8 2.1z"/><path id="GA" d="m1060.5 487.3-.4 2.8 1.6 3.3 4.2-.5 1.4 1.2-2.5 7.5 2.7 3.8.6 5-.7 4.3-1.7 3-5-.3-3.1-3.1-.4 2.9-3.8.8-2 1.6 2.1 4.2-4.3 3.6-5.8-6.5-3.7-5.3-3.5-6.6.2-2.2 1.3-2 1.3-4.7 1.2-4.8 1.9-.3h8.2v-7.7l2.7-.4 3.4.8 3.4-.8z"/><path d="m956.7 158.2-3.5-1.2-3 .1 1.2-3.3-.9-3.2 4-.3 4.9 3.8z" class="United Kingdom"/><path d="m972.6 129.5-5.1 6.5 4.7-.8h5.1l-1.3 4.9-4.3 5.4 4.9.3.3.7 4.2 7.1 3.2 1 2.9 7 1.4 2.4 5.9 1.1-.6 4-2.4 1.8 1.9 3.2-4.4 3.2-6.5-.1-8.4 1.8-2.2-1.3-3.3 2.9-4.5-.7-3.6 2.4-2.5-1.2 7.3-6.5 4.4-1.4-7.6-1-1.3-2.5 5.1-1.9-2.5-3.3 1-4 7.1.6.8-3.6-3.1-3.7-.1-.1-5.7-1.1-1.1-1.6 1.8-2.7-1.5-1.7-2.6 2.9-.1-5.9-2.2-3 1.9-6.2 3.8-4.8 3.6.4z" class="United Kingdom"/><path id="GE" d="m1215.7 227.9 5.1 1.3 2.1 2.6 3.6 1.5-1.2.8 3.3 3.5-.6.7-2.9-.3-4.2-1.9-1.1 1.1-7 1-5.6-3.2-5.5.3.3-2.7-2.1-4.3-3.4-2.4-3-.7-2.2-1.9.4-.8 4.6 1.1 7.7 1 7.6 3.1 1.2 1.2z"/><path id="GH" d="m986.5 431.1-.4 2 2.3 3.3v4.7l.6 5 1.4 2.4-1.3 5.7.5 3.2 1.5 4.1 1.3 2.3-8.9 3.7-3.2 2.2-5.1 1.9-5-1.8.2-2.6-2.4-5.5 1.5-7.3 2.4-5.3-1.5-9.2-.8-4.8.2-3.7 9.8-.3 2.5.5 1.8-1z"/><path id="GN" d="m921.5 421.9.3 2.4h.9l1.5-.9.9.2 1.6 1.7 2.4.5 1.5-1.4 1.9-.9 1.3-.9 1.1.2 1.3 1.4.6 1.8 2.3 2.7-1.1 1.6-.3 2.1 1.2-.6.7.7-.3 1.9 1.7 1.9-1.1.5-.5 2.2 1.3 2.6 1.4 5.2-2.1.7-.5.9.4 1.3-.4 2.8h-.9l-1.6-.2-1.1 2.6h-1.6l-1.1-1.4.4-2.6-2.4-3.9-1.4.7-1.3.2-1.5.3.1-2.3-.9-1.7.2-1.9-1.2-2.7-1.6-2.3h-4.5l-1.3 1.2-1.6.2-1 1.4-.6 1.7-3.1 2.9-2.4-3.8-2.2-2.5-1.4-.9-1.4-1.3-.6-2.8-.8-1.4-1.7-1.1 2.6-3.1 1.7.1 1.5-1 1.2-.1.9-.8-.4-2.1.6-.7.1-2.2 2.7.1 4.1 1.5 1.2-.1.4-.7 3.1.5z"/><path id="GM" d="m891.6 417.4.8-2.9 6.1-.1 1.3-1.6 1.8-.1 2.2 1.6h1.7l1.9-1 1.1 1.8-2.5 1.5-2.4-.2-2.4-1.3-2.1 1.5h-1l-1.4.9z"/><path id="GW" d="m909.2 421-.1 2.2-.6.7.4 2.1-.9.8-1.2.1-1.5 1-1.7-.1-2.6 3.1-2.9-2.6-2.4-.5-1.3-1.8.1-1-1.7-1.3-.4-1.4 3-1 1.9.2 1.5-.8z"/><path id="GQ" d="M1050.3 487.3v7.7h-8.2l-1.9.3-1.1-.9 1.9-7.2z"/><path d="m1112.7 272.6 3.1 2.2 4.1-.4 4 .4v1.2l2.8-.8-.5 1.9-7.6.5-.1-1-6.6-1.3zM1121.9 239.9l-3.2-.2-2.7-.6-6.2 1.6 4 3.6-2.5 1.1h-2.9l-3.1-3.3-.9 1.4 1.6 3.8 2.9 3-1.9 1.4 3.2 2.9 2.8 1.9.4 3.6-5-1.7 1.8 3.3-3.3.6 2.5 5.7-3.5.1-4.6-2.8-2.4-5.1-1.3-4.3-2.3-2.9-3-3.7-.5-1.8 2.2-3.1.1-2.1 1.7-.9-.1-1.7 3.4-.5 1.8-1.4 2.8.1.8-1.1 1-.2 3.8.2 4-1.8 3.9 2.3 4.6-.6-.3-3.2 2.7 1.7-1.1 4z" class="Greece"/><path id="GL" d="m896.3 1.4 19.9 3-6.7 1.4-13 .2-18.5.4 1.4.7 12.3-.5 9.7 1.4 7-1.2 2.4 1.4-4.5 2.4 9.2-1.6 17.1-1.5 10 .8 1.7 1.7-14.8 2.9-2.2 1-11.4.8 8.1.2-4.9 3.2-3.6 2.9-1.2 5.2 3.7 3.2-5.9.1-6.5 1.6 6.3 2.6-.1 4.2-4.2.5 4.1 4.3-8.7.4 4 2-1.6 1.8-5.7.8-5.5.1 4.2 3.4-.5 2.4-7.3-2.2-2.4 1.4 5 1.3 4.6 3.2.6 4.3-7.4 1-2.7-2.1-4.2-3 .5 3.6-5.4 2.8 10.7.2 5.5.3-11.9 4.7-12.2 4.3-12.7 1.8-4.6.1-4.9 2.1-7.5 5.8-10.2 3.9-3 .3-6.1 1.3-6.6 1.4-4.8 3.4-1.4 4-3.4 3.8-8.6 4.6.3 4.5-3.6 4.8-4.1 5.7-6.5.4-5-4.8-9-.1-3.2-3.2-.8-5.6-4.8-7.2-.7-3.7 1.5-5.1-3.7-5.1 3.3-4.1-1.9-2 7-6.4 7.2-2.1 2.6-2.2 2.8-4.2-5.5 1.9-2.6.8-4.1.7-4.2-1.7 1.5-3.7 3-2.8 3.8-.1 7.6 1.5-5.3-3.4-2.7-1.8-4.4.7-2.6-1.3 7-4.8-1.3-2L768 46l-1.4-5.4-3.6-1.9 1.4-2.1-8.1-2.9-7.7-.4-10.1.2-9.5.4-3.1-1.6-3.8-3.1 11-1.5 7.6-.2-14.6-1.3-6.5-1.9 2.2-1.8 15.7-2.2 15-2.2 2.8-1.6-8.1-1.6 4.6-1.7 14.7-2.9 5.4-.4.2-1.8 9-1.1 11-.6h10.4l2.8 1.2 10.6-2.2 7.1 1.5 4.6.3 6.2 1.3-6.7-2.1 1.6-1.7 12.7-2.2 11.6.2 5.1-1.4L870 1z"/><path id="GT" d="m488.1 387.5-.7 5.1-1.3 7.2h1.7l1.7 1.2.6-1 1.5.8-2.8 2.5-2.9 1.8-.5 1.2.3 1.3-1.3 1.6-1.4.4.3.8-1.2.7-2 1.6-.3.9-2.8-1.1-3.5-.1-2.4-1.3-2.8-2.6.4-1.9.8-1.5-.7-1.2 3.3-5.2h7.2l.4-2.2-.8-.4-.5-1.4-1.9-1.5-1.8-2.1 2.5-.1.5-3.6h5.2z"/><path id="GY" d="m662.9 463.5-1 5.8-3.5 1.6.3 1.5-1.1 3.4 2.4 4.6h1.8l.7 3.6 3.3 5.6-1.3.3-3.2-.6-1.8 1.7-2.6 1.1-1.8.3-.6 1.3-2.8-.3-3.5-3-.3-3-1.4-3.3 1-5.4 1.6-2.3-1.2-3-2-.9.8-2.9-1.2-1.4-3 .2-3.7-4.8 1.6-1.8v-3l3.5-1 1.4-1.2-1.8-2.4.5-2.3 4.7-3.8 3.6 2.4 3.3 4.1.1 3.4 2.1.1 3 3.1z"/><path id="HN" d="m519.6 405.5-1.9-.1-.9.9-2 .8h-1.4l-1.3.8-1.1-.2-.9-1-.6.2-.9 1.5-.5-.1-.2 1.4-2.1 1.7-1.2.8-.6.8-1.5-1.3-1.4 1.7h-1.2l-1.3.1-.2 3.2h-.8l-.8 1.5-1.8.3-.8-2-1.7-.6.7-2.6-.7-.7-1.2-.4-2.5.7-.1-.8-1.6-1.1-1.1-1.2-1.6-.6 1.3-1.6-.3-1.3.5-1.2 2.9-1.8 2.8-2.5.6.3 1.3-1.1 1.6-.1.5.5.9-.3 2.6.6 2.6-.2 1.8-.7.8-.7 1.7.3 1.3.4 1.5-.1 1.2-.6 2.5.9.8.2 1.6 1.2 1.5 1.4 1.9 1z"/><path id="HR" d="m1081.5 207.6 1.5 2.5 1.7 1.8-1.7 2.4-2.4-1.4-3.5.1-4.5-1.1-2.3.1-1 1.4-2-1.5-.8 2.6 2.7 3 1.3 1.9 2.5 2.4 2.1 1.4 2.1 2.7 4.8 2.4-.5 1-5-2.3-3.2-2.3-4.8-1.9-4.7-4.6 1-.5-2.5-2.7-.3-2.1-3.3-1-1.4 2.7-1.6-2.1v-2.2l.1-.1 3.6.2.8-1 1.8 1 2 .1-.1-1.7 1.7-.7.3-2.5 3.9-1.7 1.6.8 4 2.7 4.3 1.2z"/><path id="HT" d="m586.8 375.3.1 3.4-.7 2.5-1.5 1.1 1.3 1.9-.3 1.8-3.6-1.1-2.7.4-3.4-.4-2.7 1.2-2.8-2 .7-2.1 5.1.9 4.1.5 2.2-1.4-2.3-2.8.4-2.5-3.5-1 1.5-1.7 3.4.2z"/><path id="HU" d="m1096.2 191.9 3 1.7.5 1.7-2.9 1.3-1.9 4.2-2.6 4.3-3.9 1.2-3.2-.3-3.7 1.6-1.8 1-4.3-1.2-4-2.7-1.6-.8-1.2-2.1-.8-.1 1.3-4-1.1-1.4h2.8l.2-2.6 2.7 1.7 1.9.6 4.1-.7.3-1.3 1.9-.2 2.3-.9.6.4 2.3-.8 1-1.5 1.6-.4 5.5 1.9z"/><path d="m1667.5 567.6-2.4.1-7.1-4.5 5.4-1.3 2.8 2 1.8 1.9zM1692.3 558.9l.5 1.3-.1 1.9-4.1 4.8-5 1.4-.6-.7.7-2.2 2.8-3.9zM1652.7 553.8l1.9 1.7 3.6-.5 1.2 2.7-6.7 1.3-3.9.9-3.1-.1 2.2-3.7h3.2zM1681 553.8l-1.1 3.6-8.6 1.8-7.5-.8.2-2.4 4.6-1.3 3.4 1.9 3.8-.5zM1600.8 545.3l10.8.7 1.4-2.7 10.3 3.1 1.8 4.2 8.4 1.2 6.7 3.8-6.6 2.4-6.1-2.6-5.1.2-5.8-.5-5.2-1.1-6.4-2.5-4.1-.6-2.4.8-10.2-2.7-.8-2.7-5.1-.5 4.2-6.1 6.8.4 4.4 2.5 2.4.5zM1748.7 541.7l-3.2 4.4-.2-4.8 1.1-2.3 1.3-2.2 1.2 1.9zM1707.3 524l-2.2 2.2-3.8-1.2-1-2.8 5.7-.3zM1725.7 521.7l1.8 4.9-4.6-2.7-4.7-.5-3.3.4-3.9-.2 1.5-3.5 7-.3z" class="Indonesia"/><path d="m1785.5 518.5-1 20.9-1.6 21-4.6-5.3-5.6-1.3-1.5 1.8-7.2.2 2.8-5.2 3.7-1.8-1-7-2.3-5.3-10.7-5.5-4.6-.5-8.3-6-1.8 3.2-2.2.5-1.1-2.3.1-2.8-4.2-3.2 6.2-2.3 4 .1-.4-1.7h-8.3l-2.2-3.8-5-1.2-2.3-3.2 7.6-1.5 2.9-2.1 9.1 2.6.9 2.4 1.3 10.4 5.7 3.8 5-6.8 6.6-3.8h5l4.8 2.2 4.1 2.3zM1696.4 492.7l-4.5 6.4-4.3 1.2-5.4-1.2-9.5.3-4.9.9-.8 4.9 5 5.7 3.1-2.9 10.6-2.2-.5 2.9-2.5-.9-2.5 3.8-5.1 2.5 5.1 8.2-1.1 2.2 4.8 7.4-.3 4.2-3.1 1.9-2.1-2.3 3-5.2-5.7 2.5-1.3-1.8.8-2.5-3.9-3.8.7-6.2-3.9 1.9.2 7.5-.2 9.2-3.7.9-2.3-1.8 1.9-5.9-.6-6.2-2.4-.1-1.6-4.4 2.5-4.2.9-5.1 3-9.7 1.1-2.6 4.8-4.8 4.5 1.9 7.1.9 6.5-.3 5.6-4.6zM1716 494.6l-.3 5.6-2.9-.7-.9 3.9 2.3 3.4-1.6.8-2.2-4.1-1.7-8.2 1-5.1 1.8-2.3.5 3.5 3.4.5zM1608 488.9l1 4.3 3.9 3.7 3.7-1.3 3.6.4 3.3-3.2 2.7-.6 5.4 1.8 4.6-1.4 2.6-8.9 2.1-2.2 1.7-7.3h6.5l5 1.1-3 5.8 4.4 6-.9 3 6.4 5.9-6.7.8-1.8 4.4.2 5.8-5.5 4.4-.4 6.4-2.5 9.8-.7-2.3-6.6 2.9-2.1-3.9-4-.4-2.8-2.1-6.8 2.4-1.9-3.2-3.8.4-4.6-.7-.6-8.6-2.8-1.8-2.7-5.5-.8-5.6.6-6zM1585.2 539.4l-6.2.1-4.5-5.3-7.1-5.3-2.3-3.9-4.1-5.2-2.7-4.8-4.2-9-4.9-5.4-1.7-5.5-2.2-5-5.2-4-3.1-5.5-4.4-3.6-6.2-7.1-.6-3.3 3.6.3 8.9 1.2 5.2 6.3 4.6 4.4 3.2 2.6 5.5 6.9 5.8.1 4.8 4.4 3.4 5.4 4.3 3-2.3 5.2 3.3 2.2 2 .2.9 4.5 1.9 3.5 4.1.6 2.6 4.1-1.7 8z" class="Indonesia"/><path id="IN" d="m1427.6 308-2.8 3-.9 6 5.8 2.4 5.8 3.1 7.8 3.6 7.7.9 3.8 3.2 4.3.6 6.9 1.5 4.6-.1.1-2.5-1.5-4.1-.2-2.7 3.1-1.4 1.5 5.1.4 1.2 5.5 2.5 3.2-1 4.7.4 4.5-.2-.5-3.9-2.6-2.1 4.2-.8 3.9-4.8 5.4-4 4.9 1.5 3.2-2.7 3.6 4-1.2 2.7 6.1 1 1 2.4-1.7 1.2 1.4 3.9-4.2-1.1-6.2 4.4.9 3.7-2 5.4.3 3.1-1.6 5.3-4.6-1.5.9 6.7-1 2.2 1 2.7-2.5 1.5-4.4-10.2h-1.5l-.3 4.2-3.6-3.4 1.2-3.6 2.4-.4 1.6-5.4-3.4-1.1-5.1.1-5.4-.9-1.2-4.5-2.7-.3-4.9-2.8-1.2 4.4 4.6 3.4-3 2.4-.9 2.3 3.7 1.7-.3 3.9 2.6 4.8 1.6 5.3-.5 2.4-3.8-.1-6.6 1.3.9 4.8-2.4 3.8-7.5 4.4-5.3 7.5-3.8 4.1-5 4.2.3 2.9-2.6 1.6-4.8 2.3-2.6.3-1.2 4.9 1.9 8.4.7 5.3-1.9 6.1.7 10.9-2.9.3-2.3 4.9 1.9 2.2-5.1 1.8-1.7 4.3-2.2 1.9-5.6-6-3.1-9-2.5-6.5-2.2-3-3.4-6.2-2-8-1.4-4-5.9-8.8-3.5-12.5-2.6-8.2-.8-7.8-1.7-6-7.7 3.9-4-.8-8.1-7.8 2.4-2.3-1.9-2.5-7.1-5.5 3.2-4.3h12.1l-1.8-5.5-3.5-3.2-1.4-5-4-2.8 4.9-6.8 6.5.5 4.5-6.7 2.2-6.5 3.9-6.5-1-4.6 3.8-3.7-5.1-3.1-2.9-4.4-3.3-5.6 2-2.8 8.5 1.6 5.7-1 3.8-5.4 7.7 7.6.8 5.2 3 3.3.6 3.3-4.1-.9 3.2 7.1 6.2 4z"/><path id="IE" d="m956.7 158.2.7 4.4-3.9 5.5-8.8 3.6-6.8-.9 4.3-6.4-2.1-6.2 6.7-4.8 3.7-2.8.9 3.2-1.2 3.3 3-.1z"/><path id="IR" d="m1229 253.2 1.8-.2 5.3-4.7 1.9-.5 1.9 1.9-1.2 3.1 3.9 3.4 1.3-.4 2.5 4.8 5.3 1.3 4.3 3.2 7.7 1.1 8-1.7.2-1.5 4.4-1.2 3-3.7 3.6.2 2-1.2 3.9.6 6.6 3.3 4.3.7 7.3 5.6 4 .3 1.7 5.3-.6 8-.5 4.7 2.5 1-1.6 3.5 2.7 5.1 1.2 4.1 4.3 1.1 1.1 4.1-3.9 5.8 3.2 3.4 2.8 3.9 5.7 2.8 1 5.6 2.7 1.1.9 2.9-7.5 3.4-1.1 7.4-10.6-1.9-6.2-1.5-6.3-.8-3.3-7.9-2.8-1.1-4.1 1.1-5.1 3.1-7-2.1-6.1-5-5.5-1.8-4.4-6.1-5.2-8.5-2.8 1-3.7-2.1-1.7 2.5-3.5-3.4-.5-3.4h-1.7l.2-4.7-3.5-4.8-7.1-3.6-4.6-6.1.5-5 2.3-2.2-.9-3.7-3.8-2-4.7-7.6-3.8-5.1.7-2-2.9-7.3 3.3-1.9 1.2 2.5 3.2 2.9z"/><path id="IQ" d="m1223.5 263.2 4.7 7.6 3.8 2 .9 3.7-2.3 2.2-.5 5 4.6 6.1 7.1 3.6 3.5 4.8-.2 4.7h1.7l.5 3.4 3.5 3.4-3.3-.3-3.7-.6-3.3 6.2-10.2-.5-16.8-12.9-8.6-4.5-6.8-1.8-3.1-7.8 11-6.7 1-7.7-1.2-4.7 2.7-1.6 2.1-4 2.1-1 6.3.9 2.1 1.6z"/><path id="IS" d="m924.8 84.5-1.4 3.6 4.4 3.8-6.1 4.3-13.1 3.9-3.9 1.1-5.6-.9-11.9-1.8L892 96l-9-2.7 7.9-1.1.1-1.7-8.8-1.3 3.6-3.7 6.6-.8 6 3.8 7-3 5.1 1.5 7.3-2.9z"/><path id="IL" d="m1179.1 288.2.4 2.6-.6 1h.1l-.7 2-2.1-.8-.7 4.2 1.5.7-1.3.9-.1 1.7 2.5-.8.4 2.5-1.8 10.2-.7-1.6-3.9-9.4 1.4-2.1-.4-.4 1.1-3 .6-4.8.6-1.7h1.9l.4-1.1z"/><path d="m1068.2 256.4-1.7 5.1.9 1.9-.9 3.3-4.2-2.4-2.7-.7-7.5-3.2.5-3.3 6.2.6 5.4-.7zM1034.2 237.4l3.3 4.5-.4 8.5-2.4-.4-2.1 2.1-2-1.7-.5-7.7-1.3-3.6 2.9.3z" class="Italy"/><path d="m1055.9 203.9-.4 3.1 1.4 2.7-4.1-1-3.9 2.3.4 3.1-.5 1.8 1.9 3.2 5 3.2 2.9 5.3 6.1 5.1 4-.1 1.4 1.4-1.4 1.3 4.8 2.3 4 1.9 4.7 3.4.6 1.1-.8 2.3-3.1-3-4.6-1-1.9 4.1 3.9 2.4-.4 3.3-2.1.4-2.5 5.5-2.2.5-.1-2 .9-3.4 1.1-1.4-2.3-3.7-1.8-3.2-2.2-.8-1.8-2.7-3.4-1.2-2.4-2.6-3.8-.4-4.3-2.8-4.9-4.2-3.7-3.6-1.9-6.3-2.6-.7-4.2-2.1-2.3.8-2.9 3-2.1.4.5-2.7-2.8-.8-1.5-4.9 1.7-1.9-1.5-2.4.1-1.8 2.2 1.4 2.5-.3 2.7-2.2.9 1 2.4-.2 1-2.5 3.8.8 2.1-1.1.3-2.5 3.1.9.5-1.2 4.9-1.1 1.3 2.1z" class="Italy"/><path id="JM" d="m556.5 387.1-1.8 1.1-3-1.1-2.9-2.3.8-1.5 2.4-.4 1.3.2 3.7.6 2.7 1.5.8 1.8z"/><path id="JO" d="m1198.1 295.3-.9 1-10.4 3.2 6 6.5-1.6 1-.7 2.2-4.1.9-1.1 2.3-2.1 2-6.2-1.1-.3-.9 1.8-10.2-.4-2.5.6-1.9-.4-4 .7-2 6.3 2.6 9.7-6.9z"/><path d="m1708.5 282.6 1.6 2.2-1.3 3.9-3.1-2.1-2.1 1.5.1 3.7-4.3-1.8-1.2-3 1.3-3.9 3.4.8 1-2.7z" class="Japan"/><path d="m1733.1 263.4.6 5.1 2.5 3.2-.6 4.5-5.4 3-9.2.4-4.4 7.4-4.7-2.5-2.4-4.8-8.6 1.4-5.1 3-6.2.2 7.4 4.7.8 10.9-2.5 2.7-3.6-2.5-.9-5.8-4.1-1.8-4-4.4 4.3-2 1.1-4.1 3.9-3.3 2-4.4 9.7-1.9 6.3 1.3v-11.4l5.1 3.1 4.5-6.4 1.7-2.5-1-7.8-5.1-7.2-.2-4 4.8-1.2 8.2 8.9 2.8 5.1-1.3 6.5zM1721.2 218.6l4.5 1.3 1.8-2.6 6 7.1-6.4 1.7-.4 6.3-10.9-4.3 1.6 6.9-5.7.1-4.7-6.3-.6-4.9 5.2-.3-4.4-8.8-1.8-4.9 10.5 6.6z" class="Japan"/><path id="KZ" d="m1338.3 160.5 4.4-.3 9.2-5.8-.8 2 8.4 4.7 18.3 15.6 1.1-3.2 8.4 3.5 6.2-1.6 3.3 1.1 4.1 3.6 4 1.2 3.3 2.7 6-.9 4.4 3.8-1.9 4.2-3.8.6 2.5 6.2-1.6 2.9-10.8-2.1 1 11.3-2 1.4-9.1 2.5 8.8 11-2.9 1.6 1.7 3.7-3.5-1-3.4-2.3-7.9-.6-8.6-.2-1.6.7-8.2-2.7-2.5 1.4.5 3.7-9.2-2.2-3.1.9-.3 2.8-2.6 1.2-5.4 4.4-.9 4.6h-2l-2.3-3-6.7-.2-2.5-5.2-2.6-.1-1.5-6.4-7.6-4.6-8.6.5-5.7.9-6.6-5.7-4.8-2.4-9.2-4.5-1.1-.5-12 3.7 6.2 23.4-2.6.3-4.8-5-3.9-1.8-5.6 1.3-1.8 2.2-.6-1.6.6-2.6-1.5-2.2-6.5-2.2-3.7-5.7-3.2-1.6-.6-2.1 5.1.6-1-4.6 4.1-1 4.7.9-.7-6.1-1.9-3.9-5 .3-4.7-1.5-5.1 2.7-4.4 1.4-2.8-1.1-.2-3.2-4.3-4.2-3.6.2-5.3-4.2 1.7-4.8-1.8-1.2 2.2-6.9 6 3.6-.6-4.5 8.1-6.7 7.6-.2 12 4.3 6.6 2.5 4.4-2.6 7.7-.1 7.3 3.2.8-1.9 7 .3.2-2.9-9.4-4.3 3.5-3-1.5-1.6 4-1.6-5.1-4.2 1.4-2.1 17-2.1 1.7-1.5 10.9-2.3 3.1-2.5 9.1 1.3 4.4 6.3 4.3-1.5 7.1 2.1z"/><path id="KE" d="m1223.5 476.7-4.9 7.2.2 23.4 3.3 5.3-4 2.6-1.4 2.7-2.2.4-.8 4.6-1.9 2.6-1.1 4.2-2.3 2.1-8.1-6.4-.3-3.7-20.5-13.1.4-4.7-1.4-2.5v-.3l1.6-2.6 2.8-4.2 2.1-4.7-2.6-7.4-.7-3.2-2.7-4.5 3.4-3.8 3.8-4.2 2.9 1.1.1 3.6 1.9 2.1h4l7.2 5.4 1.8.1 1.3-.2 1.3.7 3.8.6 1.6-2.7 5.2-2.7 2.3 2.2z"/><path id="KG" d="m1400.5 230.2-.2 1.4-6.9 3.4-1 2.6-6.4.7-.6 4.1-5.8-.9-3.2 1.3-4.1 3 1.2 1.5-1.1 1.4-9.6 1-7.1-2.1-5.5.5-.6-3.6 6 1 1.4-1.9 4.1.6 5.3-4.6-7.2-3.4-3.2 1.6-4.6-2.4 3-4.1-1.7-.6.3-2.8 3.1-.9 9.2 2.2-.5-3.7 2.5-1.4 8.2 2.7 1.6-.7 8.6.2 7.9.6 3.4 2.3z"/><path id="KH" d="m1589.8 410.6 1.8 4.3.1 7.7-9 5 2.8 3.8-5.9.5-4.6 2.6-4.8-.9-2.6-3.4-3.5-6.6-2.1-7.8 3.1-5.3 7.1-1.2 5.3.9 5 2.5 2-4.4z"/><path id="KR" d="M1652.9 259.5v-.6l2.5.2.6-2.8 3.6-.4 2-.4V254l8.3 7.5 3.3 4.2 3.4 7.4-.5 3.5-4.3 1.2-3.1 2.7-4.6.5-2.1-3.5-1.1-4.8-5.3-6.6 3.4-1.1z"/><path id="KW" d="m1247.5 309.4 1.5 2.8-.3 1.5 2.4 4.8-3.9.2-1.7-3.1-5-.6 3.3-6.2z"/><path id="LA" d="m1589.8 410.6-5.3-2.3-2 4.4-5-2.5 1.5-2.9-.4-5.4-5.3-5.6-1.3-6.4-5-5.2-4.3-.4-.8 2.2-3.2.2-1.9-1.1-5.3 3.8-1-5.8.4-6.7-3.8-.3-.9-3.9-2.7-2 .8-2.3 4.1-4.2.8 1.5 3 .2-2-7.4 2.7-.9 4 5.1 3.5 5.8h6.8l3 5.6-3.3 1.7-1.2 2.3 7.3 3.9 5.7 7.6 4.4 5.6 4.9 4.5 2 4.5z"/><path id="LB" d="m1179.1 288.2-1.4.1-.4 1.1h-1.8l1.3-5.3 2.2-4.5v-.2l2.5.3 1.2 2.5-2.7 2.5z"/><path id="LR" d="m938.6 452.5-.2 1.8.5 3.1-1.2 2.9 1.6 1.8 1.8.4 2.4 2.7.2 2.5-.6.8-.4 5.3-1.5.1-5.8-3.1-5.2-4.9-4.8-3.5-3.8-4.1 1.4-2.1.3-1.9 2.6-3.4 2.6-3 1.3-.2 1.4-.7 2.4 3.9-.4 2.6 1.1 1.4h1.6l1.1-2.6z"/><path id="LY" d="m1122.6 299.1-1.7 3.1 1 2.8-1.1 3.9 2 5.2 1.3 22.8 1 23.7.5 12.8h-6.4v2.7l-22.6-12.3-22.5-12.3-5.5 3.5-3.8 2.4-3.2-3.5-8.8-2.8-2.5-4-4.5-3-2.5 1.2-2.1-3.6-.2-2.7-3.4-4.7 2.2-2.7-.6-4 .6-3.5-.4-3 .8-5.2-.4-3-1.9-5.7 2.6-1.4.4-2.8-.6-2.6 3.6-2.5 1.6-2.1 2.6-1.8.1-4.9 6.4 2.2 2.3-.6 4.5 1.1 7.3 2.9 2.8 5.7 4.9 1.2 7.8 2.7 6 3.2 2.5-1.7 2.5-2.9-1.6-4.9 1.5-3.2 3.7-3 3.7-.8 7.4 1.3 2 2.8 2 .1 1.8 1.1 5.4.7z"/><path id="LK" d="m1445.9 462-4.8 1.5-2.9-5.1-1.4-9.2 2-10.4 4.1 3.5 2.8 4.5 3.1 6.7-.6 6.7z"/><path id="LS" d="m1139.1 697.9-2 .7-3.7-5 3.2-4 3.1-2.5 2.7-1.4 2.2 2 1.7 2-1.9 3.1-1.1 2.1-3.1 1z"/><path id="LT" d="m1111.1 147.6 1 2.7-3.6 2-.5 3.4-4.8 2.3h-4.7l-1.4-1.9-2.5-.7-.6-1.5.2-1.7-2.2-.9-5.1-1.1-1.7-5.1 5.1-1.8 7.9.4 4.5-.6.9 1.2 2.5.4z"/><path id="LU" d="m1016.9 185.4-1.4.1-1.1-.5.4-3.5 1.3-.2 1 1.4z"/><path id="LV" d="m1112.8 136.5 2.5 1.3 1 2.9 2.1 3.6-4.6 2.3-2.7 1-5-2.9-2.5-.4-.9-1.2-4.5.6-7.9-.4-5.1 1.8-.5-4.5 1.7-3.8 4.1-2 4.4 4.5 3.7-.2.1-4.6 3.8-1 2.1.7 4.4 2.2z"/><path id="MA" d="m974.8 276 1.9 4.1.3 3.9 1.9 6.8 1.4 1.4-1 2.5-7.1 1.1-2.5 2.3-3.1.6-.3 4.8-6.4 2.5-2.1 3.2-4.5 1.7-5.4 1-8.9 4.8-.1 7.6h-.9l.1 3.4-3.4.2-1.8 1.5h-2.5l-2-.9-4.6.7-1.9 5-1.8.5-2.7 8.1-7.9 6.9-2 8.9-2.4 2.9-.7 2.3-12.5.5h-.1l.3-3 2.2-1.7 1.9-3.4-.3-2.2 2-4.5 3.2-4.1 1.9-1 1.6-3.7.2-3.5 2.1-3.9 3.8-2.4 3.6-6.5.1-.1 2.9-2.5 5.1-.7 4.4-4.4 2.8-1.7 4.7-5.4-1.2-7.9 2.2-5.6.9-3.4 3.6-4.3 5.4-2.9 4.1-2.7 3.7-6.6 1.8-4 3.9.1 3.1 2.7 5.1-.4 5.5 1.4z"/><path id="MD" d="m1129.4 210.3-1.3-2.9.2-2.7-.6-2.7-3.4-3.8-2-2.6-1.8-1.8-1.6-.7 1.1-.9 3.2-.6 4 1.9 2 .3 2.6 1.7-.1 2.1 2 1 1.1 2.6 2 1.6-.2 1 1 .6-1.3.5-3-.2-.6-.9-1 .5.6 1.1-1.1 2.1-.6 2.1z"/><path id="MG" d="m1267.9 588.9.4 7.7 1.3 3-.7 3.1-1.2 1.8-1.6-3.7-1.2 1.9.8 4.7-.7 2.8-1.7 1.4-.7 5.5-2.7 7.5-3.4 8.8-4.3 12.2-2.9 8.9-3.1 7.5-4.6 1.5-5.1 2.7-3-1.6-4.2-2.3-1.2-3.4v-5.7l-1.5-5.1-.2-4.7 1.3-4.6 2.6-1.1.2-2.1 2.9-4.9.8-4.1-1.1-3-.8-4.1-.1-5.9 2.2-3.6 1-4.1 2.8-.2 3.2-1.3 2.2-1.2 2.4-.1 3.4-3.6 4.9-4 1.8-3.2-.6-2.8 2.4.8 3.3-4.4.3-3.9 2-2.9 1.8 2.8 1.4 2.7z"/><path id="MX" d="m449.3 335.9 2.2-.2-3.2 5.7-1.8 4.6-1.8 8.6-1.1 3.1.4 3.5 1.3 3.2.4 4.9 3 4.8.8 3.7 1.7 3.1 5.7 1.7 1.9 2.7 5.2-1.8 4.3-.6 4.4-1.2 3.6-1.1 3.9-2.6 1.8-3.7 1.2-5.4 1.2-1.9 4-1.7 6.1-1.5 4.9.3 3.4-.6 1.2 1.4-.6 3.1-3.5 3.8-1.8 3.9.9 1.1-1.2 2.8-2.1 5-1.2-1.7-1.1.1-1.1.1-2.5 3.9-.9-.8-.7.3-.1 1-5.2-.1h-5.2l-.5 3.6-2.5.1 1.8 2.1 1.9 1.5.5 1.4.8.4-.4 2.2h-7.2l-3.3 5.2.7 1.2-.8 1.5-.4 1.9-5.6-6.9-2.6-2.1-4.4-1.7-3.2.5-4.8 2.4-2.9.6-3.7-1.7-4.1-1.2-4.8-2.9-4.1-.9-5.9-3-4.3-3.1-1.1-1.7-3.1-.4-5.4-2-1.9-2.9-5.4-3.7-2.2-4-.8-3.2 1.9-.6-.3-1.8 1.6-1.7.4-2.2-1.5-2.9v-2.5l-1.3-3.3-3.8-6.4-4.6-5-1.9-4-4.1-2.6-.7-1.6 1.7-3.9-2.4-1.5-2.5-3.2-.2-4.4-2.8-.6-2.3-3.3-1.7-3.2.3-2-1.5-4.8-.3-4.9.8-2.5-3.1-2.6-1.9.3-2.4-1.7-1.8 2.6-.1 3-1 4.9 1 2.6 2.8 4.4.4 1.6.7.4.1 2.2 1-.1v4.2l1.3 1.6.5 2.3 2.7 3.2.4 6 1 2.8.9 3-.3 3.4 2.6.2 1.6 2.9 1.5 2.9-.3 1.2-2.8 2.3h-1l-.7-3.9-2.9-3.7-3.4-3.1-2.5-1.6 1.2-4.7-.1-3.5-2.1-2-3.1-2.8-.9.8-1-1.7-3-1.5-2.2-3.8.5-.4 2.1.3 2.7-2.4 1-2.9-2.9-4.6-2.6-1.7-.8-4-.6-4.3-.8-5.1-.2-5.8 6.3-.5 7.1-.7-.9 1.3 7 3.1 10.9 4.5h15.1l.8-2.7h9.4l1.3 2.3 2.1 2.1 2.4 2.8.8 3.3.4 3.6 2.3 1.9 4 1.9 4.8-5 4.5-.2 3.2 2.6 1.6 4.4.9 3.8 2.4 3.6.2 4.5.9 3 3.9 2z"/><path id="MK" d="m1105.5 236.6-1 .2-.8 1.1-2.8-.1-1.8 1.4-3.4.5-2.3-1.5-1-2.7.5-2.2.7.1.1-1.3 2.9-1 1.2-.3 1.7-.3 2.4-.2 2.8 2.1z"/><path id="ML" d="m1010.2 378.8.1 14.8-3.1 4.3-.4 4-5 1-7.7.5-2 2.3-3.6.3h-3.6l-1.4-1.2-3.1.9-5.3 2.7-1.1 2-4.3 2.8-.8 1.7-2.4 1.3-2.7-.9-1.5 1.6-.9 4.4-4.5 5.3.2 2.2-1.6 2.7.4 3.7-2.4 1-1.3.8-.9-2.7-1.6.7-1-.1-1 1.8h-4.4l-1.5-1-.8.6-1.7-1.9.3-1.9-.7-.7-1.2.6.3-2.1 1.1-1.6-2.3-2.7-.6-1.8-1.3-1.4-1.1-.2-1.3.9-1.9.9-1.5 1.4-2.4-.5-1.6-1.7-.9-.2-1.5.9h-.9l-.3-2.4.3-2-.5-2.4-2-1.8-1.1-3.7-.2-4 1.9-1.2 1-3.8 1.8-.1 3.9 1.8 3.2-1.3 2.1.4.9-1.4 22.5-.1 1.3-4.5-1-.8-2.5-27.7-2.4-27.7 8.5-.1 18.6 14 18.7 14 1.3 3 3.5 1.8 2.6 1.1.1 4.1z"/><path id="MM" d="m1548.4 364.2-4.1 4.2-.8 2.3-3 1.5-2.8 2.8-3.9.3-1.5 6.9-2.2 1.2 3.5 5.6 4.1 4.7 2.9 4.3-1.4 5.5-1.8 1.2 1.8 3.2 4.3 5.1 1 3.6.2 3 2.7 5.9-2.6 6-2.2 6.6-.9-4.8 1.3-4.9-2.2-3.8-.2-7-2.6-3.4-2.7-7.6-2-8.1-3.1-5.4-3.2 3.3-5.8 4.5-3.3-.5-3.6-1.5.9-8-2-6-5.3-7.4.3-2.3-3.4-.9-4.6-5.2-1.1-5.2 2.1 1-.6-4.6 2.5-1.5-1-2.7 1-2.2-.9-6.7 4.6 1.5 1.6-5.3-.3-3.1 2-5.4-.9-3.7 6.2-4.4 4.2 1.1-1.4-3.9 1.7-1.2-1-2.4 3.1-.5 2.7 3.8 2.7 1.5 1.3 4.9.9 5.3-4.2 5.4.7 7.6 5.6-1.1 2.4 5.9 3.7 1.3-.8 5.3 4.5 2.4 2.6 1.2 3.8-1.9z"/><path id="ME" d="m1090.6 227.2-.8 1.4-1.4.6-.4-1.2-1.9 3.1.5 2.1-1.1-.5-1.7-2.1-2.3-1.3.5-1 .4-3.5 1.6-1.5.9-.6 1.4 1.1.9.9 1.7.7 2.1 1.3z"/><path id="MN" d="m1496.2 181.5 4-1.2 5.7-.8 5.4.9 6.6 2.9 4.9 3.2h4.6l6.8 1 3.6-1.6 5.9-1 4.4-4.4 3.4.7 3.9 2.1 5.6-.6.6 4.7.3 6.3 2.8 2.5 2.3-.8 5.5 1 2.5-2.3 5.2 2 7.2 4.4.8 2.2-4.4-.7-6.8.8-2.5 1.8-1.3 4.2-6.4 2.4-3.2 3.4-5.9-1.3-3.2-.6-.5 4.1 2.9 2.4 1.9 2.1-2.4 2.2-2 3.4-4.9 2.2-7.6.2-7.2 2.2-4.4 3.4-3.3-1.9h-6.2l-9.4-3.9-5.6-.9-6.4.9-11.3-1.5-5.6.2-4.7-3.8-5-5.8-3.4-.7-8-4-7.2-.8-6.5-1.1-3-2.8-1.4-7.3-5.8-5.1-8.2-2.3-5.7-3.3-3.3-4.4 4.7-1.1 6.7-5.3 5.9-2.9 5.3 1.9 5.2.1 4.8 2.9 5 .2 8 1.6 2.4-4.4-4-3.6 1.3-6.4 7 2.5 4.8.8 6.7 1.6 3.6 4.6z"/><path id="MZ" d="M1166.7 673.5h-4.1l-.3-2.9-.6-2.9-.4-2.3 1.4-7.1-1.1-4.6-2.2-9 6.2-7.3 1.7-4.6.8-.6.9-3.8-.8-1.9.4-4.8 1.3-4.4.4-8.2-2.8-2-2.7-.5-1.1-1.6-2.6-1.3-4.7.1-.2-2.4-.4-4.6 17.2-5.3 3.2 3.1 1.5-.6 2.2 1.6.2 2.6-1.3 3 .2 4.5 3.5 4 1.9-4.5 2.5-1.3-.1-8.3-2.2-4.6-1.9-2.1h-.4l-.6-7.3 1.5-6.1 2.2-.2 6.7 1.8 1.5-.8 3.9-.2 2.1-1.9 3.4.1 6.2-2.5 4.6-3.7.9 2.8-.5 6.4.5 5.7-.2 10 .8 3.1-1.9 4.6-2.4 4.5-3.7 4-5.3 2.4-6.5 3.1-6.6 6.9-2.2 1.2-4.2 4.6-2.3 1.4-.8 4.6 2.4 4.9.9 3.7v2l1-.4-.5 6.3-1.1 3 1.2 1.1-1 2.7-2.4 2.3-4.7 2.1-6.9 3.5-2.5 2.4.3 2.7 1.3.4z"/><path id="MR" d="m959.2 341.5-8.5.1 2.4 27.7 2.5 27.7 1 .8-1.3 4.5-22.5.1-.9 1.4-2.1-.4-3.2 1.3-3.9-1.8-1.8.1-1 3.8-1.9 1.2-3.6-4.4-3.4-4.8-3.6-1.7-2.7-1.8h-3.1l-2.8 1.4-2.7-.5-2 2-.4-3.4 1.6-3.2.8-6-.4-6.4-.6-3.2.6-3.2-1.4-3-2.8-2.8 1.3-2.1h21.7l-.9-9.3 1.5-3.3 5.2-.5.2-16.5 18 .4.2-9.8z"/><path id="MW" d="M1182.3 588.9h.4l1.9 2.1 2.2 4.6.1 8.3-2.5 1.3-1.9 4.5-3.5-4-.2-4.5 1.3-3-.2-2.6-2.2-1.6-1.5.6-3.2-3.1-2.9-1.6 2-6 1.8-2.2-.9-5.4 1.3-5.2 1-1.7-1.3-5.4-2.6-2.9 5.5 1.2 1 1.7-.1.8 1.8 4.1.2 7.7-1.8 3.6 1.6 4.7-.2 2.8 1.2 1.9-.1 2.4.9 1.4 1-1.6 1.9 2.5.2-.8-1-3.4-1.1-.3z"/><path d="m1564.3 461.9 1.4.6 3.5 3.9 2.5 4.3.6 4.3-.5 2.9.6 2.2.5 3.8 2.1 1.8 2.3 5.7v2.1l-4 .5-5.5-4.8-6.8-5.1-.8-3.3-3.4-4.3-1-5.3-2.2-3.5.4-4.7-1.4-2.7.9-1.1 4.8 2.8.6 3.3 3.7-.8zM1654.1 475.3l-5-1.1h-6.5l-1.7 7.3-2.1 2.2-2.6 8.9-4.6 1.4-5.4-1.8-2.7.6-3.3 3.2-3.6-.4-3.7 1.3-3.9-3.7-1-4.3 4.2 2.2 4.3-1.2 1-5.4 2.4-1.2 6.8-1.4 3.8-5.1 2.6-4 2.8 3.3 1.1-2.2 2.7.2.1-4.1.1-3.2 4.1-4.4 2.6-5 2.3-.1 3.1 3.3.4 2.8 3.8 1.8 4.8 1.9-.2 2.5-3.8.3 1.1 3.2z" class="Malaysia"/><path id="NA" d="m1116.2 614.3 4.6-1.4 3.6.3 2.2 1.5v.5l-3.2 1.5h-1.7l-3.7 2.5-2-2.7-8.7 2.3-4.2.2-.8 22.9-5.5.2-.6 18.7-1.1 23.7-5 3.3-2.9.5-3.4-1.2-2.5-.5-.8-2.7-2-1.8-2.8 3.2-3.9-4.9-2-4.6-1-6.3-1.2-4.6-1.6-9.9.1-7.7-.6-3.5-2.1-2.7-2.8-5.3-2.8-7.7-1.1-4-4.4-6.3-.3-4.9 2.7-1.2 3.4-1.1 3.6.2 3.3 2.9.8-.5 22.7-.2 3.8 3 13.5.9z"/><path id="NE" d="m1068.6 355 1.6 10 2.2 1.7.1 2 2.4 2.2-1.2 2.8-1.8 13-.2 8.4-7 6-2.3 8.5 2.4 2.4v4.1l3.7.1-.6 3.1-1.5.3-.2 2.1-1 .1-3.9-7-1.4-.3-4.3 3.6-4.4-1.9-3-.3-1.6.9-3.3-.2-3.3 2.7-2.9.2-6.8-3.3-2.7 1.5-2.9-.1-2.1-2.4-5.6-2.4-6.1.8-1.4 1.3-.8 3.7-1.6 2.6-.4 5.8-4.3-3.7h-2l-1.9 1.9.1-4.4-6.5-1.5-.2-3.1-3.1-4.2-.8-2.9.5-3.1 3.6-.3 2-2.3 7.7-.5 5-1 .4-4 3.1-4.3-.1-14.8 7.8-2.8 16-12.6 18.8-12.3 8.8 2.8 3.2 3.5z"/><path id="NG" d="m1066.2 421.7 2.3 2.5-.6 1.2-.3 2.1-4.7 5-1.4 4.1-.8 3.3-1.2 1.5-1.1 4.5-3 2.6-.8 3.2-1.3 2.6-.5 2.7-3.9 2.2-3.2-2.7-2.1.1-3.4 3.8h-1.6l-2.7 6.2-1.4 4.6-5.9 2.3-2.1-.3-2.2 1.4-4.5-.1-3.1-4.1-1.9-4.6-4-4.2h-9.2l.3-10.3-.2-4.1 1.1-4 1.7-2 2.8-4-.6-1.7 1.1-2.6-1.3-3.8.2-2.1.4-5.8 1.6-2.6.8-3.7 1.4-1.3 6.1-.8 5.6 2.4 2.1 2.4 2.9.1 2.7-1.5 6.8 3.3 2.9-.2 3.3-2.7 3.3.2 1.6-.9 3 .3 4.4 1.9 4.3-3.6 1.4.3 3.9 7z"/><path id="NI" d="m519.6 405.5-.5.7-.5 1.4.4 2.3-1.5 2.2-.8 2.6-.5 2.8.2 1.7-.1 2.9-.9.6-.7 2.8.2 1.7-1.2 1.6.1 1.7.8 1.1-1.4 1.4-1.7-.5-.8-1.3-1.8-.5-1.3.8-3.6-1.7-.9.8-1.8-2-2.5-2.6-1.1-2.1-2.2-2.1-2.5-2.9.7-1 .8 1 .5-.4 1.8-.3.8-1.5h.8l.2-3.2 1.3-.1h1.2l1.4-1.7 1.5 1.3.6-.8 1.2-.8 2.1-1.7.2-1.4.5.1.9-1.5.6-.2.9 1 1.1.2 1.3-.8h1.4l2-.8.9-.9z"/><path d="m1113.7 67.5-6.4 2.1-3.2.5.8-3.8-5.8-2.1-5.9 1.8-1.1 4-3.4 2.4-4.7-1.3-5.3.2-5.1-2.8-2.2 1.4-2.6.2.1 3.6-8-.9-.6 3.1h-4l-2.3 3.9-3.4 6.1-5.7 7.9 1.8 2-1.3 2.2-4.3-.1-2.4 5.4 1 7.7 3.1 2.9-.8 6.9-3.4 4-1.8 3.4-3.3-3.6-8.6 6.8-6.1 1.4-6.5-3-1.8-6.3-2-13.5 4-3.7 11.3-4.9 8.1-5.9 7.2-7.8L1048 77l6.4-4.1 10.3-6.8 8.5-2.4 6.7.3 5.2-4.4 7.4.2 7-1 13.7 3.9-4.9 1.4zM1076.6 25.2l-7.6 1.9-6.8-1.1 2.2-1.2-2.6-1.5 7.3-.9 1.9 1.7zM1051 16.7l12.6 3.4-8.6 1.8-1.2 3.4-3 .9-.9 4-4.4.2-8.5-2.9 3-1.7-5.7-1.4-7.7-3.9-3.2-3.5 9.3-1.6 2.3 1.5h5l1-1.5 5.2-.2zM1075.4 13.7l7.4 1.5-4.4 2.4-10.1.5-10.7-.8-1-1.2h-5.1l-4.3-2 10.5-1.2 5.4 1 3.1-1.3z" class="Norway"/><path id="NP" d="m1469 322.9.2 2.7 1.5 4.1-.1 2.5-4.6.1-6.9-1.5-4.3-.6-3.8-3.2-7.7-.9-7.8-3.6-5.8-3.1-5.8-2.4.9-6 2.8-3 1.9-1.5 4.8 2 6.4 4.2 3.3.9 2.5 3.1 4.5 1.2 5 2.9 6.5 1.4z"/><path d="m1283.8 394.9-2.2-4.5-5.2-10.6 16.3-6.4 2.6-12.8-3-4.6v-2.6l1.3-2.6-.2-2.6 2.4-1.3-1.1-.9v-4.2h2.8l3 4.4 3.3 2.3 4.1.9 3.4 1.1 2.9 3.7 1.7 2.1 2 .9.2 1.4-1.7 3.8-.7 1.8-2.2 2.1-1.7 4.4-2.5-.4-1 1.6-.7 3.2 1.1 4.3-.5.8h-2.5l-3.3 2.4-.3 3.1-1.2 1.4-3.5-.1-2 1.6.2 2.6-2.6 1.8-3.1-.6-3.6 2.2zM1296.2 336.7l-1.3-2.2 1.4-2.1.7.5-.2 2.7z" class="Oman"/><path id="PK" d="m1401.6 273.9-3.8 5.4-5.7 1-8.5-1.6-2 2.8 3.3 5.6 2.9 4.4 5.1 3.1-3.8 3.7 1 4.6-3.9 6.5-2.2 6.5-4.5 6.7-6.5-.5-4.9 6.8 4 2.8 1.4 5 3.5 3.2 1.8 5.5h-12.1l-3.2 4.3-4.2-1.6-2.2-4.6-4.9-4.9-10 1.2-9 .1-7.6.9 1.1-7.4 7.5-3.4-.9-2.9-2.7-1.1-1-5.6-5.7-2.8-2.8-3.9-3.2-3.4 9.6 3.3 5.3-1 3.4.8.9-1.4 3.9.6 6.6-2.7-.8-5.4 2.3-3.7h4.1l.2-1.7 4-.9 2.1.6 1.8-1.8-1.1-3.9 1.4-3.8 3.1-1.7-3.1-4.2 5.2.2.9-2.3-.8-2.5 2-2.7-1.4-3.2-1.9-2.7 2.4-2.8 5.3-1.3 5.9-.8 2.4-1.1 2.9-.8 4.7 3 2.9 5z"/><path id="PA" d="m549.3 446.2-.7.9 1.1 3.8-1.1 1.9-1.8-.5-.9 3.1-1.8-1.8-1-3.5 1.4-1.7-1.4-.4-.9-2.1-2.8-1.8-2.4.4-1.3 2.2-2.4 1.6-1.2.2-.6 1.4 2.5 3.5-1.6.8-.8.9-2.7.4-.8-3.9-.8 1.1-1.8-.4-1-2.5-2.3-.5-1.5-.7h-2.4l-.2 1.4-.6-1 .3-1.3.6-1.3-.2-1.1.9-.8-1.1-.9.1-2.6 2.2-.6 1.9 2.3-.2 1.4 2.2.3.6-.6 1.5 1.6 2.8-.5 2.5-1.6 3.5-1.3 2-1.9 3.1.4-.2.6 3.1.2 2.4 1.2 1.8 1.9z"/><path id="PE" d="m590.5 529.4-5.1-.3-.8 1-4.6 1.2-6.3 4.4-.3 3-1.4 2.2.7 3.5-3.4 1.8.2 2.8-1.5 1.1 2.6 5.8 3.3 3.9-1 2.8 3.8.3 2.3 3.5 5 .1 4.4-3.7.1 9.7 2.6.7 3.2-1.1 5.5 10.4-1.1 2.1v4.6l.3 5.4-1.9 3.2 1.2 2.4-1.1 2.2 2.9 5.4-2.9 6.9-1.1 3.3-2.8 1.6-5.9-3.7-.8-2.6-11.7-6.4-10.7-7.1-4.7-3.9-2.8-5.3.8-1.9-5.4-8.4-6.4-11.8-6-12.8-2.4-3-2-4.7-4.6-4.2-4.1-2.6 1.7-2.8-3-6.2 1.7-4.5 4.4-4 .7 2.7-1.6 1.5.3 2.3 2.3-.5 2.3.7 2.5 3.3 3.1-2.7.9-4.3 3.4-5.6 6.7-2.5 6.1-6.8 1.7-4.1-.8-4.9 1.5-.6 3.8 3 1.8 3.1 2.6 1.6 3.5 6.7 4.2.9 3.1-1.7 2.1 1.1 3.4-.6 4.4 3-3.5 6.6 1.7.1z"/><path d="m1700.5 447.8.9 4.3.6 3.6-1.6 5.8-2.5-6.5-2.4 3.3 2.1 4.7-1.4 3-6.9-3.7-1.9-4.7 1.5-3-3.8-3.1-1.6 2.7-2.6-.3-4 3.6-1-1.9 1.8-5.4 3.4-1.8 2.9-2.4 2.2 2.9 4.2-1.7.7-2.9 4-.2-.8-4.9 4.9 3 .7 3.2zM1685.9 435.8l-1.8 2.1-1.4 4.1-1.6 1.9-3.9-4.4 1-1.8 1.3-1.8.2-3.9 3.1-.4-.5 4.3 3.6-6.2zM1655.6 442l-7.1 6.1 2.4-4.5 3.8-4 3-4.4 2.3-6.4 1.6 5.3-3.5 3.5zM1673.1 425.5l3.6 2h3.5l.2 2.6-2.3 2.8-3.4 1.9-.5-3 .1-3.3zM1693.2 423.7l2.4 7.2-4.5-1.7.3 2.2 1.8 3.9-2.6 1.5-.6-4.6-1.8-.3-1.2-3.9 3.3.5-.3-2.4-4-4.9 5.4.1zM1670.2 417.9l-.9 5.6-2.7-3.2-3.5-4.9 4.8.2zM1663.7 383l3.8 1.9 1.4-1.7.8 1.6-.4 2.7 2.6 4.6-.6 5.3-2.9 2.1-.1 5.2 2 5.1 3 .7 2.4-.7 7.5 3.5-.1 3.5 2.1 1.6-.3 2.9-4.7-3.1-2.5-3.4-1.2 2.4-4-3.9-5 1-3-1.4-.1-2.7 1.6-1.6-1.9-1.5-.4 2.3-3.3-3.7-1.3-2.8-1.1-6.1 2.6 2.1-1.1-10.1.8-5.8z" class="Philippines"/><path d="m1868.1 545.6-1.6.7-2.3-2.5-2.2-4.1-.8-4.9.8-.6.5 1.9 1.6 1.5 2.4 4 2.5 2.2zM1846.7 537l-3 .5-1 1.8-3.2 1.6-3 1.5h-3.1l-4.5-1.9-3.1-1.8.6-2 5 1 3.2-.5 1-3.1.9-.2.3 3.4 3.2-.4 1.8-2.2 3.3-2.3-.4-3.8 3.4-.1 1.1 1-.4 3.6zM1782.9 560.4l1.6-21 1-20.9 9.6 4.4 10.3 3.7 3.7 3.3 3 3.2.6 3.8 9.2 4 1.1 3.4-5.2.7.9 4.3 4.7 4.2 3 6.8 3.3-.2-.6 2.8 4.3 1.1-1.8 1.2 5.7 2.7-.9 1.9-3.8.4-1.2-1.6-4.7-.8-5.6-.9-4-4.1-2.8-3.6-2.5-5.6-7.1-2.8-4.9 1.8-3.7 2.2.3 4.7-4.6 2.2-3.1-1.1zM1853.6 530.7l-1.8 1.7-.9-3.8-1.1-2.4-2.5-2.1-3.1-2.8-4-1.9 1.6-1.5 3 1.8 1.9 1.4 2.3 1.5 2.1 2.7 2.1 2.1z" class="Papua New Guinea"/><path id="PL" d="m1079.9 154.8 5.9.7 8.8-.1 2.5.7 1.4 1.9.6 2.7 1.7 2.3.4 2.4-2.8 1.3 1.9 2.8.5 2.8 3.2 5.4-.3 1.7-2.3.7-3.8 5.2 1.6 2.8-1.1-.4-5-2.4-3.5.9-2.4-.6-2.8 1.3-2.7-2.2-1.9.9-.3-.4-2.6-3.1-3.7-.3-.7-2-3.4-.7-.6 1.6-2.8-1.3.2-1.7-3.7-.5-2.5-2-2.4-3.9.2-2.2-1.5-3.3-1.9-2.1 1.2-1.7-1.4-3.1 3.1-1.8 7.1-2.8 5.8-2 4.8 1 .6 1.5z"/><path id="KP" d="m1660.3 229.9 1.4 1.1-2.2-.4-1 2.2-.3 2.1 2.8 4.6-1.9 1.4-.3 1.1-.9 1.9-2.9 1.1-1.4 1.7 1.3 2.7-.3.7 2.6 1.1 4.4 2.8v1.5l-2 .4-3.6.4-.6 2.8-2.5-.2v.6l-3.2-1.2-.1 1.2-1.3.5-.7-1.2-1.7-.6-1.9-1 .1-2.8.9-.8-1-1.1-.4-3.5-.9-1-3.4-.7-3.4-1.7 2.1-4.1 3.9-3.4 1.1-4.6 3.6 2 4.6.3-2.8-3.4 6.4-2.7v-3.6z"/><path id="PY" d="m662.5 631.4 2 3.5.4 8.7 5.9 1.3 2.2-1.3 3.9 1.8 1.2 1.9 1.1 5.9.8 2.4 2.1.3 2-1 2.1 1.1.3 3.6-.3 3.8-.7 3.7-.3 5.6-4.3 5-4.2 1-6.3-1-5.8-1.7 4.2-9.8-1.1-2.8-5.9-2.5-7.3-4.8-4.6-1-11.3-10.4 1.5-7.7-.2-3.5 2.1-5.6 9.6-1.9 5.2.1 5.4 3.3z"/><path id="PS" d="m1178.3 293.8.4 4-.6 1.9-2.5.8.1-1.7 1.3-.9-1.5-.7.7-4.2z"/><path id="QA" d="m1270.1 343.7-1.5.5-1.8-1.3-.8-4.7 1.1-3.3 1.5-.7 1.8 2 .5 3.7z"/><path id="RO" d="m1118.9 193.1 1.6.7 1.8 1.8 2 2.6 3.4 3.8.6 2.7-.2 2.7 1.3 2.9 2.4 1.2 2.3-1.1 2.4 1.1.4 1.7-2.3 1.3-1.6-.6-.4 7.7-3.1-.7-4-2.3-5.9 1.5-2.3 1.6-7.6-.4-4-.9-1.9.4-1.8-2.6-1-1.1 1-1.1-1.3-.7-1.5 1.4-3.1-1.9-.7-2.6-3.2-1.4-.8-2.1-3-2.4 3.9-1.2 2.6-4.3 1.9-4.2 2.9-1.3 2-1.4 3.2.7h3.2l2.5 1.6 1.6-1 3.6-.6 1-1.5z"/><path id="RW" d="m1158.8 509.1 2.2 3.6-.3 3.8-1.6.8-3.1-.4-1.7 3.7-3.5-.5.6-3.6.8-.5.2-3.8 1.6-1.8 1.4.7z"/><path id="EH" d="m938.9 324.3-.1.4-.1 1.2-.2 9.8-18-.4-.2 16.5-5.2.5-1.5 3.3.9 9.3h-21.7l-1.3 2.1.3-2.7h.1l12.5-.5.7-2.3 2.4-2.9 2-8.9 7.9-6.9 2.7-8.1 1.8-.5 1.9-5 4.6-.7 2 .9h2.5l1.8-1.5 3.4-.2-.1-3.4z"/><path id="SA" d="m1240.5 315 5 .6 1.7 3.1 3.9-.2 2.7 5.6 2.9 1.4 1.2 2.3 4 2.7.7 2.6-.4 2.2.9 2.1 1.8 1.8.9 2.1 1 1.6 1.8 1.3 1.5-.5 1.3 2.5.3 1.4 2.7 6.6 16.9 3.2 1-1.4 3 4.6-2.6 12.8-16.3 6.4-15.9 2.5-5 2.9-3.5 6.7-2.6 1.1-1.5-2.1-2.1.3-5.5-.7-1.1-.6-6.4.1-1.5.6-2.4-1.6-1.3 3.1.8 2.7-2.4 2.1-.9-2.8-1.8-1.9-.5-2.6-3.1-2.3-3.3-5.4-1.9-5.2-4.1-4.4-2.5-1.1-4.1-6.1-.9-4.4v-3.8l-3.6-7.2-2.8-2.5-3-1.3-2.1-3.7.2-1.4-1.8-3.4-1.7-1.4-2.5-4.8-3.8-5.1-3.1-4.4h-2.7l.5-3.5.1-2.3.4-2.6 6.2 1.1 2.1-2 1.1-2.3 4.1-.9.7-2.2 1.6-1-6-6.5 10.4-3.2.9-1 6.8 1.8 8.6 4.5 16.8 12.9z"/><path id="SD" d="m1191 409.2-.7 5.5-2 6.4-3.3 3.1-2.3 5-.5 2.6-2.6 1.8-1.5 6.7v.8l-.8-.2.1-3.2-.8-2.2-2.9-2.5-.9-4.6.6-4.8-2.6-.4-.4 1.4-3.4.4 1.5 1.8.5 3.9-3 3.5-2.7 4.6-2.9.7-4.8-3.7-2.1 1.3-.5 1.8-2.9 1.3-.2 1.3h-5.6l-.8-1.3-4.1-.3-2 1.1-1.6-.5-2.9-3.8-1-1.7-4.1.9-1.5 2.9-1.3 5.8-2 1.2-1.7.7-.5-.3-1.9-1.9-.4-2 .8-2.6V437l-3.3-4-.7-2.7v-1.6l-2.1-1.9-.1-3.7-1.3-2.5-1.9.4.5-2.4 1.4-2.6-.7-2.7 1.8-2-1.2-1.5 1.3-3.9 2.5-4.8 4.8.5-1.1-25.5v-2.7h6.4l-.5-12.8h65.9l2.1 6.3-1.2 1.1 1.2 6.7 2.5 7.6 2.2 1.6 3.2 2.4-2.7 3.6-4 1.1-1.7 2-.3 4.2-2 9.5z"/><path id="SS" d="m1178.1 441.1.2 5-.8 1.9-3 .2-1.9 3.6 3.5.5 3 3.1 1 2.6 2.6 1.5 3.5 7-3.8 4.2-3.4 3.8-3.5 3h-4l-4.5 1.5-3.6-1.5-2.3 1.8-5.1-4.3-1.4-2.7-3.1 1.3-2.6-.4-1.5 1.1-2.6-.8-3.5-5.3-.9-2-4.3-2.6-1.4-3.8-2.4-2.8-3.9-3.3-.1-2.1-3.1-2.6-3.9-2.5 1.7-.7 2-1.2 1.3-5.8 1.5-2.9 4.1-.9 1 1.7 2.9 3.8 1.6.5 2-1.1 4.1.3.8 1.3h5.6l.2-1.3 2.9-1.3.5-1.8 2.1-1.3 4.8 3.7 2.9-.7 2.7-4.6 3-3.5-.5-3.9-1.5-1.8 3.4-.4.4-1.4 2.6.4-.6 4.8.9 4.6 2.9 2.5.8 2.2-.1 3.2z"/><path id="SN" d="m918 408 .2 4 1.1 3.7 2 1.8.5 2.4-.3 2-.8.4-3.1-.5-.4.7-1.2.1-4.1-1.5-2.7-.1-10.4-.3-1.5.8-1.9-.2-3 1-.8-4.9 5.1.1 1.4-.9h1l2.1-1.5 2.4 1.3 2.4.2 2.5-1.5-1.1-1.8-1.9 1h-1.7l-2.2-1.6-1.8.1-1.3 1.6-6.1.1-2.3-5-2.7-2.2 2.5-1.3 2.8-4.5 1.4-3.3 2-2 2.7.5 2.8-1.4h3.1l2.7 1.8 3.6 1.7 3.4 4.8z"/><path id="SL" d="m928.5 447.9-2.6 3-2.6 3.4-.3 1.9-1.4 2.1-1.5-.5-4-2.6-3-3.4-.9-2.4-.7-4.7 3.1-2.9.6-1.7 1-1.4 1.6-.2 1.3-1.2h4.5l1.6 2.3 1.2 2.7-.2 1.9.9 1.7-.1 2.3z"/><path id="SV" d="m492.5 415.9-.7 1.5-3.3-.1-2-.6-2.2-1.3-3-.4-1.5-1.4.3-.9 2-1.6 1.2-.7-.3-.8 1.4-.4 1.6.6 1.1 1.2 1.6 1.1.1.8 2.5-.7 1.2.4.7.7z"/><path id="RS" d="m1102 218.2-1.1 1.4.7 2.4 2.8 2.7-1.8 2-.6 2 .6.8-.7.8-2.4.2-1.7.3-.3-.5.6-.7.4-1.6-.7.1-1.1-1.2-.9-.3-.8-1-1-.4-.8-.9-.9.4-.5 2.1-1.2.4.4-.5-2.1-1.3-1.7-.7-.9-.9-1.4-1.1 1.1-.3.5-2.9-2.7-2.5 1.1-2.8-1.9.1 1.7-2.4-1.7-1.8-1.5-2.5 3.7-1.6 3.2.3 3 2.4.8 2.1 3.2 1.4.7 2.6 3.1 1.9 1.5-1.4 1.3.7-1 1.1z"/><path id="SR" d="m681 464.9-3.1 5.5.3 4.4 2.2 3.8-1.1 2.7-.5 3-1.5 2.7-3.2-1.4-2.7.7-2.3-.6-.6 1.9 1 1.2-.6 1.4-3.1-.6-3.3-5.6-.7-3.6H660l-2.4-4.6 1.1-3.4-.3-1.5 3.5-1.6 1-5.8 6.8 1.3.6-1.2 4.6-.5z"/><path id="SK" d="m1098.1 187.7-1.2 1.7-.7 2.5-1 .6-5.5-1.9-1.6.4-1 1.5-2.3.8-.6-.4-2.3.9-1.9.2-.3 1.3-4.1.7-1.9-.6-2.7-1.7-.7-2.1.3-.8.6-1.4 2.2.1 1.6-.6.1-.6.9-.3.2-1.4 1.1-.3.7-1.1h1.5l.3.4 1.9-.9 2.7 2.2 2.8-1.3 2.4.6 3.5-.9z"/><path id="SI" d="m1069.8 203.9-3.9 1.7-.3 2.5-1.7.7.1 1.7-2-.1-1.8-1-.8 1-3.6-.2 1.1-.5-1.4-2.7.4-3.1 4.2.5 2.4-1.5 4.4-.1.9-1.1.8.1z"/><path id="SE" d="m1088.2 87-7 1.6-3.5 3.9 1.3 3.5-6.2 4.5-7.8 5-2.1 8.1 3.7 4.1 4.8 3.3-3.3 6.6-4.6 1.4-.6 10-2.1 5.7-5.7-.6-2.2 4.8-5.5.3-1.9-5.7-4.5-6.9-4.2-8.4 1.8-3.4 3.4-4 .8-6.9-3.1-2.9-1-7.7 2.4-5.4 4.3.1 1.3-2.2-1.8-2 5.7-7.9 3.4-6.1 2.3-3.9h4l.6-3.1 8 .9-.1-3.6 2.6-.2 6 2.7 7.2 3.7 1.8 8.5z"/><path id="SZ" d="m1161.7 667.7.6 2.9.3 2.9-1.4 2.8-3.2.7-3.1-3.5.1-2.2 1.7-2.4.6-1.9 1.7-.4z"/><path id="SY" d="m1195 287.5-9.7 6.9-6.3-2.6h-.1l.6-1-.4-2.6.9-3.5 2.7-2.5-1.2-2.5-2.5-.3-1.1-4.9 1-2.7 1.3-1.4 1.2-1.4-.2-3.5 1.9 1.2 5.6-1.8 3 1.2h4.4l5.7-2.4 2.9.1 5.9-1-2.1 4-2.7 1.6 1.2 4.7-1 7.7z"/><path id="TD" d="m1119.2 376.1 1.1 25.5-4.8-.5-2.5 4.8-1.3 3.9 1.2 1.5-1.8 2 .7 2.7-1.4 2.6-.5 2.4 1.9-.4 1.3 2.5.1 3.7 2.1 1.9v1.6l-3.6 1.1-2.8 2.6-4 7-5.2 3-5.5-.4-1.6.6.6 2.2-2.9 2.3-2.4 2.5-7.1 2.4-1.4-1.4-1-.2-1 1.7-4.6.5.8-1.8-1.8-4.4-.8-2.6-2.5-1.1-3.4-3.8 1.2-3 2.6.6 1.6-.4h3.2l-3.2-5.8.2-4.3-.5-4.2-2.3-4.1.6-3.1-3.7-.1V412l-2.4-2.4 2.3-8.5 7-6 .2-8.4 1.8-13 1.2-2.8-2.4-2.2-.1-2-2.2-1.7-1.6-10 5.5-3.5 22.5 12.3z"/><path id="TG" d="m991.4 431.2-.7 3.4 1.7 1.9 2 2.2.2 3.2 1.2 1.3-.3 14.8 1.4 4.4-4.5 1.4-1.3-2.3-1.5-4.1-.5-3.2 1.3-5.7-1.4-2.4-.6-5v-4.7l-2.3-3.3.4-2z"/><path id="TH" d="m1577.5 410.2-5.3-.9-7.1 1.2-3.1 5.3 2.1 7.8-5.3-3-4.8.2.3-5.1h-4.9l.2 7.1-2.2 9.4-1.4 5.7.7 4.6 3.7.2 2.7 5.9 1.3 5.5 3.4 3.7 3.4.7 3.1 3.4-1.7 2.6-3.7.8-.6-3.3-4.8-2.8-.9 1.1-2.3-2.4-1.2-3.2-3.2-3.6-2.9-3.1-.7 3.8-1.3-3.6.4-4 1.2-6.1 2.2-6.6 2.6-6-2.7-5.9-.2-3-1-3.6-4.3-5.1-1.8-3.2 1.8-1.2 1.4-5.5-2.9-4.3-4.1-4.7-3.5-5.6 2.2-1.2 1.5-6.9 3.9-.3 2.8-2.8 3-1.5 2.7 2 .9 3.9 3.8.3-.4 6.7 1 5.8 5.3-3.8 1.9 1.1 3.2-.2.8-2.2 4.3.4 5 5.2 1.3 6.4 5.3 5.6.4 5.4z"/><path id="TJ" d="m1357 243.6-1.4 1.9-6-1 .6 3.6 5.5-.5 7.1 2.1 9.6-1 3.1 6 1.5-.7 3.7 1.5.5 2.5 1.8 3.6h-5.4l-3.8-.5-2.5 2.9-2.2.6-1.5 1.4-2.7-2.1-.9-5.4-1.7-.3.1-2-3.3-1.4-1.7 2.2.2 2.6-.6.9-3.2-.1-.9 2.9-2.1-1.2-3.4 2-1.8-.7 1.3-6.5-2.4-4.8-4.2-1.5.6-2.8 4.4.3 1.5-3.5.5-4.1 6.5-1.5-.2 3 1.3 1.7z"/><path id="TM" d="m1338.3 262-1.6-.2-2.9-1.7-.3 2.2-4.2 1.3.2 5.1-2.6 2-4 .9-.4 2.9-3.9.9-5.9-2.5-1.7-5.3-4-.3-7.3-5.6-4.3-.7-6.6-3.3-3.9-.6-2 1.2-3.6-.2-3 3.7-4.4 1.2-1.9-4.5-.6-6.7-4.6-2.2.4-4.3-3.5-.4-.1-5.4 5.3 1.6 4.1-2-4.7-3.9-2.4-3.6-3.8 1.6.6 4.7-2.6-4.1 1.8-2.2 5.6-1.3 3.9 1.8 4.8 5 2.6-.3 5.9-.1-1.7-3.2 3.8-2.2 3.4-3.7 7.9 3.4 1.9 5 2.3 1.3 5.5-.3 2.1 1.2 4.3 6.6 7.1 4.4 4.2 3 6.3 3.1 7.7 2.8z"/><path id="TL" d="m1692.7 562.1.1-1.9-.5-1.3.8-1.5 4.9-1.4 4-.3 1.8-.8 2.1.8-2.2 1.8-6.1 2.8z"/><path id="TN" d="m1048.2 289.1-.1 4.9-2.6 1.8-1.6 2.1-3.6 2.5.6 2.6-.4 2.8-2.6 1.4-2.6-11.5-3.4-2.6-.1-1.5-4.5-3.9-.6-4.8 3.2-3.6 1.1-5.3-1-6.1 1-3.3 5.7-2.5 3.7.7v3.3l4.4-2.4.4 1.2-2.5 3.2.1 2.9 1.9 1.6-.5 5.6-3.5 3.2 1.2 3.5 2.8.1 1.4 3.1z"/><path d="m1201.7 235.3 5.5-.3 5.6 3.2 1.3 2.2.1 3.1 4.2 1.6 2.4 1.8-3.3 1.9 2.9 7.3-.7 2 3.8 5.1-2.4 1.1-2.1-1.6-6.3-.9-2.1 1-5.9 1-2.9-.1-5.7 2.4h-4.4l-3-1.2-5.6 1.8-1.9-1.2.2 3.5-1.2 1.4-1.3 1.4-2.3-2.9 1.7-2.4-3.2.6-4.6-1.5-3.2 3.7-8 .7-4.7-3.4-5.7-.2-1 2.6-3.6.8-5.4-3.4-5.8.1-3.8-6.4-4.2-3.5 2-5-3.6-3.1 5.1-6.1 8-.2 1.6-4.9 10 .9 5.6-4.1 5.8-1.8 8.5-.2 9.8 4.5 7.9 2.5 5.8-1 4.6.6zM1121.9 239.9l1.2-.7 1.1-4-2.7-1.7 5-2 4.6.8.9 2.5 4.8 2-.7 1.6-6.2.3-2 2-3.9 3.4-2-2.9z" class="Turkey"/><path id="TW" d="m1657.9 355.5-1.4 5.3-4-5.5-1.5-4.7 1.9-6.3 3.3-4.9 3 1.9-.1 3.9z"/><path id="TZ" d="m1167 508.4-.2 3.9-1.1 4.5 1.6 2.5 2.5-1.5 3.3-.4.7.8 3.3-1.6-2.3-2.2 1.9-2.9 2.8-2.9 20.5 13.1.3 3.7 8.1 6.4-2.8 8 .3 3.6 3.5 2.3.2 1.7-1.7 3.9.3 1.9-.4 3.1 1.8 4 2.2 6.4 2 1.4-4.6 3.7-6.2 2.5-3.4-.1-2.1 1.9-3.9.2-1.5.8-6.7-1.8-2.2.2.1-.1-1.8-2.4-.3-6.8-2.9-3.4-.4 1.2-1-1.7-5.5-1.2-3.2-1.9-3.6-1.1-2.2-1.1-.3-.2-2.7-6.6-.4-3.9-4.5-4.4 1.4-2.4-1.1-2.6.2-2.7-1-.9.3-2.8.6-.1 2-2.3 2.3-3.4 1.4-1.3v-2.1l-1.2-1.5-.3-2.5 1.6-.8.3-3.8-2.2-3.6 2-.8z"/><path id="UG" d="m1179 474.5 2.7 4.5.7 3.2 2.6 7.4-2.1 4.7-2.8 4.2-1.6 2.6v.3l-.2-.4-3-1.3-2.4 1.6-3.6.9-2.6 3.7.3 2.5-6.2-.1-2 .8-3.4 2-1.4-.7.1-4.8 1.3-2.5.3-5.1 1.2-3 2.2-3.3 2.1-1.8 1.9-2.2-2.3-.9.3-7.5 2.3-1.8 3.6 1.5 4.5-1.5h4z"/><path id="UA" d="m1157.2 174.6 2.3 2.7.1 1.2 6.7 2.2 3.6-1 3.6 2.9 2.9-.1 7.7 2 .4 1.9-1.3 3.2 1.8 3.5-.3 2.1-4.8.4-2.2 1.8.4 2.7-3.9.5-3 2.1-4.6.3-4 2.4 1 3.9 2.8 1.5 5.1-.4-.6 2.3-5.4 1.1-6.3 3.6-3.1-1.3.7-2.9-5.9-1.9.7-1.2 4.6-2.1-1.7-1.4-8.1-1.6-.8-2.4-4.5.8-1.3 3.5-3.3 4.6-2.4-1.1-2.3 1.1-2.4-1.2 1.2-.7.6-2.1 1.1-2.1-.6-1.1 1-.5.6.9 3 .2 1.3-.5-1-.6.2-1-2-1.6-1.1-2.6-2-1 .1-2.1-2.6-1.7-2-.3-4-1.9-3.2.6-1.1.9h-2.1l-1 1.5-3.6.6-1.6 1-2.5-1.6h-3.2l-3.2-.7-2 1.4-.5-1.7-3-1.7.7-2.5 1.2-1.7 1.1.4-1.6-2.8 3.8-5.2 2.3-.7.3-1.7-3.2-5.4 2.3-.3 2.4-1.6 3.8-.2 4.9.5 5.7 1.5 3.9.1 1.9.9 1.7-1.1 1.5 1.5 4.3-.3 2.1.6-.3-3.1 1.3-1.4 4.1-.3 1.8.2 1-1.4 1.5.3 4.9-.6 3.8 3.5-.9 1.3.8 1.9z"/><path id="UY" d="m699.7 718.6-1.6 4.1-5.4 3.5-4.2-1.3-2.8.7-5.5-2.7-3.6.2-3.9-3.6-.4-4.1.9-1.4-1.2-6.4.4-6.6.5-5.2 3.4-.7 6.3 5 1.9-.2 6.3 4.1 4.8 3.6 3.8 4.3-1.8 3.1z"/><path id="UZ" d="m1352.7 230.7 1.7.6-3 4.1 4.6 2.4 3.2-1.6 7.2 3.4-5.3 4.6-4.1-.6-2.1.1-1.3-1.7.2-3-6.5 1.5-.5 4.1-1.5 3.5-4.4-.3-.6 2.8 4.2 1.5 2.4 4.8-1.3 6.5-4.3-1.4h-3l-.8-3.9-7.7-2.8-6.3-3.1-4.2-3-7.1-4.4-4.3-6.6-2.1-1.2-5.5.3-2.3-1.3-1.9-5-7.9-3.4-3.4 3.7-3.8 2.2 1.7 3.2-5.9.1-6.2-23.4 12-3.7 1.1.5 9.2 4.5 4.8 2.4 6.6 5.7 5.7-.9 8.6-.5 7.6 4.6 1.5 6.4 2.6.1 2.5 5.2 6.7.2 2.3 3h2l.9-4.6 5.4-4.4z"/><path id="VE" d="m648.7 448.1-4.7 3.8-.5 2.3 1.8 2.4-1.4 1.2-3.5 1v3l-1.6 1.8 3.7 4.8.7 1.8-2.1 2.5-6.4 2.4-4.1 1-1.7 1.5-4.5-1.6-4.1-.8-1.1.6 2.5 1.6-.3 4.3.7 4.1 4.8.5.3 1.4-4.1 1.8-.7 2.7-2.4 1.1-4.2 1.5-1.1 2-4.4.4-3.1-3.4-1.6-6.4-1.5-2.3-2-1.4 2.9-3.2-.2-1.4-1.5-1.9-1.1-4.3.6-4.6 1.3-2.2 1.2-3.4-2-1.1-3.2.7-4.1-.3-2.3.7-3.8-5.6-3.3-.8-7.3.6-1.2-2.2-1.4-.5-.1-1.4.7-2.4-.3-2.5-1.2-1.5-.6-2.9-2.9-.4 1.8-3.8.9-4.6 1.8-2.4 2.3-1.8 1.6-3.2 3.7-1.1-.2 1.5-3.4.8 1.7 2.9-.3 3.4-2.7 3.7 1.9 5.1 2.5-.4 1.5-4.7-1.7-2.2v-4.9l7.2-2.6-.6-3 2.1-2.1 1.7 4.6 4 .1 3.4 3.5.2 2.2h5l6.1-.6 3.1 2.8 4.2.8 3.3-2 .1-1.6 7.1-.4 6.7-.1-4.9 1.9 1.8 3.1 4.5.4 4.2 3.2.7 5.1 2.9-.1z"/><path id="VN" d="m1586.5 363.5-6.5 5.4-3.7 6.1-.6 4.5 5.3 6.7 6.5 8.4 5.7 4 4.1 5.1 4 11.9.4 11.3-4.3 4.2-6.1 4.2-4.2 5.3-6.6 6-2.3-4.1 1.2-4.4-4.4-3.6 4.6-2.6 5.9-.5-2.8-3.8 9-5-.1-7.7-1.8-4.3.2-6.4-2-4.5-4.9-4.5-4.4-5.6-5.7-7.6-7.3-3.9 1.2-2.3 3.3-1.7-3-5.6h-6.8l-3.5-5.8-4-5.1 2.7-1.6 4.4.1 5.3-.8 4.1-3.4 3.1 2.4 5.3 1.2-.3 3.7 3.1 2.6z"/><path id="YE" d="m1283.8 394.9-4 1.7-.9 2.9v2.2l-5.4 2.7-8.8 3-4.7 4.5-2.5.4-1.7-.4-3.2 2.7-3.5 1.2-4.7.3-1.4.4-1.1 1.7-1.5.5-.8 1.6-2.8-.2-1.7.9-4-.3-1.6-3.8v-3.5l-1-1.9-1.3-4.7-1.8-2.6 1.1-.4-.7-2.9.6-1.2-.4-2.8 2.4-2.1-.8-2.7 1.3-3.1 2.4 1.6 1.5-.6 6.4-.1 1.1.6 5.5.7 2.1-.3 1.5 2.1 2.6-1.1 3.5-6.7 5-2.9 15.9-2.5 5.2 10.6z"/><path id="ZM" d="m1162.1 556.8.3.2 2.2 1.1 3.6 1.1 3.2 1.9 2.6 2.9 1.3 5.4-1 1.7-1.3 5.2.9 5.4-1.8 2.2-2 6 2.9 1.6-17.2 5.3.4 4.6-4.3.9-3.3 2.5-.8 2.2-2 .6-5.1 5.2-3.2 4.2-1.9.1-1.8-.7-6.2-.7-1-.5v-.5l-2.2-1.5-3.6-.3-4.6 1.4-3.6-4-3.6-5.2.8-20.5 11.7.1-.4-2.2.9-2.4-.9-3 .7-3.1-.6-2 1.9.1.3 2 2.7-.1 3.5.6 1.9 2.9 4.4.9 3.5-2 1.2 3.3 4.3.9 2 2.8 2.2 3.5h4.3l-.2-6.9-1.6 1.2-3.9-2.5-1.5-1.2.9-6.4 1.1-7.6-1.2-2.8 1.7-4.1 1.5-.8 7.7-1.1.9.3-.3 1.4 1.9.5 1.2 1.3 1-.3z"/><path id="ZW" d="m1159.4 644.7-2.9-.7-1.9.8-2.7-1.1h-2.2l-3.4-2.9-4.3-1-1.5-4.1.1-2.3-2.3-.7-6.1-7-1.6-3.7-1.1-1.2-1.9-5.1 6.2.7 1.8.7 1.9-.1 3.2-4.2 5.1-5.2 2-.6.8-2.2 3.3-2.5 4.3-.9.2 2.4 4.7-.1 2.6 1.3 1.1 1.6 2.7.5 2.8 2-.4 8.2-1.3 4.4-.4 4.8.8 1.9-.9 3.8-.8.6-1.7 4.6z"/><path id="SO" d="m1222.1 512.6-3.3-5.3-.2-23.4 4.9-7.2 1.5-2.1 3.6-.1 5-4.5 7.3-.3 15.6-19.3-4.8.1-18.7-7.6-2.2-2.3-2.2-3.1-2.2-3.6 1.2-2.2 1.9-3.5 1.9 1.2 1.2 2.7 2.7 2.7h2.8l5.2-1.7 6.1-.7 4.9-2 2.8-.4 2-1.2 3.2-.2 1.8-.2 2.5-.9 3-.7 2.5-2.2h2.2l.2 1.8-.4 3.7.2 3.4-1.1 2.3-1.4 7-2.4 7.1-3.3 8.2-4.6 9.4-4.7 7.2-6.6 8.8-5.6 5.2-8.4 6.4-5.3 4.8-6.2 7.8-1.3 3.4z"/><path id="XK" d="m1097.8 230.8-1.2.3-2.9 1-.1 1.3-.7-.1-.6-2.3-1.3-.7-1.2-1.7.8-1.4 1.2-.4.5-2.1.9-.4.8.9 1 .4.8 1 .9.3 1.1 1.2.7-.1-.4 1.6-.6.7z"/><path id="ZA" d="m1159.4 644.7 2.2 9 1.1 4.6-1.4 7.1.4 2.3-2.7-1.1-1.7.4-.6 1.9-1.7 2.4-.1 2.2 3.1 3.5 3.2-.7 1.4-2.8h4.1l-1.7 4.7-1 5.3-1.7 2.9-4 3.3-1.1.9-2.6 3.3-1.8 3.3-3.5 4.6-6.7 6.6-4.1 3.8-4.3 3-5.9 2.4-2.7.4-.9 1.8-3.2-1-2.7 1.2-5.7-1.2-3.3.8-2.2-.4-5.8 2.6-4.6 1-3.5 2.4-2.4.2-2.1-2.3-1.8-.1-2.2-2.9-.3.9-.6-1.7.3-3.8-1.5-4.3 1.8-1.2.1-4.9-3.3-6-2.4-5.4v-.1l-3.6-8.3 2.8-3.2 2 1.8.8 2.7 2.5.5 3.4 1.2 2.9-.5 5-3.3 1.1-23.7 1.4 1 3 6.1-.6 3.9 1.1 2.3 4-.7 2.8-2.9 2.7-1.9 1.5-3.1 2.8-1.4 2.3.7 2.5 1.8 4.5.3 3.6-1.4.6-2 1.2-3.1 3-.5 1.8-2.4 2-4.3 5.2-4.8 8.1-4.7h2.2l2.7 1.1 1.9-.8zm-20.3 53.2 1.1-2 3.1-1 1.1-2.1 1.9-3.1-1.7-2-2.2-2-2.7 1.4-3.1 2.5-3.2 4 3.7 5z"/><path d="m1886.2 764.4-.8 2.6 5.6-2.6-.5 2.7-2.1 2.7-4.2 2.9-7.1 4.7-4.7 2.6-.6 3-4 .1-6.3 2.4-4.7 4.1-8.2 6.4-6.3 2.8-4 1.8-4.6-.1-1.5-2.1-5.1-.4 1-2.4 6.5-4.6 11.4-6.3 4.3-1.2 5.6-2.4 7-3.3 5.7-3.3 6-4.7 3.1-1.6 3.5-3.6 5.8-2.9zM1915.2 733.9l-.4 6.8 2.9-4.4 1.3 1.8-2.4 4.8 2.9 2.1 3.2.5 4.7-2.4 2.2.7-5.2 5.7-4.2 3.7-3.9-.1-2.8 1.9-1.5 2.8-1.6 1.1-4.6 3.5-5.9 4.3-6 2.6.5-1.7-1.5-.9 6.9-5.2.9-3.6-3.8-2.5 1.8-2.3 5.3-2.2 4.2-5 2.5-4.1.6-4.3.8-1.1-.9-2.7-.7-5.6.4-4.6 2.2-.5.9 3.6 3.2 1.6z" class="New Zealand"/><path d="m655.1 837.9 6 13.6h5l3 .2-.5 2.4-3.2 1.9-2.4-.2-3.1-.5-4.2-1.8-5.4-.9-7.5-3.4-6.4-3.2-9.8-6.9 4.6 1.3 8.6 4.1 7.3 2.2 1.2-2.8-.3-4.2 3.4-2.6z" class="Chile"/><path d="m614.4 647.8.9 1.6-1.2 6.7-5.6 3.1 1.6 10.7-.8 2.1 2 2.5-3.3 4-2.6 6-.9 5.9 1.7 6.2-2.1 6.6 4.9 11.1 1.6 1.2 1.4 5.9-1.6 6.2 1.4 5.4-3 4.2 1.6 5.8 3.3 6.3-2.5 2.3.2 5.7.8 6.5 3.3 7.8-1.7 1.3 3.7 7.3 3.1 2.4-.8 2.7 2.8 1.2 1.4 2.4-1.8 1.2 1.8 3.7 1.1 8.3-.7 5.4 1.8 3.2-.1 3.9-2.7 2.8 3.1 6.5 2.6 2.3 3.1-.4 1.9 4.6 3.5 3.6 12.1.8 4.9 1h-4.3l-1.7 1.5-3.4 2.2 1.7 5.7-1.9.1-6.3-1.9-7.5-4.3-7.6-3.5-3.2-3.9-.3-3.6-4.2-4.2-5-10.6-.2-6 3.4-4.8-8.3-1.9 2.7-5.5-2-10.5 6.5 2.2-1.8-13.1-4-1.7 1 7.9-3.5-.9-1.5-9-2-11.8 1.1-4.4-3.3-6.2-2.4-7.2 2.2-.3.6-10.3 1.2-10.3.1-9.5-3.3-9.7.6-5.3-2.1-7.9 1.8-7.8-.9-12.4v-13.4l.1-14.3-1.5-10.5-2.1-9.1 2.8-1.6 1.1-3.3 3.2 4.4 1.2 4.6 3.2 2.7-1.1 6.2 3.7 7.2 3.1 8.9z" class="Chile"/><path id="NL" d="m1016.5 177.1-2.8-1.5-3.1-2.7-4.5 1.3-3.6-.5 2.5-1.7 4-9 6.5-2.6 4 .2.9 2.1-.9 5.6-1.2 2.3h-2.9z"/><path id="PT" d="m946.9 263.7-2.2 1.6-2.8-.9-2.7.7.9-5-.3-3.9-2.4-.6-1.1-2.4.5-4.2 2.2-2.3.5-2.6 1.2-3.8v-2.7l-.9-2.3-.2-2.2 1.9-1.6 2.2-.9 1.2 3.1h3l.9-.8 3.1.2 1.3 3.2-2.4 1.7-.3 5-.8.9-.3 3.1-2.3.5 2 3.8-1.6 4.2 1.8 1.9-.8 1.7-2 2.4z"/><path d="m1689.5 177.4 13.7 11-8.9-2 3.7 9 9.6 6.4 3 4.4-6.5-3.8.1 4.9-4.7-5.3-3.8-6.1-5.6-6.7-2.4-4.8-6.4-8.2-8-6.1-6.8-8.4 1.9-2.8-4.4-2.8 1.3-.9 4.9 4 6.9 5.9 5.2 6.1zM1094.6 155.4l-8.8.1-5.9-.7.7-2.6 6.3-2 5.1 1.1 2.2.9-.2 1.7zM1548.4 48.2l-5.9.1-8.9-.6-1-.3.7-2 4.2-.5 8.4 2zM1561 38.7l-1.1 2-6.9-.4-10.3-2-1.8-1.6 8.3.7zM1535.5 36.3l3.1 3.8-14.3-.2-4.6 1.2-12.5-3.3-3.4-3.4 3.5-.9 10.2.2zM1218.8 61.3l-2.2.4-13.5-.7-2.3-2.3-7.9-1.4-2-2.9 3.5-1.1-1.6-2.8 5.4-4.4-4-.6 6.7-4.5-2.5-2.3 6.8-2.6 10.3-3.2 11.7-.9 5-1.8 6.7-.6 4.2 1.9-1.3 1.5-11.4 2.5-9.9 2.3-8.7 4.8-2.8 5-3.3 5 3.1 4.3z" class="Russian Federation"/><path d="m1661.7 231-1.4-1.1-1.9-3.3 2.5-.1-3.9-7.5-4.7-5.4 2.9-2.2 6.9 1.1-.6-6.2-2.8-6.8.3-2.3-1.3-5.7-6.9 1.9-2.6 2.4h-7.6l-6-5.8-9-4.5-10-2-6.2-6-4.5-3.8-3.8-2.7-7.7-6.2-6-2.2-8.6-1.9-6.2.2-5.1 1.1-1.7 3.1 3.7 1.4 2.5 3.4-1.3 2 .2 6.5 1.9 2.8-4.4 3.9-7.4-2.4-5.6.6-3.9-2.1-3.4-.7-4.4 4.4-5.9 1-3.6 1.6-6.8-1h-4.6l-4.9-3.2-6.6-2.9-5.4-.9-5.7.8-4 1.2-8.5-2.6-3.6-4.6-6.7-1.6-4.8-.8-7-2.5-1.3 6.4 4 3.6-2.4 4.4-8-1.6-5-.2-4.8-2.9-5.2-.1-5.3-1.9-5.9 2.9-6.7 5.3-4.7 1.1-1.7.5-4.4-3.8-6 .9-3.3-2.7-4-1.2-4.1-3.6-3.3-1.1-6.2 1.6-8.4-3.5-1.1 3.2-18.3-15.6-8.4-4.7.8-2-9.2 5.8-4.4.3-1.1-3.3-7.1-2.1-4.3 1.5-4.4-6.3-9.1-1.3-3.1 2.5-10.9 2.3-1.7 1.5-17 2.1-1.4 2.1 5.1 4.2-4 1.6 1.5 1.6-3.5 3 9.4 4.3-.2 2.9-7-.3-.8 1.9-7.3-3.2-7.7.1-4.4 2.6-6.6-2.5-12-4.3-7.6.2-8.1 6.7.6 4.5-6-3.6-2.2 6.9 1.8 1.2-1.7 4.8 5.3 4.2 3.6-.2 4.3 4.2.2 3.2 2.8 1.1-1.4 3.7-4.6 1-3.6 6.5 6 6.1.4 4.2 7.3 7.5-2.5 2.6-.6 1.6-2.4-.5-4.3-3.8-1.5-.2-3.6-1.5-2.1-2.6-5.1-1.3-2.9 1-1.2-1.2-7.6-3.1-7.7-1-4.6-1.1-.4.8-7.6-5.4-6.2-2.4-5.1-3.7 3.6-1 3.2-5.2-3.3-2.5 6.9-2.6-.4-1.4-4.3 1-.4-2.7 2.2-1.8 4.8-.4.3-2.1-1.8-3.5 1.3-3.2-.4-1.9-7.7-2-2.9.1-3.6-2.9-3.6 1-6.7-2.2-.1-1.2-2.3-2.7-3.9-.3-.8-1.9.9-1.3-3.8-3.5-4.9.6-1.5-.3-1 1.4-1.8-.2-2-4-1.5-2 .8-.6 3.9.2 1.6-1.3-1.7-1.6-3.4-1.1v-1.1l-2.1-1.1-3.8-4 .7-1.6-1.1-2.9-4.8-1.4-2.4.7-.9-1.5-5.3-1.5-2.1-3.6-1-2.9-2.5-1.3 1.6-1.9-2.4-5.6 2.6-3.4-.9-1 4.5-3.3-5.4-2.8 8-7.4 3.4-3.4.9-2.9-7.4-3.9.9-3.8-4.9-4.2 1.7-4.8-6.5-6.3 2.9-4.2-7.3-3.7-.4-3.8 3.2-.5 6.4-2.1 3.7-1.9 7.7 3.2 11.7 1.3 17.7 6.2 4.1 2.6 1.5 3.7-3.7 2.9-6.5 1.5-20.2-4.2-2.9.7 8.1 4.1 1 2.6 1.9 5.8 6.1 1.7 3.8 1.5-.2-2.8-3.4-2.4 2.1-2.2 11.6 3.6 3.2-1.4-4.3-4.2 8.1-5.4 4.1.3 4.6 1.9 1.1-3.8-4.7-3.3.8-3.3-4.3-3.4 12.3 1.8 3.6 3-5.1.7 1.2 3.1 4.1 1.9 6-1.2-.4-3.5 7.7-2.7 12.4-4.6 3.2.2-2.5 3.3 5.4.6 2.1-1.9 7.7-.1 5-2.3 6.4 3.3 2.8-3.6-6-3.1 1.2-1.8 13 1.6 6.6 1.7 18.6 6.2 1.1-2.8-5.9-2.9-.8-1.1-5.3-.6-.2-2.5-4.7-4.2-1.1-1.7 4.3-4.7-.6-4.8 2.2-1 11.4 1.4 2.9 2.9-.9 4.2 3.7 1.7 3.8 3.7 3.8 7.4 6.7 3.3.5 3.7-3.5 7.8 5.3.8.5-2 3.8-1.4-.5-2.7 1.9-2.7-4.4-3.1-.4-3.6-4.8-.4-2.9-3-.4-5.4-8.2-4.3 4.7-3.5-3.7-3.7 1.9-.1 4.2 2.8 2.1 5.1 5 1-4.6-3.8 5.1-2.1 8.1-.3 9.6 3-6.9-4.3-4.9-5.5 5.9-1 9.5.2 7.8-.7-5.6-2.6 1.3-3.3 4.2-.2 4.9-2.4 9.3-.7-.2-1.4 9.3-.4 4.3 1.1 5.4-2.6 7 .1-1.5-2.2.9-2 6.2-2 8.3 1.6-3.5 1.2 9.4.7 4.1 2.4 1.9-1.2 10.9.1 11.6 2.4 5.5 1.8 2.5 2.6-2.4 1.5-6.6 2.8-1.1 1.5 5.6.7 7.2 1.3 2.4-1 5.8 3.3.2-1.3 5.2-.8 13.6.8 3.8 2.4 17.4.8-4.8-3.9 9.5.9 6.1-.1 9.9 2.7 6 3.3.4 2.2 10.1 4.2 9 2.1-3-5.5 9.4 2.3 5-1.4 9.8 1.6 1-1.4 7.6.7-9.4-4.9 2.1-2.2 40.4 3.4 7.9 3.1 16.3 4 14.8-1 9.3.9 6.6 2.2 5.1 3.9 7.3 1.5 3.9-1.1 7-.1 9.3 1 6.9-.6 14.3 4.8 2.5-1.7-8.5-3.4-1.8-2.4 15.3 1.5 8-.3 15.8 2.5 9.5 2.4 33.2 22.1-2 2.5-6.2-.4 8.2 3 9.1 4.7 4.2 1.5 3.8 2.4 1 1.5-10-1.2-6.6 4.3-3 .7-1.6 4.1-2 3.6 1.7 2.7-11.5-4.1-6.1 4.6-4.7-2.2-1.4 2.6-7-.9 3.1 3.9 1.1 5.8 2.9 2.4 6.8 1.3 9.1 8.7-4.1.3 3.4 5 4.7 2.6-5 3.1 5.4 7-5.7 1.5 4.5 6.2-1.7 5.8-5.7-4.3-10.5-8.9-16.2-13.6-6.5-8.3.1-3.6-2.8-2.8 5.7-1.3-.2-7.5.7-6 2.5-4.7-6.6-8.2-4.7.5 3.2 4.8-3.6 6.4-12.3-7.2-9.1 2v9.8l7.7 3.6-8.5 1.6-6.4.6-4.3-4.3-8-.9-2.5 2.9-15.1-1-13.2 1.7-3.5 11.7-5 14.2 8.2.8 5.7 3.8 5.8 1.3.4-3 5.6.4 12.8 6.7 4.7 5.2 1.4 6.2 5.5 7.4 5.3 9.9-1 9.1 1.3 4.3-2 7.4-2.1 7.3-.9 3.7-4.6 3.7-3.1.1-5.2-3.1-4.1 4.7zM1367.1 23.1l-18.1 1.8-1.3-6.1 2.2-.5 3.1.3 12.6 2.6zM1164.8 13.1l-4.3.5-2.9.4v.7l-3.6.7-4.5-1 1.1-1.4-7.8-.1 6.3-.8h5.2l1.5 1.1 1.3-1 2.8-.7 5.8.9zM1345.1 20.4l-7.1.6-11.7-1.3-8.1-1.7-6.6-3.2-5.9-.8 5.4-2.9 6.2-.9 9.6 2 13.7 4.2z" class="Russian Federation"/><path id="ES" d="m976.6 223.4 2 2.4 9.5 2.9 1.9-1.4 5.8 2.9 5.9-.8.4 3.7-4.9 4.2-6.6 1.4-.5 2.1-3.2 3.5-2 5.2 2 3.7-3 2.8-1.2 4.2-4 1.3-3.7 4.9-6.8.1-5-.1-3.4 2.2-2.1 2.4-2.6-.5-1.9-2.2-1.4-3.6-4.9-1-.4-2.2 2-2.4.8-1.7-1.8-1.9 1.6-4.2-2-3.8 2.3-.5.3-3.1.8-.9.3-5 2.4-1.7-1.3-3.2-3.1-.2-.9.8h-3l-1.2-3.1-2.2.9-1.9 1.6.5-4.5-2-2.7 7.4-4.6 6.2 1.1h6.9l5.4 1.1 4.3-.4z"/><path d="m1035.7 231.4-1.5 4.9-2.4-1.3-1.3-4.2.9-2.4 3.2-2.4zM1014.4 185l1.1.5 1.4-.1 2.4 1.6 7.2 1.2-2.4 4.2-.4 4.5-1.3 1.1-2.3-.6.2 1.6-3.6 3.5v2.9l2.4-1 1.8 2.7-.1 1.8 1.5 2.4-1.7 1.9 1.5 4.9 2.8.8-.5 2.7-4.5 3.6-10.2-1.7-7.4 2.1-.6 3.8-5.9.8-5.8-2.9-1.9 1.4-9.5-2.9-2-2.4 2.7-3.8 1-12.6-5.1-6.6-3.7-3.2-7.6-2.4-.4-4.6 6.5-1.3 8.3 1.6-1.5-7.1 4.7 2.7 11.4-4.8 1.5-5.1 4.2-1.3.8 2.2 2.2.1 2.4 2.5 3.5 2.9 2.5-.5z" class="France"/><path d="m118.8 379.3-1.1 1.1-1.2-.9.6-1.8-.4-2.4.5-.7 1.2-1-.1-1.3.4-.6.4.1 1.9 1.1.9.6.7.8.9 2.3-.2.3-2.5 1.4zM118.1 369.3l-2 .4-.6-1.3-.5-.5v-.4l.7-.6 1.8.6 1.2 1zM115.1 365.9l-.3.7-3-.2.6-.8zM110.4 364.9l-.4.4-.4-.1-1.9-.2-.3-1.5-.2-.2 1.7-.9.4.4zM102 360.7l-.8.6-1.6-1.1.4-.5 1-.6 1.3.1zM539.5 194.5l-6.1 2-4.7 2.5-4.6 2.7-.5.9 5.7-1.3 2.1 2.1 4.6-1.5 4.9-2.1 5.4-2.1-3.1 3.3 2.5.8 2.5 2.4 5.1-1.4 5.1-.5.3 1.8 1.5.2 1.2.2 1.5 2.5-4.7.6h-.1l-3.7-.7-4.5 1.2-3.7.6-4.7 4.1-3 2.3.4.7 5.5-4.1h.7l-4.7 4.9-2.9 4.4-2.5 3.6-.6 3.1-.8 1.5-.6 1.7.1 3.3.3.5 1.8-.1 1.6-.7 1.4-.8 3.3-3.1 1.8-4.2-.1-3.9 1.4-2.7 2.6-3.1 2.1-2.2 2.7-1.5-.4 2.1 2.2-3.1 1.3-.6 1.7-2.4 3.8 1.3 2.8 2.4-.8 2.9-1.6 2.9-3.8 2.5-.4 1.6h1l4.3-2.7 1.6.6-.5 3.7-.7 2.6-3.7 3.5-2 2.2-2.7 2.4 2.7 1.3 2.5.4 4-.9 3.7-1.7 3-.9 4.6-1.8 5.8-3.8.1-.6.3-1.9 2.7-.8 3.9.3 4 .5 4.6-2.1.6-2.5-.2-.9 6.8-4.4 2.7-1.1 7.8-.1h9.3l1.1-1.5 1.7-.3 2.5-1 2.8-2.9 3.2-4.9 5.5-4.7 1.1 1.6 3.7-1 1.6 1.8-2.9 8.5 2.2 3.6.2 2.1-6.4 3-6 2.2-6 1.9-4 3.8-1.3 1.4-1.2 3.4.7 3.3 2.1.2.2-2.3 1.1 1.4-1 1.8-3.8 1-2.5-.1-4.2 1.1-2.3.3-3.1.3-5 1.9 8.1-1.2 1.1 1.2-7.9 1.9H601l.4-.8-2.1 1.8 1.4.3-2.5 4.6-5.3 4.9.1-1.7-1.1-.3-1.2-1.6v3.5l1 1.1-.6 2.4-2.4 2.5-4.5 5.1-.4-.2 2.9-4.4-2-2.4 1-5.4-1.9 2.8v4.1l-3.2-1 3 2-1.5 6.1 1.4.5v2.2l-1 6.4-4.6 4.7-6.1 1.9-4.4 3.8-2.8.4-3.4 2.4-1.3 2.1-6.9 4.2-3.8 3.1-3.5 3.8-1.9 4.5v4.5l.6 5.5 1.5 4.5-.5 2.8 1.3 7.4-1 4.4-.6 2.5-2 3.9-1.8.8-2.6-.8-.4-2.8-1.8-1.5-2-5.5-1.6-4.9-.4-2.5 2-4.3-.8-3.5-3.1-5.4-1.9-1-6.1 3-.9-.4-2-3-3-1.6-6.4.9-4.6-.8-4.3.5-2.5 1 .6 1.7-.7 2.6.8 1.3-1.2.8-1.8-.9-2.3 1.2-3.9-.2-3.3-3.4-4.9.8-3.6-1.5-3.5.5-5 1.5-6.1 4.7-6.1 2.8-3.7 3-1.9 2.9-1 4.5-.4 3 .6 2.2-2.2.2-3.6-1.4-3.9-2-.9-3-.2-4.5-2.4-3.6-.9-3.8-1.6-4.4-3.2-2.6-4.5.2-4.8 5-4-1.9-2.3-1.9-.4-3.6-.8-3.3-2.4-2.8-2.1-2.1-1.3-2.3h-9.4l-.8 2.7h-15.100000000000001l-10.9-4.5-7-3.1.9-1.3-7.1.7-6.3.5.3-3.2-2.1-3.7-2.2-.8.1-1.8-2.9-.4-1.2-1.7-4.8-.6-.9-1.1.8-3.5-2.5-6.4-.5-8.9.9-1.5-1.3-2.1-1.5-5.4 1.8-5.2-.9-3.5 3.9-5.3 2.8-5.4 1.1-4.9 5.5-6 4-5.7 4-5.7 4.3-8.5 1.8-5.3.4-2.9 1.4-1.3 5.8 2.2-1 5.9 2.2-1.7 2.5-5.1 1.6-5.1h137.1l1.3-2.4h1.7l-.9 3.4 1 1 3.3.4 4.6 1 3.9 1.9 4.4-.8zM275 138.6l-7 2.3-.8-1.6 2.3-2.8 6.4-2.1 3.5-.9 2.6.4v1.9zM236 122l-3.9.9-1.7-1.1-.8-1.6 5.7-1 3 .6zM237.2 99.6l1.2 1 3.5-.5 1.6 1.5 3.3.7-1.2.7-4.9 1.2-1.7-1.3-.3-1-4.3.3-.3-.5z" class="United States"/><path d="M410 66.6 385.4 87l-35.6 32.7 4.2.2 2.8 1.6.5 2.6.3 3.8 7.6-3.3 6.5-1.9-.6 3.1.8 2.4 1.6 2.7-1.1 4.2-1.4 6.9 4.6 3.8-3.2 3.8-5.1 2.9-.6-2.2-2.5-2 3.3-5.2-1.6-4.9 2.7-5.6-4.1-.4-7.1-.1-3.8-1.8-3.3-6.1-3.3-1.1-5.7-2.1-6.8.5-6-2.7-2.7-2.5-6.3 1.2-3.5 4.1-2.9.4-6.6 1.2-6.2 2-6.4 1.3 3.2-3.5 8.4-5.8 6.8-1.8.4-1.4-9.4 3.2-7.4 3.9-11.2 4.2.2 2.9-9 4.2-7.7 2.5-6.6 1.9-4 2.6-10.6 3.1-4.5 2.8-8.2 2.6-2.7-.4-6.2 1.6-7 2.1-6.1 2-10 1.8.4-1.1 8.2-2.8 6.6-1.9 8.6-3.3 6.5-.6 5-2.5 10.4-3.6 2.3-1.2 5.7-2.1 5.8-4.5 6.2-3.5-7.3 1.8-.3-1.1-4.9 2.2.4-3-3.6 2.1 1.6-2.9-7.3 2.3h-2.8l3.7-3.5 3.3-2.2-.4-2.1-7.2 1.2-.6-2.8-1.3-1.4 4-3.3-.4-2.5 5.9-3.3 7.7-3.3 5.3-2.9 4.1-.4 1.8.9 7.1-2.8 2.5.5 5.6-1.8 2.5-2.6-1.1-1 6-2.2-2.8.1-6.2 1.2-2.9 1.3-1.8-1.3-6.9.7-4.6-1.4 1.2-2.3-1-3.2 9.2-2.4 13.2-2.7h3.5l-4.3 2.8 9.2-.2 1.2-3.5-2.3-2.1.8-2.8-.7-2.3-3.3-1.7 6.5-2.9 7.5-.2 8.8-2.4 4.8-2.6 7.9-2.6 4.8-.6 11.2-2.4 3.1.4 10.4-2.8 4.4 1.1-.5 2.4 3.3-1 6.3.3-1.9 1.2 4.9.9 4.9-.5 6.2 1.6 7.2.6 2.2.6 6.6-.8 4.1 1.6z" class="United States"/><path id="GF" d="m677.3 487 1.5-2.8.5-2.9 1-2.7-2.1-3.8-.3-4.4 3.1-5.5 1.9.7 4.1 1.5 5.9 5.4.8 2.6-3.4 5.9-1.8 4.7-2.2 2.5-2.7.4-.8-1.8-1.3-.2-1.7 1.7z"/><path id="AW" d="m592.9 422-.5-.2-.5-.5.1-.6.2.3.4.4.3.5z"/><path id="AI" d="M634.2 384.9h-.2l.3-.4h.3l-.2.3z"/><path d="m27.7 593.3-.3.4-.2.3-.2.1-.4-.3.2-.2h.3l.1-.2zM34.3 593.3l-.5.1-.1-.2.4-.1z" class="American Samoa"/><path d="m640.7 391.9.6.3-.2.3h-.2l-.7.1-.2-.1v-.5l.3-.1.1-.3h.2zM640.7 388.2h.2l.2.2.1.4-.1.3-.2.1-.1-.2-.3-.2v-.5z" class="Antigua and Barbuda"/><path id="BH" d="m1264.1 333.3.3.1.2-.1.4.7-.1.2.1.9v.7l-.2.4-.1-.4-.6-.8.1-.4-.2-.7v-.4z"/><path d="m580.4 366-.4.5-.2.5-.6.3h-.5l-.1-.1-.4.2-.5.1-.6-.2-.4.1-.1-.5.3-.2.2-.3.4-.2.3-.4h.4l.3-.2.2.3.5.2.5-.2.7-1h.3v.2zM580.6 364.3l-.2-.6.6-.3.3.3v.2l-.3.1zM581 357.8l.2-.1.5.3h.4l.4.1.3.2v.3l-.2.1-.5-.4h-.4l-.1-.1-.5.2-.5-.2v-.1l.2-.5zM577.1 356l-.2.4v.7l-.1.4-.4.3-.2.4-.4.3-.7.3-.1.2-.2-.2.1-.2.4-.1.2-.2v-.2l.4-.1.2-.4.4-.1.3-.4-.2-.3h-.4l-.2-.2.4-.5.1-.1zM575.2 355.7l.1.1h.4l.4.2-.4.4-.1-.2h-.2l-.4-.1-.4-.2-.3-.6.3-.1.4.1zM566 349.8l.6.7.3.2.3.5-.3-.1-.1-.2-.3-.1-.4-.4-.2-.1-.2-.4zM569.7 349.8l.3.6.2.5v.4l.2.2.2.7v.9l.2.3.5.2.4.6v.8l-.4-.7v-.2l-.3-.4-.6-.2.2-.2-.3-.3v-.3l.2-.3-.1-.5-.3-.4.1-.1-.3-.4-.1-.6-.2.1zM572.6 349.8l-.3.2-.3-.1-.1-.2.6-.2zM564.4 347.9l-.1-.1-.3-.7h.2zM574.9 347.4l-.4.6h-.4l.2-.3.1-.6.4-.3.1.4zM556.4 346.2l-.3.1-.2.3-.3-.1.6-.4zM556.6 346.9l.4.2.2-.2.1-.5.2-.1.2.6v.5l-.1.3.1.6v.3l-.4.8-.2.1-.4-.2.2-.3.4-.2-.1-.1-.6.4-.2-.2.4-.3h-.4l-.2.1-.2-.2v-.7l.1-.2-.4-.5v-.2l.4-.2.1-.3.3-.1.1-.2.6-.3.1.4-.5.4zM570.1 346.3l.1.5-.2-.1-.5.1-.4.1-.1-.2.3-.2.4-.3v-.2l-.4-.2-.2-.6-.1-.6-.4-.4v-.2l-.5-.5.3-.3.4.4v.5l.2.3.1.5.3.5.4.3.1.3zM559.8 340.8l.3.2-.6.3-.3-.1-.2.2-.5-.1.2-.3.4-.2zM555.6 340.3l.4-.2.3.3-.1.2.1.2-.2.4.3.3.2.9.2.3.4.5-.2.7.1.6-.2.3-.3.1-.4.4-.3.2h-.3l-.3.2h-.3v-.4l-.3-.2.1-.6-.3.3-.2-.1-.6-.4-.3-.3-.2-.3.7-.3.5.7.1-.6-.3-.1-.1-.3.1-.3.6-.6.2-.4-.1-.1.3-.4v-.5l-.2-.7.1-.1h.3zM563.7 337.7l.1.2.3.4.8.7.5.1.1.1.2.4.3.4.5.4v.2l-.2.8-.1.2v.3l-.1.5-.2.3-.1.7-.1.1-.2-.6-.4-.3.1-.2.5.1.2-.2-.1-.2.1-.4.3-.4.1-.5v-.3l-.5-.4-.4-.7-.3-.2-.6-.3-.3-.3-.6-.2-.4.2.4-.9zM554.9 330.2l.5.2h.1l.7.1.2-.2.2.1h.5l.4-.2h.4l.3-.2.1.5-.1.2h-.7l-1.1.2h-.3l-1.5.4-.7.4h-.4l-.2-.1-.3-.3-.5-.6.6.3.1.2h.5l.5-.2.4-.6-.3-.1.2-.3.1-.3zM559.2 328.9l.8.2.2-.1.4.3.9 1 .2.6.4.1.7.5v.2l-.2.5.2.7h-.4l-.5.4-.1.2-.3 1-.1.9-.2.2-.3-.2-.1-.4-.4-.1.3-.5h.2l.5-.4-.1-.4.2-.4v-.3l.2-.3v-.6l.2-.1.2-.3.1-.3-.3-.1-.5-.1-.1-.3v-.2l-.4-.2v-.3l-.3-.7-.2-.1-.3.1-.5-.1h-.3l-.6-.4z" class="Bahamas"/><path id="BL" d="m635.2 387-.1-.3.3.1z"/><path id="BM" d="M637.3 294h-.3l-.1.1.1.2-.4.2-.1-.1.2-.1h.1l.1-.3.3-.1z"/><path id="BB" d="m651.5 418-.6-.2-.1-.5v-.8l.2-.4.2.2.2.6.5.3.1.4z"/><path d="m1233.2 581.3-.9-.1-.2-.4v-.3l.5.1.7.5zM1236.9 579.4l.2 1v.7l-.1.2-.2-.3-.4-.3-.1-.2-.3-.1-.6-.4.1-.1.5.2.3-.1.2-.4v-.2l.3-.1zM1231.2 578.4l-.5-.4-.3-.1-.3-.2-.2-.6.1-.3v-.2l.2-1.2-.1-.1.2-.4.5-.1.2.3-.2 1.2.1.3.2.4.1.5.2.6z" class="Comoros"/><path d="m847.8 406.5-.2.3-.2-.2v-.3l.3-.1zM849.7 406.6l-.2.1-.4-.1-.3-.3-.1-.3.2-.4.5-.3h.4l.2.7-.1.4zM853.2 403.5l.2.1v.2l.2.2.4.5h.2l.2.3.2.5.2.2-.3.5-.3.1-.5-.1-.3-.1-.3-.3v-.2l-.2-.1-.1-.4.1-.2v-.3l.2-.4-.2-.5zM856.3 403.5l.3.1.1.6-.1.4-.4.2-.4-.4.2-.4-.1-.2zM858.3 397.8l.3-.2.5.2.1.2v.7l-.4.3-.3.2h-.3l-.5-.2v-.5l.2-.2v-.6l.1-.1zM850.3 395l.4-.1.3.2h.4l.3.2.1.2h-.5l-.7-.3-.2.1-.3.6-.3-.6-.1-.1-.1-.4.3-.1zM858.1 394.5l.1.1-.1.6-.2.1v-.5l-.2-.3v-.3l-.1-.3.4-.3.2.2-.1.6zM846.8 393.2l.2.3.1.3-.7.3-.3-.2-.2-.2.4-.4zM846 391.4l.3.1v.2l.3.3-.2.4-.6.3-.4.4-.7.1v-.6l-.2-.2v-.2l.2-.2h.2l.2-.2.7-.4z" class="Cape Verde"/><path id="CW" d="M599 424.5h-.3l-.4-.3-.3-.1-.3-.3-.1-.2-.3-.1-.2-.4-.3-.3.1-.5.5.3.1.5.4.4.7.2.2.3.3.4z"/><path d="m532.7 377.8.3.1.2-.4.4.1h.5l.1.2-.2.2-.2-.1-.4.1-.2.1h-.7zM540.8 375.3l-.7.3.2-.3zM541.4 375.4l-.1-.1.8-.3-.2.3z" class="Cayman Islands"/><path d="m1168.2 276.7.1.2.3.4-.4-.1h-.3l-.4.2-.3-.3v-.3l.3-.1.2.1zM1166.5 277.2v.1l-.2.2-.1.6-.1.2h-.3l-.2.2-.5.2-.2.1-.6.3-.4-.1-.5.1-.3.4-.2-.3-.3.1h-.2l-.3-.3-.4.3h-.5l-.5-.2-.5-.1-.4-.3-.3-.6-.3-.3-.2-.7-.2-.3.1-.3.5.3.4-.1.2-.3.1-.3.3-.1.2.1.2-.2h.2l.1.4.5.2.1.2h.6l.6-.5.4.1.3-.2.3.1.4.2.2-.3h.3l.3.4v.6l.3-.2.3.2.1-.1z" class="Cyprus"/><path id="DM" d="m642 401.7.5.1.2.5v.6l-.1.8-.1.2-.2.1-.4.2.1-.4-.1-.2-.1-.7-.3-.5v-.3l.1-.3v-.3h.2z"/><path d="m697.4 836.2.4-.1v.4l-.8-.3.3-.3.2-.1zM696.7 834.8l.2.2.4.1.1.4-.3.1-.1-.4-.2-.2zM702.9 834l.2.1-.1.4-.3-.1-.2-.3.3-.2zM690.8 833.1v.2l.1.3-.4.1-.3-.1-.2-.2-.3-.1-.1-.4h.2l.1-.2.3-.1.2.1-.3.3.3.1.3-.3z" class="Falkland Islands"/><path d="m693.7 831.8-.4-.2-.5-.3-.8-.3.1-.4-.7-.1-.3-.1-.3-.4.2-.1.8.3.8.4.5.1.4.1.3-.3.1-.3.2.1.4-.2.1.2h.5v.3h.3l.9-.2.1.2h.3l.4-.1-.3-.2-.1-.3h.4l.6.2.1.4-.4.5.1.3-.2.2h-.4l-.3.8-.3.3-.3.6-.1.3-.5.3-.1-.2h-.4v.3l-.8-.1-.1.1.3.4-.1.1-.2.4h-.4l-.3.4-.3.1h-.2l-.2-.3-.4-.3v-.2h-.5l.6.4h-.4l-.5-.3-.2-.1-.4-.2-.3-.2v-.2l.7.2.6-.2-.5-.2-.1-.1h.9l.4.1.3.2v-.2l.4-.1.1-.3-.4-.2-.2-.5.1-.2h.6l.2.1.4-.1-.1-.3h-.8v.1l-.4.2h-.6l-.5-.3v-.3l.7.2.6-.2h.3zl.4.2v-.1z" class="Falkland Islands"/><path d="M695.3 829.9h.3l.3.3-.3.1h-.3zM694.3 829.9h-.3l-.1-.3.4.1zM692.9 829.7l.6-.1.2.3-.3.4-.2-.1-.3.1-.3-.2.3-.2.3.2.1-.2-.5-.1zM700.1 829.8h.6l.1-.1.5-.1.4.2.4.3.1.3v.1l-.5.1-.2-.3-.2-.1-.1.3.2.1.1.3.3-.2.2.1.1.4.3.1.1-.1.5.3.1-.4-.8-.2.1-.5.3-.2 1.5-.1.7.6.2.1v.4l-.6-.1-.5-.2-.6.2.3.2.4.1.9.1.3.1.1.2-.2.5h-.5l-.1.1-.7.1-.5.2.3.2-.9.4-.4-.1-.5.1h-.7l-.6-.2-.6-.4v.3l.3.2.6.2.3.3.2-.1.4.1.4.3-.2.1.2.5h-.2l-.3-.3-.4-.1-.5.4-.2-.3-.3-.2h-.3l-.5-.2-.2.1.2.4h.3l.2.2-.2.1.7.6-.2.1-.4-.2h-.3l-.3-.3-.3-.1-.3-.1-.1.6.5.1v.3l-.1.2-.4-.1-.1-.2-.5-.2-.1-.2h-.2l-.4-.5.3-.4v-.2l-.4-.5v-.2l.5-.2-.1-.2.5-.1-.1-.3.6-.4.6-.2.4.4v.4l.3-.1-.5-.6.1-.3-.6-.2-.4-.3.1-.2.4.2.1-.5-.7-.2.1-.3.2.1.3-.2h.3l.2-.3-.3-.3h.4zM695.1 829.4h.7l.2.2.2-.2.2.1.2.3-.2.1-.4-.1-.4-.2-.8-.1.1-.2zM688.3 828.3l-.5-.1.1-.2z" class="Falkland Islands"/><path d="m955.6 112 .4.2h.3l.1.2v.4l.2.3-.1.2-.6-.4-.2-.4-.2-.2-.2-.3zM955.9 110.4l.8.2.2.2-.1.4-.1.1-.4-.5-.5-.1-.2-.4zM954.62 109.04l.08.16h.3v.3h-.4l-.2.2-.6-.2-.2-.1-.2-.3.5-.1.1-.1.557.093-.257-.193.2-.8.5.1.3.5v.1l.6.2.3.5.3.2-.1.6-.5-.4-.2-.2-.2-.1-.1-.2-.2-.2h-.5zM958.3 108.4l-.2-.2.3-.2z" class="Faeroe Islands"/><path d="m955.9 108.9-.4-.2-.3-.3-.1-.3.1-.1.4-.1h.3l.6.4-.1.2.1.2.6.2v.2l-.4.3zM958.1 108.3l-.3.4-.3-.2h-.3l.2-.3-.1-.4.1-.1.2.4zM957.2 108.3h-.2l-.2-.4.1-.3.2.4z" class="Faeroe Islands"/><path d="m1909.4 467.7-.2.3-.5-.1v-.2l.5-.4zM1881.2 457.1h.4l.3.2.1.4-.2.1.1.2-.1.2h-.6l-.2-.2v-.2l-.2-.3v-.3zM1766.5 440.5l.1.3h-.3l-.3.5-.1-.1.3-.8.4-.1z" class="Federated States of Micronesia"/><path id="GD" d="m639.2 424.5-.4.3-.2-.1-.1-.5.2-.5.3-.4h.3l.1.3-.1.7z"/><path id="GU" d="m1800.8 415.5-.1.4v.6l-.1.3h-.3l-.2-.3-.1-.5v-.5l.6-.5.1-.2.1-.5.2-.1.1.2.4.1-.2.5z"/><path d="M636.3 392h-.3l-.1-.2.2-.4h.2l.1.2zM635.6 390.5l-.1.3h-.2l-.4-.2-.2-.2.3-.4.5.4z" class="Saint Kitts and Nevis"/><path id="LC" d="m643.7 413.8-.2-.2-.4-.2-.1-.2v-.6l.1-.2.7-1.1.3.2v.7l-.1.8-.1.4z"/><path id="MF" d="m634.2 386-.4-.1.2-.3.3-.1z"/><path id="MV" d="M1402.9 474.8v.2l-.2-.1.2-.2z"/><path id="MH" d="m1953.8 456 1 .4h-.2z"/><path d="m1063.9 271.7-.2.3-.5-.2-.5-.3v-.5l-.1-.1h.6l.4.3.2.2zM1062.3 270.6l-.5-.1v-.2l.4-.1.4.3z" class="Malta"/><path d="m1802.5 411.1-.1.1-.2-.1-.1-.2.5-.2.2.2zM1804 406h-.2l-.3-.6.1-.3h.3v.3l.2.2zM1804.5 404.4l-.2.2.1.3h-.4v-.7l.1-.2.4-.2-.1.5zM1802.6 396.9h-.3l-.1-.2h.4zM1800.7 385.9l-.1-.2v-.5l.3-.1.2.3zM1799.5 381.6l-.4-.1v-.3l.2-.1.2.2z" class="Northern Mariana Islands"/><path id="MS" d="m638.2 393.9.2.4v.3l-.2.2-.2-.1-.1-.3z"/><path d="m1307.7 630.8.4.9-.2.6-.4.4.1.3-.3.3-.5.2h-.5l-.6-.1-.1.1-.3-.3.2-.2.1-.4.1-.7.2-.4.5-.4.1-.2.2-.5.4-.3.4.1zM1339.5 628.7l-.3-.3.4-.2.3-.1.2.1-.1.2z" class="Mauritius"/><path d="m1915.2 646.9-.2.1-.2.4-.4-.2.2-.5.1-.2.3.1zM1919.6 639.1l-.1.1.2.4h.3l.4-.2-.1.6-.2.2-.1.4-.5.3-.4-.2v-.1l-.3-.3.1-.2-.2-.2.1-.4-.1-.4h.1l.4.1zM1916.9 634.8l-.2.5v.4l-.2.3.3.2.2.1.1.2-.1.2.3.4h-.2l-.2.5-.2.2-.3-.1-.2-.3-.1-.2-.6-.1-.3-.5v-.2l-.1-.3h.3l.3-.2.4-.3.1-.3-.4-.2-.4.1.2-.4.3-.1.2.1.4-.3zM1913.5 633.2l-.3.6-.1.3h.3l-.5.5-.2.2-.1-.2.3-.4.2-.5zM1913.5 633.2l-.2-.4h.4l.1.4zM1899.6 630.8l.2.1.5.9.3.3.3-.1.2-.3.9.5.3.5.7.6.3.4.1.3.4.4.1.2h.2l.3.3.9.2.1.3v.4l.3.4.4.1-.3.5.1.2.4.5h.1l.4.5-.1.4.7.2.4.5h.3l.3.2.5.4-.1.3h.3l.4.5.6.4v.2l.3.1.3.3v.2l.3.6.4.4.1-.1.4.6.5.1.3.3v.4l.1.4.1.1-.2.6-.7.4-.1-.3-.3.1-.3.3-.6-.8h-.4l-.1-.2h-.2l-.2.3-.9-.9h-.2l-.4-.5.1-.8h-.7l-.3-.2-.1-.2-.2-.1h-.3v-.3l-.2-.5-.4.1-.8-.5-.1-.2v-.3l-.3.2-.6-.3-.1-.4-.4-.3-.2-.5-.5-.1.2-.2-.3-.3-.3-.1-.3-.7v-.4l-.2-.3h-.3l-.2-.6.1-.2-.7-.4-.3-.2-.4-.6.3-.2-.2-.2-.2-.3v-.5l-.5-.3v-.6l-.2-.3h.3l.1-.3-.1-.2h-.6l-.2-.3.5-.7-.3-.3zM1900.7 631.1l-.3-.1.1-.4zM1898.4 628.7l-.2.2-.1-.4.2-.2z" class="New Caledonia"/><path id="NR" d="M1933 505.3h-.2l-.1-.3h.3z"/><path id="PW" d="m1747.7 453.1-.2.4.1.1-.2.6.1.2-.5.2-.2-.7.3-.2-.2-.2.3-.6.3-.1z"/><path d="m607.1 385.9-.3-.2.1-.2h.3l.1.1zM621.7 385.4h-.2l-.9.3h-.6l.2-.2.4-.2.4-.1.6.1zM612.2 383l.6.1h.6l.3.1.6-.1.3.1.4-.1.2.1.5-.1.4.1h.3l.8.2v-.2l.6.2.1-.1.8.1.2.2h.2l.6.3.2-.1-.1.7.2.3-.9.3-.3.4-.3.6-.3.2-.3.1h-.4l-.6.1-.3.2-.7-.1-.2-.2-.5.2-.3-.3-.7.2-.9-.1-.3.1-.6.1-.2.1-.2-.2-.4-.1-.3.2-.6-.1.3-.7v-.4l.2-.4-.2-.6-.2-.1-.1-.4.4-.2.2-.1v-.5l.4-.2z" class="Puerto Rico"/><path d="m195.3 679.3-.1-.1-.2-.3.1-.2.3.2zM205.6 641.2l-.1.1-.3-.2.2-.2zM199.4 616.5l-.2-.1.2-.6.5-.4h.3v.2l-.2.4zM151.7 615.5l.7.2.3.4v.3l-.2.1-.5-.1-.4-.6-.1-.2-.6.2h-.2l-.6-.1-.2-.4-.3-.5v-.3l.1-.2.5-.1h.5l.5.2.2.4.1.6zM148.7 614l-.2.6-.5-.2.1-.3.5-.2zM141.1 609.7l-.2.1-.2-.3.3-.1zM139 610.1l-.3.2h-.3l-.2-.8.2-.2.7.8zM138 608.3l.2.1v.5l-.4-.2-.1-.3zM166.3 605.4l-.3.1.1-.3zM204.3 569.5h-.3v-.4l-.2-.3.4.1.1.4zM201.2 566h-.2v-.4l.2-.3.3.2-.2.2zM202.4 564.4v.3l-.4.1h-.6v.3l-.4-.1-.2-.2-.1-.3.7-.4h.3l.2.2zM195.5 561.8v.6000000000000001h-.3l-.3-.4.3-.3zM197.9 558.8l.3.1.1.1-.6.2-.1-.3zM194.2 558.2l.9.1.3.3v.2l-.4.3h-.8l-.1-.5-.1-.4z" class="French Polynesia"/><path d="m1926.8 576.2.3.2-.1.4h.3v.2h-.8l-.3-.5.2-.3zM1888.5 575.6h.2l1 .8.5.3.9.7-.1.3h-.2l-.2.2-.2-.3h-.1l-.2-.2-.1-.4-.4-.1v-.3l-.3-.1-.1.1h-.2l-.9-.4-.2-.4.3-.4zM1925.4 574.1l-.2.3-.3-.2v-.2l.3-.2zM1923.1 570.2l.1.1h.3l-.1.4-.5.2h-.3l-.4.1-.4.6-.1-.3-.3.1-.2-.2v-.3l.5-.1v-.2l.3-.4.7.1zM1896.8 567.4l.3-.1.6.3.5.5.3.3h.2l.2.2h.2l.3.3.3-.1.4.1.2.2h.4l.3-.1.2.3.2.8.3.3v.5l-.2.2.1.3-.4-.2-.3.2-.3-.1-.5-.3h-.2l-.6-.2-.4-.1-.2-.3-.3-.2-.3-.1-.2-.3-.4-.2.2-.4-.1-.4v-.4l-.2-.1-.6-.2-.3.1-.1-.2.1-.3.1-.3zM1900.8 564l-.1.2v.7l-.2-.2v-.5zM1897.9 562.2l.3.9.2.4v.4l.1.5-.2.3-.4-.7-.1.3-.3-.5.1-1 .1-.2v-.3zM1889.5 562.4h.3l.3-.1.4.1.1-.1h1.3l.2.3.3.1.2.3h.2l.2.1.4.4v.6h.2l.4.2.1.3v.6l-.1.1-.7.2-.2.1-.4-.1-.4-.2h-.4l-.1-.2-.5-.3h-.6l-.5.1h-.5l-.5-.1-.3-.2-.3.1-.3-.4-.3-.2-.3-.8-.2-.4.2-.2-.1-.2v-.7l.1-.3.6-.3.4.2.4.5.1.3zM1891.8 560l.5.5-.3.3-.3-.2v-.1zM1891.8 560l-.2.4h-.1l-.4-.3-.3.1-.2-.1-.1-.2.3-.1.2-.2.5.1zM1885.2 559.5l.1.2.2.1-.2.4-.4.2-.3-.4zM1876.7 557.7l.2.3-.1.3-.8-.4.5-.3zM1880.1 558.5l-.3-.2.1-.3.3-.3v.5l.1.2zM1879.2 556.7l.2-.1h.4v.2l-.4.3.2.2v.3l-.4.4-.2.1-.3-.1-.4-.4.1-.6.3-.1.2-.4.3-.1zM1875.6 556.8l-.2.1-.2.5.4.5-.5-.2v-.2l-.1-.3-.4-.4v-.2l.4-.2.1-.3.4-.3.3.2v.4zM1888.5 556.3l.2.2-.1.2-.2-.1-.6-.5.2-.4.3-.1.2.2-.1.3zM1895 555.5l.4.8.6.8v.3l-.4.2v.8l.1.2h.2l.2.3.5.4.1.5.1.3.2.2-.2.2.3.3-.1.1.1.5-.2.2.3.3.1.5.2.5v.6l-.1.1-.3-.3-.3-.5v-.3l-.3-.4-.4-.3-.3-.3-.5-.6-.4-.3-.3-.9-.2-1-.2-.7v-.5l-.1-.4.4-.4-.1-.3-.5-.7-.1-.3.1-.1.4.1.2.1.3-.3zM1874.3 555.2l-.2-.4-.3-.3h.4zM1874.2 554.2l.4.1.1.1.1.5h-.2l-.2-.4zM1877.3 554.4l-.1.3h.7l.4.7v.2l.2.3.1.5-.2.2v.3l-.6-.2-.2-.2h-.3l-.4-.3-.1-.2-.1-.3.4.1-.3-.8-.1-.2-.5.1-.2.1h-.4l-.3.4-.4-.2v-.6l.2-.2h.4v-.4l.4-.6.4-.3.3-.2.4.3.2.4-.1.7zM1871.4 554.4h-.1l-.2-.8.1-.3v-.4l.2.1.1.4v.7zM1874.8 553.9l-.3.2-.1-.1h-.4l-.3-.3-.1-.3-.1-.3.1-.3.3-.4.5-.2.2.2.3.5v.6zM1871.8 550.4l.4.5v.1l.7.4-.1.3-.6.7v.3l-.3.1v-.4h-.2v-.4l-.2-.4-.3-.2-.1-.3.1-.3.2-.2.2-.2zM1882.1 550.5l.3.2-.2.1-.5.1-.1-.3.2-.2z" class="Solomon Islands"/><path d="m1883 550.5.2-.1.5.3.3.1.2.2.3.5.3.1.3.3v.3l.5.1v.3l.3.1.3-.1.1.1.4.2.1.2.3-.1.3.1.1.3.4.3.3.3.4.3 1 1-.3.4.3.5.1.6-.3-.1-.3-.4-.7-.8-.4-.1-.5-.4-.6-.1-.1-.3-.6-.2-.5-.5h-.2l-.8-.6-.5-.3v-.2l-.4-.2-.2-.2-.2-.4-.4-.3-.1-.2v-.4l-.4-.5-.2-.1v-.3zM1881.5 549.9l.2.2.2-.1.3.2-.1.2-.3-.1zM1877 549.3h.5l-.2.2-.3-.1zM1881.3 549.3l-.2.5-.1-.2zM1878.6 549.7l-.5.1-.2-.2.3-.4.3.1zM1866.1 548.8l.2.3-.2.2-.3-.1-.1-.1zM1867.6 546.9l.3.2-.1.3-.7.2-.3-.3.3-.6.2-.1zM1869.3 546v.5l-.2-.2v-.2zM1872.2 544.5l.3.1.4.5.3.2.3.1.3.3.8.4.4.5v.4l.1.6.2.2.3.3h.2l.1.4.7.3.4-.1.1.1v.3l-.3.1-.2.3-.5-.2-.8-.4h-.5l-.3-.4-.7-.4-.6-1-.6-1-.5-.3-.7-.7v-.7l.3-.2.3.1z" class="Solomon Islands"/><path d="M1023.9 501.3h-.2l-.2.3h-.2l-.1-.4-.2-.8v-.3l.4-.5.3-.1.3-.3.4.1.2.4.1.3-.1.4-.2.3-.3.4zM1028.5 491.5l-.1.3-.2.1-.3-.1v-.3l.2-.1v-.3l.2-.2.3.1z" class="So Tom and Principe"/><path id="SX" d="M634.2 386v.1l-.4-.1v-.1z"/><path d="m1249 562.1-.3.2h-.5l-.4.2h-.4v-.2h.5l.4-.1.4-.3h.2zM1248.5 561.8l-.2.1h-.4v-.2zM1300.4 531.5l.4.4-.2.3-.2-.3-.3-.2.2-.5z" class="Seychelles"/><path d="M587.7 361.6h.7l.3.4h-.3l-.3-.1-.5.1-.1-.3zM585 361.5l.3.4.6-.1-.2.2h-.6l-.4-.2zM587.2 360.9v.5l-.5-.2-.1-.3.1-.1z" class="Turks and Caicos Islands"/><path d="m14.7 639.5-.5-.3v-.2l.3-.2zM11.9 637.4h.3l.4.3.3.1.2-.4.3.3-.3.3.1.2-.1.2-.2-.1-.3-.3-.7-.2zM11.1 628.8l-.2.1-.1-.5.2.1zM15.5 621.3l-.5.3h-.2l-.1-.1.3-.5.3.1zM1.4 602l-.1.1-.3-.1.1-.2h.3z" class="Tonga"/><path d="m642.8 432.2-.2.5-.3.4-.2.1-.1.4.2.6-.2.1v.7l.2.3.2.2-.2.2-.1.3v.7l-.2.1-.4.2-.5.1h-.3l-.5.1-.5-.1-.4.1-.3-.1-.5.2-.4-.2h-.6l-.3.2-.3-.1.5-.2.3-.3.4-.1.4-.3.2-.3.6.1.3-.4-.2-.8.2-.4v-.7l-.3-.4-.3-.1-.4-.1-.1-.1.4-.3 1.1-.1.2-.2h1.1l.1-.1 1.2-.2zM645.2 429l-.1.5-.3.1-.4.3h-.2l-.7.4-.2-.2.3-.3.7-.5z" class="Trinidad and Tobago"/><path id="TV" d="M1998.9 556.6v-.2h.1v.1z"/><path id="VC" d="m642.2 417.4-.1.1-.5-.3v-.4l.2-.3.2-.5h.4l.1.4-.1.8z"/><path id="VG" d="m626.1 383.4-.4.2h-.1l-.3.2-.1-.1.1-.3.6-.1z"/><path d="m624.5 387.8.3.3-1.1.2-.1-.5.7-.2zM625.2 384l-.2.2h-.5v-.2l.3-.1zM623.8 383.8l.4.3-.2.2-.3-.2h-.5l.2-.2z" class="United States Virgin Islands"/><path d="m1931.8 631.8-.5-.2.2-.4.5-.1.2.4-.1.2zM1930.6 628h-.2l-.3-.1-.4-.5-.1-.4v-.4l.2-.2.1-.4.3-.1h.4l-.2.3v.5l.7.5-.3.3zM1930.6 622.1h.3l.1.2-.5.1.1.3.4.2.1.3-.1.4-.4.1-.4-.3h-.4l-.2-.2-.3-.2.1-.4v-.3l.2-.5.3-.4h.5l.2.1-.1.4zM1927.6 614.5l.6-.1.1.1.2.6.2.3.1.1-.4.6-.8.2-.3-.3-.1-.5-.3-.1-.4.3-.1-.1.2-.4.4-.3.4-.5zM1929.9 610.6l-.1-.3h.3zM1928.3 608.2l.1.5v.2l.4.1.2.5h.5v.4l-.1.1-.3-.3-.3-.1-.6.2-.3-.1-.1-.2-.1-.4.2-.5.2-.3zM1929.2 608h-.1l-.1-.3h.2zM1929.4 606.6l-.2.2h-.6l-.3.1-.2-.2-.4-.1-.5-.4.1-.2.5-.2.4-.1.4-.3.1-.3h.2l.1.3v.6l.5.4zM1924.7 605.3l.2.3.6.4.7.7.1.1v.4l.2.3-.3.2-.4.4v-.2l-.3-.1h-.4l-.2.1v.2l-.4.2-.3-.1v-.7l-.1-.6.1-.6.1-.5-.2-.5-.6.3-.2-.2-.1-.3v-.3l.3-.3v-.4l.1-.3.3-.1.6.3-.1.2.2.5-.1.2zM1924.1 602.9h-.3l-.5-.3v-.1l.2-.3.2-.1.5.1-.1.4zM1923.6 601.9l.4-.3.1.1.1.3h-.5zM1929.3 604.5l-.2-.1.1-1.2-.1-.3.1-.5.3-.8.1-.5.2.6-.1.3v1.6l-.1.6zM1928 601.2h-.7l-.3-.1v-.2l.9-.7.5-.2.5-.1v.2l-.3.4-.2.3zM1929.9 600.5v.2h-.3l.1-.3.2-1.3v-.1l.1-1.2.2.1-.1 1.3.1.3-.1.5z" class="Vanuatu"/><path d="m1923.6 601.9-.9-.1-.6.3-.1.2h-.2l-.1-.6-.2-.1-.4-1 .4-.8v-.4l-.1-.2v-1.4l-.1-.3v-.5l.2-.3v-.3l.2-.3v-.2l.3-.1.1.5.2.4.2.3.1 1.3-.1.8v.1l.6-.1.3-.3.2-.8v-.2l.3-.2.3.1-.1.4v.9l.3.1v.5l-.2.1.3.4-.2.2v.5l.2.5-.1.2h-.3zM1927.8 592.6l.4.3-.1.4-.3.3-.2.2h-.6v-.4l.1-.4.2-.3zM1928.4 590.7l-.3.2-.2.1v.2l-.2.1v-.3l-.2-.2-.1-.3.1-.4.2-.1.4-.2.1.2.1.4v.1zM1923.4 586.5l-.1-.1.1-.5.2.2z" class="Vanuatu"/><path d="m21.9 591.3.3.1.3.1.3.2-.1.3h-1l-.3-.1-.3.1-.2-.1-.4-.2-.3.1-.3-.2-.2-.2-.6-.3.1-.4.4-.2h.9l.9.4.5.1zM17.4 588.5l.6.6.2.7-.1.3.1.3h-.3l-.3-.2-.3.2-.9.1-.3-.3-.2-.4-.2-.1-.3-.3-.5-.4-.2-.2v-.2l.4.1.3-.1.6-.2h.4l.5-.1h.3z" class="Samoa"/><path id="BQBO" d="M602 424.6h-.2l-.1-.5.1-.3-.1-.3-.4-.1-.3-.3.1-.3 1.2.6-.1.2v.4l-.2.2z"/><path id="BQSE" d="m634.3 389.6-.2.1v-.2l.1-.1z"/><path id="BQSA" d="M632.8 388.7h-.1l.1-.2.1.1z"/><path id="MQ" d="M644 406.9v.2l.4-.1-.2.5.2.2v.2l.2.2.2.9-.3.3-.1-.4-.1.1-.6-.1h-.4l-.2-.3.6-.5h-.4l-.4-.4-.1-.5-.2-.5.3-.4.4.1.5.3z"/><path d="m888.4 323.4-.3.5-.4.5-.3-.4h-.4l-.2-.2.2-.3.4.1.4-.4.3-.2.2.1zM902 321.1v.5l.2.4-.2.7.1.3-.4.4-.5.2-.2.2-.6-.2-.5-.5-.2-.4v-.6l.6-.4.1-.5v-.2l.6.1h.4l.3.1zM892.1 321.9h-.2l-.3-.2-.2-.3.1-.4.1-.3h.6l.5.4.1.3-.5.5zM898.2 318.4v.2l-.6.3-.4.5-.3.2v.4l-.4.7-.1.4-.5.6-.1.2h-.2l-.6.2-.1-.1-.1-.4-.3-.4-.1-.2-.2-.3v-.3l-.4-.6.5-.3.3.2.6-.2h.4l.5-.2.5-.4v-.2l.6-.3h.6l.3-.1zM908.4 321.2l-.3.4-.4.1-.3-.1h-.4v-.2h.3l.6-.2.4-.3.3-.3.1-.5.1-.3.2-.5.3-.4.3-.6.2-.8.2-.2.4-.1.3.3.1.5-.1.5-.1.5v.5l-.1.1-.3.7-.3.3-.6.1-.7.3zM888.8 316.7l.3-.1.2.3.2.5-.2.3.1.4-.6 1-.1-.1-.1-.4-.4-.9-.1-.3-.1-.2.2-.4.3-.2zM912.9 314.7v.4l-.2.5-.7.5-.5.1-.4.5-.5-.2v-.1l.2-.4v-.4l.2-.3.3-.2h.3l.3-.3h.5l.1-.1.2-.5.2-.1.2.2z" class="Canary Islands (Spain)"/><path id="YT" d="m1240.2 583.1.2.3.5.2v.3l-.2.2.1.2-.3.6.1.2-.3.1-.2-.3v-.3l.2-.2-.2-.7-.1-.1-.1-.2z"/><path id="RE" d="M1295 635.8h.4l.4.2.3.3v.3l.1.5.3.2.2.2.1.2-.2.6-.1.4-.2.2-.4.1h-.9l-.2-.2-.8-.4-.3-.5v-.3l-.3-.6.1-.4.2-.2.2-.4h.1l.5-.2z"/><path d="M643 399.9h-.3l-.2-.4.1-.2.3-.3.3.2.1.3v.2zM641.2 397.3h.3v.30000000000000004l-.2.1v1.2000000000000002l-.2.2-.6.3v-.2l-.2-.2-.1-.5v-.5l-.1-.5v-.3l.2-.3.3-.1.5.3zM642.6 396.9l.4.1.5.4-1.3.3-.3.1-.4-.3.1-.6.2-.1-.1-.6.1-.2.3-.2.3.4v.4z" class="Guadeloupe"/><path d="m1989.1 624.9-.3.1.1-.4zM1981.6 623.3l.2.2.3.1v.3l-.5.2-.5-.3-.5.3h-.3l-.2.3.1.3-.4-.1-.1.2-.4-.1-.1.1-.4-.2.3-.1.2-.1.2-.2.4.1.3-.3.2-.3.5-.1.5-.3zM1982.5 623.2l-.2.1-.2-.1.2-.2zM1988.4 617.1l.1.5-.2.6-.1-.2-.1-.4h-.2l.1-.5.2-.1zM1985.8 615.7h-.1l-.1-.4.2-.2.4-.1v.4l-.2.2zM1983.6 613.2l-.1.4.3.2.1.3.3.4.3.1.1.3h.2l.1.4-.3.5.1.2.1.5-.3.2v.5h.2l.1.5-.3.3-.6.2-.1-.2-.3.1-.1.2-.3-.3-.8.3-.8.7-.3-.1-.4.2-.3-.1-.6.1-.3-.2-.9-.3-.3-.1-.6-.1-.2-.1-.5-.2-.2-1 .3-.7h.3l.3-.1.1-.5.3-.1.1-.4-.2-.2.6-.4.4-.5.1.1.6-.5h.2l.9-.4.6.2.3-.1.5-.2.6-.1.3-.3zM1989.9 613.4l-.2.1.2-.9h.4l-.1.4zM1978.5 611.4l-.2.3-.5.3v-.3l.4-.4zM1993.4 611l-.2-.2.1-.2.5-.5.3-.5-.3 1.1zM1994.4 606l-.4.4-.8 1.1-.3.1-.7.4-.2.6-.4.2-.2.3-.1.2.3.1.6-.3.1-.1.3-.3.2-.3.6-.3.3-.3.6-.3v.3l-.5.7-.2.1.1.6-.3.3-.3-.3h-.4l-.5.1-.4.3-.7.1h-1l.5-.5-.4-.2-.6.2-.4.2v.2l-.3.1-.2.1-.1.4-.2.3-.3-.1v-.2l-.4-.1-.4.2-.2.5-.3.2h-.3v-.7l-.2-.4.1-.2-.1-.1-.6.2v-.4l.4-.3h.1l-.1-.5.3-.1.5.3.6-.4h.2l.3-.3h.2l.3-.3v-.2l.8-.1.9-.3.3-.1.4.1.5-.2.2-.4h.2l.2-.4.4.1.1-.2.2.1 1-.5.1.3.2-.1.2.1.3-.3.5-.2.1.1-.5.4z" class="Fiji"/><circle id="0" cx="997.9" cy="189.1"/><circle id="1" cx="673.5" cy="724.1"/><circle id="2" cx="1798.2" cy="719.3"/></svg>